<?xml version="1.0" encoding="UTF-8" standalone="no"?>
<!DOCTYPE svg PUBLIC "-//W3C//DTD SVG 1.1//EN"
 "http://www.w3.org/Graphics/SVG/1.1/DTD/svg11.dtd">
<!-- Generated by graphviz version 2.46.0 (20210118.1747)
 -->
<!-- Title: ARTResonance Pages: 1 -->
<svg width="765pt" height="873pt"
 viewBox="0.00 0.00 765.00 872.58" xmlns="http://www.w3.org/2000/svg" xmlns:xlink="http://www.w3.org/1999/xlink">
<g id="graph0" class="graph" transform="scale(1 1) rotate(0) translate(4 868.58)">
<title>ARTResonance</title>
<polygon fill="white" stroke="transparent" points="-4,4 -4,-868.58 761,-868.58 761,4 -4,4"/>
<text text-anchor="middle" x="378.5" y="-847.78" font-family="Arial Bold" font-size="16.00">ART Resonance vs Reset</text>
<text text-anchor="middle" x="378.5" y="-829.78" font-family="Arial Bold" font-size="16.00">Match Criterion: |X ∩ E| / |X| ≥ ρ (vigilance)</text>
<g id="clust1" class="cluster">
<title>cluster_f1</title>
<polygon fill="#e3f2fd" stroke="#e3f2fd" points="160,-8 160,-177.5 437,-177.5 437,-8 160,-8"/>
<text text-anchor="middle" x="298.5" y="-160.7" font-family="Arial Bold" font-size="16.00">Layer F1 (Input/Comparison)</text>
</g>
<g id="clust2" class="cluster">
<title>cluster_f2</title>
<polygon fill="#fff9c4" stroke="#fff9c4" points="8,-225.46 8,-315.54 304,-315.54 304,-225.46 8,-225.46"/>
<text text-anchor="middle" x="156" y="-298.74" font-family="Arial Bold" font-size="16.00">Layer F2 (Recognition)</text>
</g>
<g id="clust3" class="cluster">
<title>cluster_resonance</title>
<polygon fill="#c8e6c9" stroke="#c8e6c9" points="514,-363.5 514,-599.58 684,-599.58 684,-363.5 514,-363.5"/>
<text text-anchor="middle" x="599" y="-582.78" font-family="Arial Bold" font-size="16.00">RESONANCE (ρ̂ ≥ ρ)</text>
</g>
<g id="clust4" class="cluster">
<title>cluster_reset</title>
<polygon fill="#ffccbc" stroke="#ffccbc" points="356,-363.5 356,-599.58 492,-599.58 492,-363.5 356,-363.5"/>
<text text-anchor="middle" x="424" y="-582.78" font-family="Arial Bold" font-size="16.00">RESET (ρ̂ &lt; ρ)</text>
</g>
<g id="clust5" class="cluster">
<title>cluster_examples</title>
<polygon fill="#f3e5f5" stroke="#f3e5f5" points="312,-206.5 312,-334.5 575,-334.5 575,-206.5 312,-206.5"/>
<text text-anchor="middle" x="443.5" y="-317.7" font-family="Arial Bold" font-size="16.00">Examples</text>
</g>
<!-- input -->
<g id="node1" class="node">
<title>input</title>
<polygon fill="#bbdefb" stroke="black" points="428.5,-143.5 321.5,-143.5 321.5,-107.5 428.5,-107.5 428.5,-143.5"/>
<text text-anchor="middle" x="375" y="-128.9" font-family="Arial" font-size="12.00">Bottom&#45;up Input</text>
<text text-anchor="middle" x="375" y="-115.9" font-family="Arial" font-size="12.00">X = [x₁, x₂, ..., xₙ]</text>
</g>
<!-- match -->
<g id="node3" class="node">
<title>match</title>
<polygon fill="#c8e6c9" stroke="black" points="421.5,-52 328.5,-52 328.5,-16 421.5,-16 421.5,-52"/>
<text text-anchor="middle" x="375" y="-37.4" font-family="Arial" font-size="12.00">Match = X ∩ E</text>
<text text-anchor="middle" x="375" y="-24.4" font-family="Arial" font-size="12.00">(fuzzy AND)</text>
</g>
<!-- input&#45;&gt;match -->
<g id="edge1" class="edge">
<title>input&#45;&gt;match</title>
<path fill="none" stroke="black" d="M375,-107.24C375,-94.49 375,-76.87 375,-62.23"/>
<polygon fill="black" stroke="black" points="378.5,-62.2 375,-52.2 371.5,-62.2 378.5,-62.2"/>
</g>
<!-- expectation -->
<g id="node2" class="node">
<title>expectation</title>
<polygon fill="#ce93d8" stroke="black" points="303.5,-143.5 168.5,-143.5 168.5,-107.5 303.5,-107.5 303.5,-143.5"/>
<text text-anchor="middle" x="236" y="-128.9" font-family="Arial" font-size="12.00">Top&#45;down Expectation</text>
<text text-anchor="middle" x="236" y="-115.9" font-family="Arial" font-size="12.00">E = [e₁, e₂, ..., eₙ]</text>
</g>
<!-- expectation&#45;&gt;match -->
<g id="edge2" class="edge">
<title>expectation&#45;&gt;match</title>
<path fill="none" stroke="#9c27b0" d="M270.93,-102.01C294.87,-86.59 326.16,-66.45 348.15,-52.29"/>
<polygon fill="#9c27b0" stroke="#9c27b0" points="268.99,-99.1 262.47,-107.46 272.77,-104.98 268.99,-99.1"/>
</g>
<!-- match_ratio -->
<g id="node6" class="node">
<title>match_ratio</title>
<polygon fill="#fff59d" stroke="black" points="599,-715.58 502,-681.58 599,-647.58 696,-681.58 599,-715.58"/>
<text text-anchor="middle" x="599" y="-684.98" font-family="Arial" font-size="12.00">Match Ratio</text>
<text text-anchor="middle" x="599" y="-671.98" font-family="Arial" font-size="12.00">ρ̂ = |X ∩ E| / |X|</text>
</g>
<!-- match&#45;&gt;match_ratio -->
<g id="edge3" class="edge">
<title>match&#45;&gt;match_ratio</title>
<path fill="none" stroke="black" d="M421.67,-36.8C507.87,-40.95 687.86,-53.69 738,-89 752.63,-99.3 757,-106.6 757,-124.5 757,-548.58 757,-548.58 757,-548.58 757,-603.09 700.94,-639.5 655.6,-660.03"/>
<polygon fill="black" stroke="black" points="654.17,-656.83 646.41,-664.05 656.97,-663.25 654.17,-656.83"/>
</g>
<!-- category -->
<g id="node4" class="node">
<title>category</title>
<ellipse fill="#ffd54f" stroke="black" cx="87" cy="-257.5" rx="71.34" ry="24.08"/>
<text text-anchor="middle" x="87" y="-260.9" font-family="Arial" font-size="12.00">Active Category</text>
<text text-anchor="middle" x="87" y="-247.9" font-family="Arial" font-size="12.00">winner&#45;take&#45;all</text>
</g>
<!-- category&#45;&gt;expectation -->
<g id="edge5" class="edge">
<title>category&#45;&gt;expectation</title>
<path fill="none" stroke="#9c27b0" d="M111.94,-234.74C138.63,-211.45 180.86,-174.61 208.5,-150.5"/>
<polygon fill="#9c27b0" stroke="#9c27b0" points="210.99,-152.96 216.23,-143.75 206.39,-147.69 210.99,-152.96"/>
<text text-anchor="middle" x="186" y="-188.5" font-family="Arial" font-size="10.00">top&#45;down</text>
</g>
<!-- weights -->
<g id="node5" class="node">
<title>weights</title>
<polygon fill="#ffe082" stroke="black" points="295.5,-275.5 176.5,-275.5 176.5,-239.5 295.5,-239.5 295.5,-275.5"/>
<text text-anchor="middle" x="236" y="-260.9" font-family="Arial" font-size="12.00">Learned Weights</text>
<text text-anchor="middle" x="236" y="-247.9" font-family="Arial" font-size="12.00">W = [w₁, w₂, ..., wₙ]</text>
</g>
<!-- weights&#45;&gt;expectation -->
<g id="edge6" class="edge">
<title>weights&#45;&gt;expectation</title>
<path fill="none" stroke="black" stroke-dasharray="1,5" d="M236,-239.24C236,-217.48 236,-179.82 236,-154.06"/>
<polygon fill="black" stroke="black" points="239.5,-153.83 236,-143.83 232.5,-153.83 239.5,-153.83"/>
</g>
<!-- resonate -->
<g id="node8" class="node">
<title>resonate</title>
<polygon fill="#81c784" stroke="black" points="648,-565.58 550,-565.58 550,-529.58 648,-529.58 648,-565.58"/>
<text text-anchor="middle" x="599" y="-550.98" font-family="Arial" font-size="12.00">Stabilize Match</text>
<text text-anchor="middle" x="599" y="-537.98" font-family="Arial" font-size="12.00">X* = X ∩ E</text>
</g>
<!-- match_ratio&#45;&gt;resonate -->
<g id="edge7" class="edge">
<title>match_ratio&#45;&gt;resonate</title>
<path fill="none" stroke="#4caf50" stroke-width="2" d="M599,-647.27C599,-625.16 599,-596.5 599,-575.76"/>
<polygon fill="#4caf50" stroke="#4caf50" stroke-width="2" points="602.5,-575.72 599,-565.72 595.5,-575.72 602.5,-575.72"/>
<text text-anchor="middle" x="633.5" y="-621.58" font-family="Arial" font-size="10.00">ρ̂ ≥ ρ</text>
<text text-anchor="middle" x="633.5" y="-610.58" font-family="Arial" font-size="10.00">GOOD MATCH</text>
</g>
<!-- mismatch -->
<g id="node11" class="node">
<title>mismatch</title>
<polygon fill="#ff8a65" stroke="black" points="483.5,-565.58 364.5,-565.58 364.5,-529.58 483.5,-529.58 483.5,-565.58"/>
<text text-anchor="middle" x="424" y="-550.98" font-family="Arial" font-size="12.00">Mismatch Detected</text>
<text text-anchor="middle" x="424" y="-537.98" font-family="Arial" font-size="12.00">Novelty signal</text>
</g>
<!-- match_ratio&#45;&gt;mismatch -->
<g id="edge8" class="edge">
<title>match_ratio&#45;&gt;mismatch</title>
<path fill="none" stroke="#f44336" stroke-width="2" d="M567.21,-658.58C554.59,-649.71 540.01,-639.3 527,-629.58 501.69,-610.68 473.53,-588.45 453.06,-572.07"/>
<polygon fill="#f44336" stroke="#f44336" stroke-width="2" points="455.05,-569.18 445.06,-565.65 450.67,-574.64 455.05,-569.18"/>
<text text-anchor="middle" x="561" y="-621.58" font-family="Arial" font-size="10.00">ρ̂ &lt; ρ</text>
<text text-anchor="middle" x="561" y="-610.58" font-family="Arial" font-size="10.00">POOR MATCH</text>
</g>
<!-- vigilance -->
<g id="node7" class="node">
<title>vigilance</title>
<polygon fill="#f0f4c3" stroke="black" points="728.69,-820.58 522.38,-820.58 469.31,-752.58 675.62,-752.58 728.69,-820.58"/>
<text text-anchor="middle" x="599" y="-789.98" font-family="Arial" font-size="12.00">Vigilance Parameter</text>
<text text-anchor="middle" x="599" y="-776.98" font-family="Arial" font-size="12.00">ρ ∈ [0, 1]</text>
</g>
<!-- vigilance&#45;&gt;match_ratio -->
<g id="edge4" class="edge">
<title>vigilance&#45;&gt;match_ratio</title>
<path fill="none" stroke="black" stroke-dasharray="5,2" d="M599,-752.43C599,-743.97 599,-734.76 599,-725.88"/>
<polygon fill="black" stroke="black" points="602.5,-725.68 599,-715.68 595.5,-725.68 602.5,-725.68"/>
</g>
<!-- learn -->
<g id="node9" class="node">
<title>learn</title>
<polygon fill="#66bb6a" stroke="black" points="650,-492.58 548,-492.58 548,-456.58 650,-456.58 650,-492.58"/>
<text text-anchor="middle" x="599" y="-477.98" font-family="Arial" font-size="12.00">Update Weights</text>
<text text-anchor="middle" x="599" y="-464.98" font-family="Arial" font-size="12.00">ΔW ∝ (X* &#45; W)</text>
</g>
<!-- resonate&#45;&gt;learn -->
<g id="edge9" class="edge">
<title>resonate&#45;&gt;learn</title>
<path fill="none" stroke="black" d="M599,-529.4C599,-521.37 599,-511.63 599,-502.65"/>
<polygon fill="black" stroke="black" points="602.5,-502.61 599,-492.61 595.5,-502.61 602.5,-502.61"/>
</g>
<!-- output -->
<g id="node10" class="node">
<title>output</title>
<ellipse fill="#4caf50" stroke="black" cx="599" cy="-395.54" rx="50.41" ry="24.08"/>
<text text-anchor="middle" x="599" y="-398.94" font-family="Arial" font-size="12.00" fill="white">Confident</text>
<text text-anchor="middle" x="599" y="-385.94" font-family="Arial" font-size="12.00" fill="white">Prediction</text>
</g>
<!-- learn&#45;&gt;output -->
<g id="edge10" class="edge">
<title>learn&#45;&gt;output</title>
<path fill="none" stroke="black" d="M599,-456.49C599,-448.63 599,-439.02 599,-429.83"/>
<polygon fill="black" stroke="black" points="602.5,-429.73 599,-419.73 595.5,-429.73 602.5,-429.73"/>
</g>
<!-- ex_match -->
<g id="node14" class="node">
<title>ex_match</title>
<polygon fill="#e1bee7" stroke="black" points="560.5,-300.5 459.5,-300.5 459.5,-214.5 566.5,-214.5 566.5,-294.5 560.5,-300.5"/>
<polyline fill="none" stroke="black" points="560.5,-300.5 560.5,-294.5 "/>
<polyline fill="none" stroke="black" points="566.5,-294.5 560.5,-294.5 "/>
<text text-anchor="middle" x="513" y="-286.9" font-family="Arial" font-size="12.00">Match Example:</text>
<text text-anchor="middle" x="513" y="-273.9" font-family="Arial" font-size="12.00">X = [1, 1, 0, 1]</text>
<text text-anchor="middle" x="513" y="-260.9" font-family="Arial" font-size="12.00">E = [1, 1, 1, 1]</text>
<text text-anchor="middle" x="513" y="-247.9" font-family="Arial" font-size="12.00">|X∩E| = 3, |X| = 3</text>
<text text-anchor="middle" x="513" y="-234.9" font-family="Arial" font-size="12.00">ρ̂ = 1.0 ≥ ρ</text>
<text text-anchor="middle" x="513" y="-221.9" font-family="Arial" font-size="12.00">→ RESONATE</text>
</g>
<!-- output&#45;&gt;ex_match -->
<g id="edge14" class="edge">
<title>output&#45;&gt;ex_match</title>
<path fill="none" stroke="black" stroke-dasharray="1,5" d="M584.99,-372.38C574.19,-355.3 558.83,-330.99 545.06,-309.22"/>
<polygon fill="black" stroke="black" points="547.98,-307.29 539.68,-300.71 542.07,-311.03 547.98,-307.29"/>
</g>
<!-- impl -->
<g id="node16" class="node">
<title>impl</title>
<polygon fill="#ffe082" stroke="black" points="729,-281 585,-281 585,-277 581,-277 581,-273 585,-273 585,-242 581,-242 581,-238 585,-238 585,-234 729,-234 729,-281"/>
<polyline fill="none" stroke="black" points="585,-277 589,-277 589,-273 585,-273 "/>
<polyline fill="none" stroke="black" points="585,-242 589,-242 589,-238 585,-238 "/>
<text text-anchor="middle" x="657" y="-267.4" font-family="Arial" font-size="12.00">ARTLaminarCircuit.java</text>
<text text-anchor="middle" x="657" y="-254.4" font-family="Arial" font-size="12.00">isResonating()</text>
<text text-anchor="middle" x="657" y="-241.4" font-family="Arial" font-size="12.00">FuzzyART.learn()</text>
</g>
<!-- output&#45;&gt;impl -->
<g id="edge16" class="edge">
<title>output&#45;&gt;impl</title>
<path fill="none" stroke="#ff6f00" stroke-dasharray="5,2" d="M608.71,-371.77C618.16,-349.6 632.62,-315.7 643.25,-290.75"/>
<polygon fill="#ff6f00" stroke="#ff6f00" points="646.56,-291.92 647.26,-281.34 640.12,-289.17 646.56,-291.92"/>
</g>
<!-- inhibit -->
<g id="node12" class="node">
<title>inhibit</title>
<polygon fill="#ff7043" stroke="black" points="473.5,-492.58 372.5,-492.58 372.5,-456.58 473.5,-456.58 473.5,-492.58"/>
<text text-anchor="middle" x="423" y="-477.98" font-family="Arial" font-size="12.00">Inhibit Category</text>
<text text-anchor="middle" x="423" y="-464.98" font-family="Arial" font-size="12.00">Temporary</text>
</g>
<!-- mismatch&#45;&gt;inhibit -->
<g id="edge11" class="edge">
<title>mismatch&#45;&gt;inhibit</title>
<path fill="none" stroke="black" d="M423.76,-529.4C423.64,-521.37 423.51,-511.63 423.38,-502.65"/>
<polygon fill="black" stroke="black" points="426.88,-502.56 423.24,-492.61 419.88,-502.66 426.88,-502.56"/>
</g>
<!-- search -->
<g id="node13" class="node">
<title>search</title>
<ellipse fill="#f4511e" stroke="black" cx="423" cy="-395.54" rx="58.88" ry="24.08"/>
<text text-anchor="middle" x="423" y="-398.94" font-family="Arial" font-size="12.00" fill="white">Search for</text>
<text text-anchor="middle" x="423" y="-385.94" font-family="Arial" font-size="12.00" fill="white">Better Match</text>
</g>
<!-- inhibit&#45;&gt;search -->
<g id="edge12" class="edge">
<title>inhibit&#45;&gt;search</title>
<path fill="none" stroke="black" d="M423,-456.49C423,-448.63 423,-439.02 423,-429.83"/>
<polygon fill="black" stroke="black" points="426.5,-429.73 423,-419.73 419.5,-429.73 426.5,-429.73"/>
</g>
<!-- search&#45;&gt;category -->
<g id="edge13" class="edge">
<title>search&#45;&gt;category</title>
<path fill="none" stroke="#ff6f00" stroke-dasharray="5,2" d="M365.79,-389.79C311.8,-383.37 229.97,-368.5 167,-334.5 145.7,-323 125.95,-304.35 111.39,-288.39"/>
<polygon fill="#ff6f00" stroke="#ff6f00" points="113.93,-285.99 104.68,-280.82 108.7,-290.63 113.93,-285.99"/>
<text text-anchor="middle" x="237" y="-345.5" font-family="Arial" font-size="10.00">new candidate</text>
</g>
<!-- ex_mismatch -->
<g id="node15" class="node">
<title>ex_mismatch</title>
<polygon fill="#ffccbc" stroke="black" points="435.5,-300.5 320.5,-300.5 320.5,-214.5 441.5,-214.5 441.5,-294.5 435.5,-300.5"/>
<polyline fill="none" stroke="black" points="435.5,-300.5 435.5,-294.5 "/>
<polyline fill="none" stroke="black" points="441.5,-294.5 435.5,-294.5 "/>
<text text-anchor="middle" x="381" y="-286.9" font-family="Arial" font-size="12.00">Mismatch Example:</text>
<text text-anchor="middle" x="381" y="-273.9" font-family="Arial" font-size="12.00">X = [1, 1, 0, 1]</text>
<text text-anchor="middle" x="381" y="-260.9" font-family="Arial" font-size="12.00">E = [1, 0, 0, 0]</text>
<text text-anchor="middle" x="381" y="-247.9" font-family="Arial" font-size="12.00">|X∩E| = 1, |X| = 3</text>
<text text-anchor="middle" x="381" y="-234.9" font-family="Arial" font-size="12.00">ρ̂ = 0.33 &lt; ρ (0.7)</text>
<text text-anchor="middle" x="381" y="-221.9" font-family="Arial" font-size="12.00">→ RESET</text>
</g>
<!-- search&#45;&gt;ex_mismatch -->
<g id="edge15" class="edge">
<title>search&#45;&gt;ex_mismatch</title>
<path fill="none" stroke="black" stroke-dasharray="1,5" d="M415.88,-371.46C410.72,-354.78 403.55,-331.56 397.06,-310.5"/>
<polygon fill="black" stroke="black" points="400.32,-309.22 394.03,-300.7 393.63,-311.29 400.32,-309.22"/>
</g>
<!-- search&#45;&gt;impl -->
<g id="edge17" class="edge">
<title>search&#45;&gt;impl</title>
<path fill="none" stroke="#ff6f00" stroke-dasharray="5,2" d="M465.86,-379.05C508.52,-363.48 569.04,-340.88 579,-334.5 598.38,-322.08 616.98,-304.28 631.14,-289.03"/>
<polygon fill="#ff6f00" stroke="#ff6f00" points="634,-291.08 638.13,-281.32 628.82,-286.38 634,-291.08"/>
</g>
<!-- properties -->
<g id="node17" class="node">
<title>properties</title>
<polygon fill="#b2dfdb" stroke="black" points="722.5,-162 537.5,-162 537.5,-89 728.5,-89 728.5,-156 722.5,-162"/>
<polyline fill="none" stroke="black" points="722.5,-162 722.5,-156 "/>
<polyline fill="none" stroke="black" points="728.5,-156 722.5,-156 "/>
<text text-anchor="middle" x="633" y="-148.4" font-family="Arial" font-size="12.00">Key Properties:</text>
<text text-anchor="middle" x="633" y="-135.4" font-family="Arial" font-size="12.00">• Prevents catastrophic forgetting</text>
<text text-anchor="middle" x="633" y="-122.4" font-family="Arial" font-size="12.00">• Self&#45;stabilizing plasticity</text>
<text text-anchor="middle" x="633" y="-109.4" font-family="Arial" font-size="12.00">• Novelty detection</text>
<text text-anchor="middle" x="633" y="-96.4" font-family="Arial" font-size="12.00">• Category proliferation control</text>
</g>
<!-- impl&#45;&gt;properties -->
<g id="edge18" class="edge">
<title>impl&#45;&gt;properties</title>
<path fill="none" stroke="black" stroke-dasharray="1,5" d="M652.82,-233.86C649.68,-216.85 645.28,-193 641.42,-172.09"/>
<polygon fill="black" stroke="black" points="644.83,-171.31 639.57,-162.11 637.95,-172.58 644.83,-171.31"/>
</g>
</g>
</svg>
