<?xml version="1.0" encoding="UTF-8" standalone="no"?>
<!DOCTYPE svg PUBLIC "-//W3C//DTD SVG 1.1//EN"
 "http://www.w3.org/Graphics/SVG/1.1/DTD/svg11.dtd">
<!-- Generated by graphviz version 2.46.0 (20210118.1747)
 -->
<!-- Title: BipoleCellNetwork Pages: 1 -->
<svg width="1634pt" height="556pt"
 viewBox="0.00 0.00 1633.99 556.00" xmlns="http://www.w3.org/2000/svg" xmlns:xlink="http://www.w3.org/1999/xlink">
<g id="graph0" class="graph" transform="scale(1 1) rotate(0) translate(4 552)">
<title>BipoleCellNetwork</title>
<polygon fill="white" stroke="transparent" points="-4,4 -4,-552 1629.99,-552 1629.99,4 -4,4"/>
<text text-anchor="middle" x="812.99" y="-531.2" font-family="Arial Bold" font-size="16.00">Bipole Cell Network (Layer 2/3)</text>
<text text-anchor="middle" x="812.99" y="-513.2" font-family="Arial Bold" font-size="16.00">Horizontal Grouping and Illusory Contour Formation</text>
<g id="clust1" class="cluster">
<title>cluster_input</title>
<polygon fill="#fff9c4" stroke="#fff9c4" points="97.53,-148 97.53,-224 743.41,-224 743.41,-148 97.53,-148"/>
<text text-anchor="middle" x="420.47" y="-207.2" font-family="Arial Bold" font-size="16.00">Bottom&#45;up Input (Layer 4)</text>
</g>
<g id="clust2" class="cluster">
<title>cluster_bipole</title>
<polygon fill="#ffe0b2" stroke="#ffe0b2" points="337.94,-294 337.94,-372 979.44,-372 979.44,-294 337.94,-294"/>
<text text-anchor="middle" x="658.69" y="-355.2" font-family="Arial Bold" font-size="16.00">Bipole Cells (Layer 2/3)</text>
</g>
<g id="clust3" class="cluster">
<title>cluster_gating</title>
<polygon fill="#e3f2fd" stroke="#e3f2fd" points="673.44,-8 673.44,-140 1232.9,-140 1232.9,-8 673.44,-8"/>
<text text-anchor="middle" x="953.17" y="-123.2" font-family="Arial Bold" font-size="16.00">Bipole Gating Rule</text>
</g>
<g id="clust4" class="cluster">
<title>cluster_illusory</title>
<polygon fill="#c8e6c9" stroke="#c8e6c9" points="664.44,-380 664.44,-470 1251.99,-470 1251.99,-380 664.44,-380"/>
<text text-anchor="middle" x="958.22" y="-453.2" font-family="Arial Bold" font-size="16.00">Illusory Contour Formation</text>
</g>
<g id="clust5" class="cluster">
<title>cluster_horizontal</title>
<polygon fill="#f3e5f5" stroke="#f3e5f5" points="0,-258 0,-444 246,-444 246,-258 0,-258"/>
<text text-anchor="middle" x="123" y="-427.2" font-family="Arial Bold" font-size="16.00">Horizontal Connection Pattern</text>
</g>
<!-- i1 -->
<g id="node1" class="node">
<title>i1</title>
<ellipse fill="#4caf50" stroke="black" cx="122.5" cy="-173" rx="16.94" ry="16.94"/>
<text text-anchor="middle" x="122.5" y="-169.9" font-family="Arial" font-size="12.00">●</text>
</g>
<!-- i2 -->
<g id="node2" class="node">
<title>i2</title>
<ellipse fill="white" stroke="black" cx="291.97" cy="-173" rx="16.94" ry="16.94"/>
<text text-anchor="middle" x="291.97" y="-169.9" font-family="Arial" font-size="12.00">○</text>
</g>
<!-- i1&#45;&gt;i2 -->
<!-- b1 -->
<g id="node6" class="node">
<title>b1</title>
<polygon fill="#ffb74d" stroke="black" points="440.94,-338 345.94,-338 345.94,-302 440.94,-302 440.94,-338"/>
<text text-anchor="middle" x="393.44" y="-323.4" font-family="Arial" font-size="12.00">Bipole 1</text>
<text text-anchor="middle" x="393.44" y="-310.4" font-family="Arial" font-size="12.00">◀━━○━━▶</text>
</g>
<!-- i1&#45;&gt;b1 -->
<g id="edge8" class="edge">
<title>i1&#45;&gt;b1</title>
<path fill="none" stroke="#2196f3" stroke-dasharray="5,2" d="M137.69,-181.23C170.65,-200.31 255.09,-248.79 326.94,-287 333.36,-290.41 340.17,-293.94 346.88,-297.37"/>
<polygon fill="#2196f3" stroke="#2196f3" points="345.41,-300.55 355.92,-301.96 348.58,-294.31 345.41,-300.55"/>
<text text-anchor="middle" x="291.97" y="-280" font-family="Arial" font-size="10.00">left RF</text>
</g>
<!-- i3 -->
<g id="node3" class="node">
<title>i3</title>
<ellipse fill="white" stroke="black" cx="393.44" cy="-173" rx="16.94" ry="16.94"/>
<text text-anchor="middle" x="393.44" y="-169.9" font-family="Arial" font-size="12.00">○</text>
</g>
<!-- i2&#45;&gt;i3 -->
<!-- b2 -->
<g id="node7" class="node">
<title>b2</title>
<polygon fill="#ffb74d" stroke="black" points="598.94,-338 503.94,-338 503.94,-302 598.94,-302 598.94,-338"/>
<text text-anchor="middle" x="551.44" y="-323.4" font-family="Arial" font-size="12.00">Bipole 2</text>
<text text-anchor="middle" x="551.44" y="-310.4" font-family="Arial" font-size="12.00">◀━━○━━▶</text>
</g>
<!-- i2&#45;&gt;b2 -->
<g id="edge9" class="edge">
<title>i2&#45;&gt;b2</title>
<path fill="none" stroke="#2196f3" stroke-dasharray="5,2" d="M307.13,-181.22C315.98,-186.35 327.62,-193.08 337.94,-199 397.59,-233.22 466.83,-272.58 509.64,-296.87"/>
<polygon fill="#2196f3" stroke="#2196f3" points="507.94,-299.93 518.36,-301.82 511.39,-293.84 507.94,-299.93"/>
<text text-anchor="middle" x="393.44" y="-259" font-family="Arial" font-size="10.00">left RF</text>
</g>
<!-- i4 -->
<g id="node4" class="node">
<title>i4</title>
<ellipse fill="#4caf50" stroke="black" cx="551.44" cy="-173" rx="16.94" ry="16.94"/>
<text text-anchor="middle" x="551.44" y="-169.9" font-family="Arial" font-size="12.00">●</text>
</g>
<!-- i3&#45;&gt;i4 -->
<!-- b3 -->
<g id="node8" class="node">
<title>b3</title>
<polygon fill="#ff9800" stroke="black" points="765.94,-338 670.94,-338 670.94,-302 765.94,-302 765.94,-338"/>
<text text-anchor="middle" x="718.44" y="-323.4" font-family="Arial" font-size="12.00">Bipole 3</text>
<text text-anchor="middle" x="718.44" y="-310.4" font-family="Arial" font-size="12.00">◀━━○━━▶</text>
</g>
<!-- i3&#45;&gt;b3 -->
<g id="edge10" class="edge">
<title>i3&#45;&gt;b3</title>
<path fill="none" stroke="#2196f3" stroke-dasharray="5,2" d="M410.15,-176.56C445.2,-184.85 532,-207.23 598.94,-240 630.51,-255.45 663.42,-278.29 686.52,-295.61"/>
<polygon fill="#2196f3" stroke="#2196f3" points="684.48,-298.46 694.56,-301.72 688.71,-292.89 684.48,-298.46"/>
<text text-anchor="middle" x="551.44" y="-243" font-family="Arial" font-size="10.00">left RF</text>
</g>
<!-- gap -->
<g id="node14" class="node">
<title>gap</title>
<polygon fill="#ffccbc" stroke="black" points="764.44,-424 672.44,-424 672.44,-388 764.44,-388 764.44,-424"/>
<text text-anchor="middle" x="718.44" y="-409.4" font-family="Arial" font-size="12.00">Gap in Input</text>
<text text-anchor="middle" x="718.44" y="-396.4" font-family="Arial" font-size="12.00">(missing data)</text>
</g>
<!-- i3&#45;&gt;gap -->
<g id="edge19" class="edge">
<title>i3&#45;&gt;gap</title>
<path fill="none" stroke="#9e9e9e" stroke-dasharray="5,2" d="M409.68,-178.91C419.05,-182.85 431.11,-188.5 440.94,-195 472.19,-215.66 471.18,-232.82 503.94,-251 542.43,-272.36 569.46,-246.31 598.94,-279 628.31,-311.56 587.63,-343.39 616.94,-376 628.64,-389.02 645.73,-396.49 662.5,-400.75"/>
<polygon fill="#9e9e9e" stroke="#9e9e9e" points="661.78,-404.17 672.3,-402.9 663.28,-397.33 661.78,-404.17"/>
<text text-anchor="middle" x="551.44" y="-282" font-family="Arial" font-size="10.00">no input</text>
</g>
<!-- i5 -->
<g id="node5" class="node">
<title>i5</title>
<ellipse fill="white" stroke="black" cx="718.44" cy="-173" rx="16.94" ry="16.94"/>
<text text-anchor="middle" x="718.44" y="-169.9" font-family="Arial" font-size="12.00">○</text>
</g>
<!-- i4&#45;&gt;i5 -->
<!-- i4&#45;&gt;b3 -->
<g id="edge11" class="edge">
<title>i4&#45;&gt;b3</title>
<path fill="none" stroke="#f44336" stroke-dasharray="5,2" d="M568.73,-173.34C590.46,-174.63 628.97,-179.98 652.94,-201 662.75,-209.6 658.62,-216.33 664.44,-228 675.58,-250.33 689.76,-274.78 700.65,-292.85"/>
<polygon fill="#f44336" stroke="#f44336" points="697.83,-294.95 706.01,-301.68 703.81,-291.32 697.83,-294.95"/>
<text text-anchor="middle" x="634.94" y="-204" font-family="Arial" font-size="10.00">right RF</text>
</g>
<!-- b4 -->
<g id="node9" class="node">
<title>b4</title>
<polygon fill="#ffb74d" stroke="black" points="971.44,-338 876.44,-338 876.44,-302 971.44,-302 971.44,-338"/>
<text text-anchor="middle" x="923.94" y="-323.4" font-family="Arial" font-size="12.00">Bipole 4</text>
<text text-anchor="middle" x="923.94" y="-310.4" font-family="Arial" font-size="12.00">◀━━○━━▶</text>
</g>
<!-- i5&#45;&gt;b4 -->
<g id="edge12" class="edge">
<title>i5&#45;&gt;b4</title>
<path fill="none" stroke="#f44336" stroke-dasharray="5,2" d="M733.71,-181.17C755.94,-194.08 799.9,-220.38 834.94,-246 855.85,-261.29 878.17,-280.09 895.1,-294.92"/>
<polygon fill="#f44336" stroke="#f44336" points="893.14,-297.85 902.95,-301.84 897.77,-292.6 893.14,-297.85"/>
<text text-anchor="middle" x="809.44" y="-249" font-family="Arial" font-size="10.00">right RF</text>
</g>
<!-- b1&#45;&gt;b2 -->
<!-- b1&#45;&gt;b2 -->
<g id="edge21" class="edge">
<title>b1&#45;&gt;b2</title>
<path fill="none" stroke="#4caf50" d="M441.25,-320C457.67,-320 476.31,-320 493.47,-320"/>
<polygon fill="#4caf50" stroke="#4caf50" points="493.94,-323.5 503.94,-320 493.94,-316.5 493.94,-323.5"/>
<text text-anchor="middle" x="472.44" y="-323" font-family="Arial" font-size="10.00">excite</text>
</g>
<!-- b2&#45;&gt;b3 -->
<!-- b2&#45;&gt;b3 -->
<g id="edge22" class="edge">
<title>b2&#45;&gt;b3</title>
<path fill="none" stroke="#4caf50" d="M599.28,-320C618.35,-320 640.56,-320 660.55,-320"/>
<polygon fill="#4caf50" stroke="#4caf50" points="660.77,-323.5 670.77,-320 660.77,-316.5 660.77,-323.5"/>
<text text-anchor="middle" x="634.94" y="-323" font-family="Arial" font-size="10.00">excite</text>
</g>
<!-- b3&#45;&gt;b4 -->
<!-- and_gate -->
<g id="node12" class="node">
<title>and_gate</title>
<polygon fill="#64b5f6" stroke="black" points="923.94,-106 852.94,-72 923.94,-38 994.94,-72 923.94,-106"/>
<text text-anchor="middle" x="923.94" y="-75.4" font-family="Arial" font-size="12.00">AND Gate</text>
<text text-anchor="middle" x="923.94" y="-62.4" font-family="Arial" font-size="12.00">L ∧ R</text>
</g>
<!-- b3&#45;&gt;and_gate -->
<g id="edge16" class="edge">
<title>b3&#45;&gt;and_gate</title>
<path fill="none" stroke="#ff6f00" stroke-dasharray="1,5" d="M766.08,-302.67C789.1,-292.25 815.95,-277.08 834.94,-257 874.49,-215.2 899.2,-152.34 912.03,-111.74"/>
<polygon fill="#ff6f00" stroke="#ff6f00" points="915.45,-112.51 915.03,-101.92 908.76,-110.46 915.45,-112.51"/>
<text text-anchor="middle" x="809.44" y="-295" font-family="Arial" font-size="10.00">example</text>
</g>
<!-- completion -->
<g id="node15" class="node">
<title>completion</title>
<polygon fill="#81c784" stroke="black" points="981.94,-424 865.94,-424 865.94,-388 981.94,-388 981.94,-424"/>
<text text-anchor="middle" x="923.94" y="-409.4" font-family="Arial" font-size="12.00">Completion Signal</text>
<text text-anchor="middle" x="923.94" y="-396.4" font-family="Arial" font-size="12.00">(bipole fires)</text>
</g>
<!-- b3&#45;&gt;completion -->
<g id="edge20" class="edge">
<title>b3&#45;&gt;completion</title>
<path fill="none" stroke="#4caf50" stroke-width="2" d="M762.1,-338.03C793.85,-351.44 837.34,-369.82 871.09,-384.09"/>
<polygon fill="#4caf50" stroke="#4caf50" stroke-width="2" points="869.76,-387.33 880.34,-388 872.49,-380.88 869.76,-387.33"/>
<text text-anchor="middle" x="809.44" y="-371" font-family="Arial" font-size="10.00">bridges gap</text>
</g>
<!-- left_input -->
<g id="node10" class="node">
<title>left_input</title>
<polygon fill="#bbdefb" stroke="black" points="750.94,-106 685.94,-106 685.94,-70 750.94,-70 750.94,-106"/>
<text text-anchor="middle" x="718.44" y="-91.4" font-family="Arial" font-size="12.00">Left Input</text>
<text text-anchor="middle" x="718.44" y="-78.4" font-family="Arial" font-size="12.00">L</text>
</g>
<!-- left_input&#45;&gt;and_gate -->
<g id="edge13" class="edge">
<title>left_input&#45;&gt;and_gate</title>
<path fill="none" stroke="black" d="M751.24,-85.5C778.3,-83.37 818.16,-80.24 852.67,-77.53"/>
<polygon fill="black" stroke="black" points="853.02,-81.01 862.71,-76.74 852.47,-74.03 853.02,-81.01"/>
</g>
<!-- right_input -->
<g id="node11" class="node">
<title>right_input</title>
<polygon fill="#bbdefb" stroke="black" points="755.44,-52 681.44,-52 681.44,-16 755.44,-16 755.44,-52"/>
<text text-anchor="middle" x="718.44" y="-37.4" font-family="Arial" font-size="12.00">Right Input</text>
<text text-anchor="middle" x="718.44" y="-24.4" font-family="Arial" font-size="12.00">R</text>
</g>
<!-- right_input&#45;&gt;and_gate -->
<g id="edge14" class="edge">
<title>right_input&#45;&gt;and_gate</title>
<path fill="none" stroke="black" d="M755.82,-40.79C785.37,-46.31 827.68,-54.21 862.33,-60.68"/>
<polygon fill="black" stroke="black" points="861.88,-64.16 872.35,-62.55 863.16,-57.28 861.88,-64.16"/>
</g>
<!-- output -->
<g id="node13" class="node">
<title>output</title>
<ellipse fill="#2196f3" stroke="black" cx="1161.97" cy="-72" rx="62.87" ry="24.08"/>
<text text-anchor="middle" x="1161.97" y="-75.4" font-family="Arial" font-size="12.00" fill="white">Bipole Output</text>
<text text-anchor="middle" x="1161.97" y="-62.4" font-family="Arial" font-size="12.00" fill="white">B = L ∧ R</text>
</g>
<!-- and_gate&#45;&gt;output -->
<g id="edge15" class="edge">
<title>and_gate&#45;&gt;output</title>
<path fill="none" stroke="black" stroke-width="2" d="M995.12,-72C1024.53,-72 1058.72,-72 1088.39,-72"/>
<polygon fill="black" stroke="black" stroke-width="2" points="1088.68,-75.5 1098.68,-72 1088.68,-68.5 1088.68,-75.5"/>
<text text-anchor="middle" x="1037.44" y="-75" font-family="Arial" font-size="10.00">both active</text>
</g>
<!-- gap&#45;&gt;completion -->
<g id="edge17" class="edge">
<title>gap&#45;&gt;completion</title>
<path fill="none" stroke="#4caf50" stroke-width="2" d="M764.6,-406C791.31,-406 825.65,-406 855.52,-406"/>
<polygon fill="#4caf50" stroke="#4caf50" stroke-width="2" points="855.88,-409.5 865.88,-406 855.88,-402.5 855.88,-409.5"/>
<text text-anchor="middle" x="809.44" y="-409" font-family="Arial" font-size="10.00">long&#45;range</text>
</g>
<!-- percept -->
<g id="node16" class="node">
<title>percept</title>
<ellipse fill="#4caf50" stroke="black" cx="1161.97" cy="-412" rx="82.05" ry="24.08"/>
<text text-anchor="middle" x="1161.97" y="-415.4" font-family="Arial" font-size="12.00" fill="white">Perceived Contour</text>
<text text-anchor="middle" x="1161.97" y="-402.4" font-family="Arial" font-size="12.00" fill="white">(filled&#45;in)</text>
</g>
<!-- completion&#45;&gt;percept -->
<g id="edge18" class="edge">
<title>completion&#45;&gt;percept</title>
<path fill="none" stroke="black" d="M982.08,-407.45C1008.31,-408.12 1040.08,-408.93 1069.52,-409.68"/>
<polygon fill="black" stroke="black" points="1069.74,-413.18 1079.83,-409.94 1069.92,-406.18 1069.74,-413.18"/>
</g>
<!-- impl -->
<g id="node20" class="node">
<title>impl</title>
<polygon fill="#ffe082" stroke="black" points="1423.99,-430 1280.99,-430 1280.99,-426 1276.99,-426 1276.99,-422 1280.99,-422 1280.99,-402 1276.99,-402 1276.99,-398 1280.99,-398 1280.99,-394 1423.99,-394 1423.99,-430"/>
<polyline fill="none" stroke="black" points="1280.99,-426 1284.99,-426 1284.99,-422 1280.99,-422 "/>
<polyline fill="none" stroke="black" points="1280.99,-402 1284.99,-402 1284.99,-398 1280.99,-398 "/>
<text text-anchor="middle" x="1352.49" y="-415.4" font-family="Arial" font-size="12.00">BipoleCellNetwork.java</text>
<text text-anchor="middle" x="1352.49" y="-402.4" font-family="Arial" font-size="12.00">process()</text>
</g>
<!-- percept&#45;&gt;impl -->
<g id="edge23" class="edge">
<title>percept&#45;&gt;impl</title>
<path fill="none" stroke="#ff6f00" stroke-dasharray="1,5" d="M1244.01,-412C1252.83,-412 1261.81,-412 1270.63,-412"/>
<polygon fill="#ff6f00" stroke="#ff6f00" points="1270.9,-415.5 1280.9,-412 1270.9,-408.5 1270.9,-415.5"/>
</g>
<!-- h_excite -->
<g id="node17" class="node">
<title>h_excite</title>
<polygon fill="#c8e6c9" stroke="black" points="179,-410 66,-410 66,-374 179,-374 179,-410"/>
<text text-anchor="middle" x="122.5" y="-395.4" font-family="Arial" font-size="12.00">Excitation</text>
<text text-anchor="middle" x="122.5" y="-382.4" font-family="Arial" font-size="12.00">(same orientation)</text>
</g>
<!-- h_inhibit -->
<g id="node18" class="node">
<title>h_inhibit</title>
<polygon fill="#ffccbc" stroke="black" points="172,-356 73,-356 73,-320 172,-320 172,-356"/>
<text text-anchor="middle" x="122.5" y="-341.4" font-family="Arial" font-size="12.00">Inhibition</text>
<text text-anchor="middle" x="122.5" y="-328.4" font-family="Arial" font-size="12.00">(diff orientation)</text>
</g>
<!-- h_range -->
<g id="node19" class="node">
<title>h_range</title>
<polygon fill="#e1bee7" stroke="black" points="174.5,-302 70.5,-302 70.5,-266 174.5,-266 174.5,-302"/>
<text text-anchor="middle" x="122.5" y="-287.4" font-family="Arial" font-size="12.00">Range: 3&#45;7 cells</text>
<text text-anchor="middle" x="122.5" y="-274.4" font-family="Arial" font-size="12.00">(collinear)</text>
</g>
<!-- functions -->
<g id="node21" class="node">
<title>functions</title>
<polygon fill="#fff9c4" stroke="black" points="1619.99,-504 1460.99,-504 1460.99,-418 1625.99,-418 1625.99,-498 1619.99,-504"/>
<polyline fill="none" stroke="black" points="1619.99,-504 1619.99,-498 "/>
<polyline fill="none" stroke="black" points="1625.99,-498 1619.99,-498 "/>
<text text-anchor="middle" x="1543.49" y="-490.4" font-family="Arial" font-size="12.00">Functions:</text>
<text text-anchor="middle" x="1543.49" y="-477.4" font-family="Arial" font-size="12.00">• Contour completion</text>
<text text-anchor="middle" x="1543.49" y="-464.4" font-family="Arial" font-size="12.00">• Boundary grouping</text>
<text text-anchor="middle" x="1543.49" y="-451.4" font-family="Arial" font-size="12.00">• Illusory contours (Kanizsa)</text>
<text text-anchor="middle" x="1543.49" y="-438.4" font-family="Arial" font-size="12.00">• Object segmentation</text>
<text text-anchor="middle" x="1543.49" y="-425.4" font-family="Arial" font-size="12.00">• Figure&#45;ground separation</text>
</g>
<!-- impl&#45;&gt;functions -->
<g id="edge24" class="edge">
<title>impl&#45;&gt;functions</title>
<path fill="none" stroke="black" stroke-dasharray="1,5" d="M1423.06,-430.04C1432.2,-432.41 1441.68,-434.86 1451.11,-437.31"/>
<polygon fill="black" stroke="black" points="1450.35,-440.73 1460.91,-439.85 1452.11,-433.95 1450.35,-440.73"/>
</g>
<!-- params -->
<g id="node22" class="node">
<title>params</title>
<polygon fill="#e1f5fe" stroke="black" points="1610.49,-399.5 1470.49,-399.5 1470.49,-326.5 1616.49,-326.5 1616.49,-393.5 1610.49,-399.5"/>
<polyline fill="none" stroke="black" points="1610.49,-399.5 1610.49,-393.5 "/>
<polyline fill="none" stroke="black" points="1616.49,-393.5 1610.49,-393.5 "/>
<text text-anchor="middle" x="1543.49" y="-385.9" font-family="Arial" font-size="12.00">Parameters:</text>
<text text-anchor="middle" x="1543.49" y="-372.9" font-family="Arial" font-size="12.00">• RF width: 3&#45;5 positions</text>
<text text-anchor="middle" x="1543.49" y="-359.9" font-family="Arial" font-size="12.00">• AND threshold: 0.5</text>
<text text-anchor="middle" x="1543.49" y="-346.9" font-family="Arial" font-size="12.00">• Horizontal range: 5&#45;7</text>
<text text-anchor="middle" x="1543.49" y="-333.9" font-family="Arial" font-size="12.00">• Decay rate: 0.1</text>
</g>
<!-- impl&#45;&gt;params -->
<g id="edge25" class="edge">
<title>impl&#45;&gt;params</title>
<path fill="none" stroke="black" stroke-dasharray="1,5" d="M1423.06,-393.96C1435.19,-390.82 1447.9,-387.52 1460.33,-384.3"/>
<polygon fill="black" stroke="black" points="1461.41,-387.64 1470.21,-381.74 1459.66,-380.86 1461.41,-387.64"/>
</g>
</g>
</svg>
