<?xml version="1.0" encoding="UTF-8" standalone="no"?>
<!DOCTYPE svg PUBLIC "-//W3C//DTD SVG 1.1//EN"
 "http://www.w3.org/Graphics/SVG/1.1/DTD/svg11.dtd">
<!-- Generated by graphviz version 2.46.0 (20210118.1747)
 -->
<!-- Title: CorticalProcessingCycle Pages: 1 -->
<svg width="260pt" height="1115pt"
 viewBox="0.00 0.00 259.73 1115.45" xmlns="http://www.w3.org/2000/svg" xmlns:xlink="http://www.w3.org/1999/xlink">
<g id="graph0" class="graph" transform="scale(1 1) rotate(0) translate(4 1111.45)">
<title>CorticalProcessingCycle</title>
<polygon fill="white" stroke="transparent" points="-4,4 -4,-1111.45 255.73,-1111.45 255.73,4 -4,4"/>
<!-- input -->
<g id="node1" class="node">
<title>input</title>
<ellipse fill="#e3f2fd" stroke="black" stroke-width="3" cx="125.87" cy="-1058.66" rx="99.9" ry="48.58"/>
<text text-anchor="middle" x="125.87" y="-1074.76" font-family="Arial" font-size="18.00">Input Sequence</text>
<text text-anchor="middle" x="125.87" y="-1033.76" font-family="Arial" font-size="18.00">7 items</text>
</g>
<!-- phase1 -->
<g id="node2" class="node">
<title>phase1</title>
<path fill="#bbdefb" stroke="black" stroke-width="3" d="M203.87,-923.87C203.87,-923.87 47.87,-923.87 47.87,-923.87 41.87,-923.87 35.87,-917.87 35.87,-911.87 35.87,-911.87 35.87,-835.87 35.87,-835.87 35.87,-829.87 41.87,-823.87 47.87,-823.87 47.87,-823.87 203.87,-823.87 203.87,-823.87 209.87,-823.87 215.87,-829.87 215.87,-835.87 215.87,-835.87 215.87,-911.87 215.87,-911.87 215.87,-917.87 209.87,-923.87 203.87,-923.87"/>
<text text-anchor="middle" x="125.87" y="-907.07" font-family="Arial" font-size="16.00">PHASE 1</text>
<text text-anchor="middle" x="125.87" y="-870.07" font-family="Arial" font-size="16.00">Item Storage</text>
<text text-anchor="middle" x="125.87" y="-833.07" font-family="Arial" font-size="16.00">0&#45;100ms</text>
</g>
<!-- input&#45;&gt;phase1 -->
<g id="edge1" class="edge">
<title>input&#45;&gt;phase1</title>
<path fill="none" stroke="#1976d2" stroke-width="4" d="M125.87,-1009.62C125.87,-1009.62 125.87,-934.1 125.87,-934.1"/>
<polygon fill="#1976d2" stroke="#1976d2" stroke-width="4" points="129.37,-934.1 125.87,-924.1 122.37,-934.1 129.37,-934.1"/>
</g>
<!-- phase2 -->
<g id="node3" class="node">
<title>phase2</title>
<path fill="#a5d6a7" stroke="black" stroke-width="3" d="M203.87,-737.87C203.87,-737.87 47.87,-737.87 47.87,-737.87 41.87,-737.87 35.87,-731.87 35.87,-725.87 35.87,-725.87 35.87,-631.87 35.87,-631.87 35.87,-625.87 41.87,-619.87 47.87,-619.87 47.87,-619.87 203.87,-619.87 203.87,-619.87 209.87,-619.87 215.87,-625.87 215.87,-631.87 215.87,-631.87 215.87,-725.87 215.87,-725.87 215.87,-731.87 209.87,-737.87 203.87,-737.87"/>
<text text-anchor="middle" x="125.87" y="-721.07" font-family="Arial" font-size="16.00">PHASE 2</text>
<text text-anchor="middle" x="125.87" y="-684.07" font-family="Arial" font-size="16.00">Multi&#45;Scale Chunking</text>
<text text-anchor="middle" x="125.87" y="-666.07" font-family="Arial" font-size="16.00">[1&#45;3] + [4&#45;7]</text>
<text text-anchor="middle" x="125.87" y="-629.07" font-family="Arial" font-size="16.00">100&#45;500ms</text>
</g>
<!-- phase1&#45;&gt;phase2 -->
<g id="edge2" class="edge">
<title>phase1&#45;&gt;phase2</title>
<path fill="none" stroke="#388e3c" stroke-width="4" d="M125.87,-823.65C125.87,-823.65 125.87,-747.92 125.87,-747.92"/>
<polygon fill="#388e3c" stroke="#388e3c" stroke-width="4" points="129.37,-747.92 125.87,-737.92 122.37,-747.92 129.37,-747.92"/>
</g>
<!-- phase3 -->
<g id="node4" class="node">
<title>phase3</title>
<path fill="#fff9c4" stroke="black" stroke-width="3" d="M203.87,-533.87C203.87,-533.87 47.87,-533.87 47.87,-533.87 41.87,-533.87 35.87,-527.87 35.87,-521.87 35.87,-521.87 35.87,-427.87 35.87,-427.87 35.87,-421.87 41.87,-415.87 47.87,-415.87 47.87,-415.87 203.87,-415.87 203.87,-415.87 209.87,-415.87 215.87,-421.87 215.87,-427.87 215.87,-427.87 215.87,-521.87 215.87,-521.87 215.87,-527.87 209.87,-533.87 203.87,-533.87"/>
<text text-anchor="middle" x="125.87" y="-517.07" font-family="Arial" font-size="16.00">PHASE 3</text>
<text text-anchor="middle" x="125.87" y="-480.07" font-family="Arial" font-size="16.00">Laminar Processing</text>
<text text-anchor="middle" x="125.87" y="-462.07" font-family="Arial" font-size="16.00">6 layers</text>
<text text-anchor="middle" x="125.87" y="-425.07" font-family="Arial" font-size="16.00">500&#45;800ms</text>
</g>
<!-- phase2&#45;&gt;phase3 -->
<g id="edge3" class="edge">
<title>phase2&#45;&gt;phase3</title>
<path fill="none" stroke="#fbc02d" stroke-width="5" d="M125.87,-619.86C125.87,-619.86 125.87,-544.09 125.87,-544.09"/>
<polygon fill="#fbc02d" stroke="#fbc02d" stroke-width="5" points="130.24,-544.09 125.87,-534.09 121.49,-544.09 130.24,-544.09"/>
</g>
<!-- phase4 -->
<g id="node5" class="node">
<title>phase4</title>
<path fill="#e1bee7" stroke="black" stroke-width="3" d="M203.87,-329.87C203.87,-329.87 47.87,-329.87 47.87,-329.87 41.87,-329.87 35.87,-323.87 35.87,-317.87 35.87,-317.87 35.87,-223.87 35.87,-223.87 35.87,-217.87 41.87,-211.87 47.87,-211.87 47.87,-211.87 203.87,-211.87 203.87,-211.87 209.87,-211.87 215.87,-217.87 215.87,-223.87 215.87,-223.87 215.87,-317.87 215.87,-317.87 215.87,-323.87 209.87,-329.87 203.87,-329.87"/>
<text text-anchor="middle" x="125.87" y="-313.07" font-family="Arial" font-size="16.00">PHASE 4</text>
<text text-anchor="middle" x="125.87" y="-276.07" font-family="Arial" font-size="16.00">Category Learning</text>
<text text-anchor="middle" x="125.87" y="-258.07" font-family="Arial" font-size="16.00">2 categories</text>
<text text-anchor="middle" x="125.87" y="-221.07" font-family="Arial" font-size="16.00">800&#45;1200ms</text>
</g>
<!-- phase3&#45;&gt;phase4 -->
<g id="edge4" class="edge">
<title>phase3&#45;&gt;phase4</title>
<path fill="none" stroke="#7b1fa2" stroke-width="4" d="M125.87,-415.86C125.87,-415.86 125.87,-340.09 125.87,-340.09"/>
<polygon fill="#7b1fa2" stroke="#7b1fa2" stroke-width="4" points="129.37,-340.09 125.87,-330.09 122.37,-340.09 129.37,-340.09"/>
</g>
<!-- output -->
<g id="node6" class="node">
<title>output</title>
<ellipse fill="#e8f5e9" stroke="black" stroke-width="3" cx="125.87" cy="-62.93" rx="125.73" ry="62.87"/>
<text text-anchor="middle" x="125.87" y="-89.03" font-family="Arial" font-size="18.00">Learned</text>
<text text-anchor="middle" x="125.87" y="-69.03" font-family="Arial" font-size="18.00">Representation</text>
<text text-anchor="middle" x="125.87" y="-28.03" font-family="Arial" font-size="18.00">[Chunk A] [Chunk B]</text>
</g>
<!-- phase4&#45;&gt;output -->
<g id="edge5" class="edge">
<title>phase4&#45;&gt;output</title>
<path fill="none" stroke="#2e7d32" stroke-width="4" d="M125.87,-211.84C125.87,-211.84 125.87,-136.11 125.87,-136.11"/>
<polygon fill="#2e7d32" stroke="#2e7d32" stroke-width="4" points="129.37,-136.11 125.87,-126.11 122.37,-136.11 129.37,-136.11"/>
</g>
</g>
</svg>
