<?xml version="1.0" encoding="UTF-8" standalone="no"?>
<!DOCTYPE svg PUBLIC "-//W3C//DTD SVG 1.1//EN"
 "http://www.w3.org/Graphics/SVG/1.1/DTD/svg11.dtd">
<!-- Generated by graphviz version 2.46.0 (20210118.1747)
 -->
<!-- Title: CorticalUnified Pages: 1 -->
<svg width="265pt" height="788pt"
 viewBox="0.00 0.00 265.00 788.15" xmlns="http://www.w3.org/2000/svg" xmlns:xlink="http://www.w3.org/1999/xlink">
<g id="graph0" class="graph" transform="scale(1 1) rotate(0) translate(4 784.15)">
<title>CorticalUnified</title>
<polygon fill="white" stroke="transparent" points="-4,4 -4,-784.15 261,-784.15 261,4 -4,4"/>
<!-- input -->
<g id="node1" class="node">
<title>input</title>
<ellipse fill="#e3f2fd" stroke="black" stroke-width="3" cx="128.5" cy="-746.21" rx="67.76" ry="33.88"/>
<text text-anchor="middle" x="128.5" y="-751.81" font-family="Arial" font-size="18.00">Temporal</text>
<text text-anchor="middle" x="128.5" y="-731.81" font-family="Arial" font-size="18.00">Sequence</text>
</g>
<!-- temporal -->
<g id="node2" class="node">
<title>temporal</title>
<path fill="#bbdefb" stroke="black" stroke-width="3" d="M245,-611.27C245,-611.27 12,-611.27 12,-611.27 6,-611.27 0,-605.27 0,-599.27 0,-599.27 0,-542.27 0,-542.27 0,-536.27 6,-530.27 12,-530.27 12,-530.27 245,-530.27 245,-530.27 251,-530.27 257,-536.27 257,-542.27 257,-542.27 257,-599.27 257,-599.27 257,-605.27 251,-611.27 245,-611.27"/>
<text text-anchor="middle" x="128.5" y="-594.47" font-family="Arial" font-size="16.00">Temporal Processing</text>
<text text-anchor="middle" x="128.5" y="-557.47" font-family="Arial" font-size="16.00">Working Memory + Masking Field</text>
<text text-anchor="middle" x="128.5" y="-539.47" font-family="Arial" font-size="16.00">Multi&#45;scale chunking</text>
</g>
<!-- input&#45;&gt;temporal -->
<g id="edge1" class="edge">
<title>input&#45;&gt;temporal</title>
<path fill="none" stroke="#1976d2" stroke-width="4" d="M128.5,-711.96C128.5,-711.96 128.5,-621.39 128.5,-621.39"/>
<polygon fill="#1976d2" stroke="#1976d2" stroke-width="4" points="132,-621.39 128.5,-611.39 125,-621.39 132,-621.39"/>
<text text-anchor="middle" x="144" y="-658.07" font-family="Arial" font-size="14.00">store</text>
</g>
<!-- coordinator -->
<g id="node3" class="node">
<title>coordinator</title>
<path fill="#ffe082" stroke="black" stroke-width="4" d="M209.47,-397.98C209.47,-397.98 182.53,-421.56 182.53,-421.56 178.01,-425.51 167.5,-429.46 161.5,-429.46 161.5,-429.46 95.5,-429.46 95.5,-429.46 89.5,-429.46 78.99,-425.51 74.47,-421.56 74.47,-421.56 47.53,-397.98 47.53,-397.98 43.01,-394.03 43.01,-386.12 47.53,-382.17 47.53,-382.17 74.47,-358.59 74.47,-358.59 78.99,-354.64 89.5,-350.69 95.5,-350.69 95.5,-350.69 161.5,-350.69 161.5,-350.69 167.5,-350.69 178.01,-354.64 182.53,-358.59 182.53,-358.59 209.47,-382.17 209.47,-382.17 213.99,-386.12 213.99,-394.03 209.47,-397.98"/>
<text text-anchor="middle" x="128.5" y="-395.67" font-family="Arial" font-size="18.00">Multi&#45;Scale</text>
<text text-anchor="middle" x="128.5" y="-375.67" font-family="Arial" font-size="18.00">Coordinator</text>
</g>
<!-- temporal&#45;&gt;coordinator -->
<g id="edge2" class="edge">
<title>temporal&#45;&gt;coordinator</title>
<path fill="none" stroke="#388e3c" stroke-width="4" d="M128.5,-530.22C128.5,-530.22 128.5,-439.56 128.5,-439.56"/>
<polygon fill="#388e3c" stroke="#388e3c" stroke-width="4" points="132,-439.56 128.5,-429.56 125,-439.56 132,-439.56"/>
<text text-anchor="middle" x="153" y="-476.07" font-family="Arial" font-size="14.00">patterns</text>
</g>
<!-- laminar -->
<g id="node4" class="node">
<title>laminar</title>
<path fill="#fff9c4" stroke="black" stroke-width="3" d="M224.5,-249.88C224.5,-249.88 32.5,-249.88 32.5,-249.88 26.5,-249.88 20.5,-243.88 20.5,-237.88 20.5,-237.88 20.5,-180.88 20.5,-180.88 20.5,-174.88 26.5,-168.88 32.5,-168.88 32.5,-168.88 224.5,-168.88 224.5,-168.88 230.5,-168.88 236.5,-174.88 236.5,-180.88 236.5,-180.88 236.5,-237.88 236.5,-237.88 236.5,-243.88 230.5,-249.88 224.5,-249.88"/>
<text text-anchor="middle" x="128.5" y="-233.08" font-family="Arial" font-size="16.00">Laminar Circuit</text>
<text text-anchor="middle" x="128.5" y="-196.08" font-family="Arial" font-size="16.00">6 Layers (L1/L2/3/L4/L5/L6)</text>
<text text-anchor="middle" x="128.5" y="-178.08" font-family="Arial" font-size="16.00">Bottom&#45;up + Top&#45;down</text>
</g>
<!-- coordinator&#45;&gt;laminar -->
<g id="edge3" class="edge">
<title>coordinator&#45;&gt;laminar</title>
<path fill="none" stroke="#ff6f00" stroke-width="5" d="M128.5,-350.87C128.5,-350.87 128.5,-260.08 128.5,-260.08"/>
<polygon fill="#ff6f00" stroke="#ff6f00" stroke-width="5" points="132.88,-260.08 128.5,-250.08 124.13,-260.08 132.88,-260.08"/>
<text text-anchor="middle" x="150" y="-296.68" font-family="Arial" font-size="14.00">chunks</text>
</g>
<!-- output -->
<g id="node5" class="node">
<title>output</title>
<ellipse fill="#e8f5e9" stroke="black" stroke-width="3" cx="128.5" cy="-33.94" rx="72.25" ry="33.88"/>
<text text-anchor="middle" x="128.5" y="-39.54" font-family="Arial" font-size="18.00">Learned</text>
<text text-anchor="middle" x="128.5" y="-19.54" font-family="Arial" font-size="18.00">Categories</text>
</g>
<!-- laminar&#45;&gt;output -->
<g id="edge4" class="edge">
<title>laminar&#45;&gt;output</title>
<path fill="none" stroke="#2e7d32" stroke-width="4" d="M128.5,-168.69C128.5,-168.69 128.5,-77.92 128.5,-77.92"/>
<polygon fill="#2e7d32" stroke="#2e7d32" stroke-width="4" points="132,-77.92 128.5,-67.92 125,-77.92 132,-77.92"/>
<text text-anchor="middle" x="160" y="-114.68" font-family="Arial" font-size="14.00">categories</text>
</g>
</g>
</svg>
