<?xml version="1.0" encoding="UTF-8" standalone="no"?>
<!DOCTYPE svg PUBLIC "-//W3C//DTD SVG 1.1//EN"
 "http://www.w3.org/Graphics/SVG/1.1/DTD/svg11.dtd">
<!-- Generated by graphviz version 2.46.0 (20210118.1747)
 -->
<!-- Title: LaminarBatchProcessing Pages: 1 -->
<svg width="287pt" height="953pt"
 viewBox="0.00 0.00 287.24 952.71" xmlns="http://www.w3.org/2000/svg" xmlns:xlink="http://www.w3.org/1999/xlink">
<g id="graph0" class="graph" transform="scale(1 1) rotate(0) translate(4 948.71)">
<title>LaminarBatchProcessing</title>
<polygon fill="white" stroke="transparent" points="-4,4 -4,-948.71 283.24,-948.71 283.24,4 -4,4"/>
<!-- input -->
<g id="node1" class="node">
<title>input</title>
<ellipse fill="#e3f2fd" stroke="black" stroke-width="3" cx="139.62" cy="-895.92" rx="88.28" ry="48.58"/>
<text text-anchor="middle" x="139.62" y="-912.02" font-family="Arial" font-size="18.00">Pattern Batch</text>
<text text-anchor="middle" x="139.62" y="-871.02" font-family="Arial" font-size="18.00">32 patterns</text>
</g>
<!-- transform -->
<g id="node2" class="node">
<title>transform</title>
<path fill="#ffe082" stroke="black" stroke-width="3" d="M236.71,-689.41C236.71,-689.41 199.31,-736.84 199.31,-736.84 195.6,-741.55 185.88,-746.26 179.88,-746.26 179.88,-746.26 99.36,-746.26 99.36,-746.26 93.36,-746.26 83.64,-741.55 79.93,-736.84 79.93,-736.84 42.53,-689.41 42.53,-689.41 38.81,-684.7 38.81,-675.28 42.53,-670.57 42.53,-670.57 79.93,-623.14 79.93,-623.14 83.64,-618.43 93.36,-613.72 99.36,-613.72 99.36,-613.72 179.88,-613.72 179.88,-613.72 185.88,-613.72 195.6,-618.43 199.31,-623.14 199.31,-623.14 236.71,-670.57 236.71,-670.57 240.43,-675.28 240.43,-684.7 236.71,-689.41"/>
<text text-anchor="middle" x="139.62" y="-703.69" font-family="Arial" font-size="16.00">Data Layout</text>
<text text-anchor="middle" x="139.62" y="-685.69" font-family="Arial" font-size="16.00">Transform</text>
<text text-anchor="middle" x="139.62" y="-648.69" font-family="Arial" font-size="16.00">Row → Column</text>
</g>
<!-- input&#45;&gt;transform -->
<g id="edge1" class="edge">
<title>input&#45;&gt;transform</title>
<path fill="none" stroke="#1976d2" stroke-width="4" d="M139.62,-846.92C139.62,-846.92 139.62,-756.39 139.62,-756.39"/>
<polygon fill="#1976d2" stroke="#1976d2" stroke-width="4" points="143.12,-756.39 139.62,-746.39 136.12,-756.39 143.12,-756.39"/>
<text text-anchor="middle" x="169.62" y="-792.93" font-family="Arial" font-size="14.00">transpose</text>
</g>
<!-- simd -->
<g id="node3" class="node">
<title>simd</title>
<path fill="#fff9c4" stroke="black" stroke-width="3" d="M235.62,-512.85C235.62,-512.85 43.62,-512.85 43.62,-512.85 37.62,-512.85 31.62,-506.85 31.62,-500.85 31.62,-500.85 31.62,-443.85 31.62,-443.85 31.62,-437.85 37.62,-431.85 43.62,-431.85 43.62,-431.85 235.62,-431.85 235.62,-431.85 241.62,-431.85 247.62,-437.85 247.62,-443.85 247.62,-443.85 247.62,-500.85 247.62,-500.85 247.62,-506.85 241.62,-512.85 235.62,-512.85"/>
<text text-anchor="middle" x="139.62" y="-496.05" font-family="Arial" font-size="16.00">SIMD Processing</text>
<text text-anchor="middle" x="139.62" y="-459.05" font-family="Arial" font-size="16.00">Layers 4, 5, 6 vectorized</text>
<text text-anchor="middle" x="139.62" y="-441.05" font-family="Arial" font-size="16.00">32 patterns in parallel</text>
</g>
<!-- transform&#45;&gt;simd -->
<g id="edge2" class="edge">
<title>transform&#45;&gt;simd</title>
<path fill="none" stroke="#fbc02d" stroke-width="4" d="M139.62,-613.72C139.62,-613.72 139.62,-522.96 139.62,-522.96"/>
<polygon fill="#fbc02d" stroke="#fbc02d" stroke-width="4" points="143.12,-522.96 139.62,-512.96 136.12,-522.96 143.12,-522.96"/>
<text text-anchor="middle" x="175.12" y="-559.65" font-family="Arial" font-size="14.00">SIMD lanes</text>
</g>
<!-- stateful -->
<g id="node4" class="node">
<title>stateful</title>
<path fill="#ffcc80" stroke="black" stroke-width="3" d="M270.66,-272.98C270.66,-272.98 218.2,-322.73 218.2,-322.73 213.85,-326.86 203.49,-330.99 197.49,-330.99 197.49,-330.99 81.75,-330.99 81.75,-330.99 75.75,-330.99 65.4,-326.86 61.04,-322.73 61.04,-322.73 8.59,-272.98 8.59,-272.98 4.23,-268.85 4.23,-260.59 8.59,-256.46 8.59,-256.46 61.04,-206.7 61.04,-206.7 65.4,-202.57 75.75,-198.44 81.75,-198.44 81.75,-198.44 197.49,-198.44 197.49,-198.44 203.49,-198.44 213.85,-202.57 218.2,-206.7 218.2,-206.7 270.66,-256.46 270.66,-256.46 275.01,-260.59 275.01,-268.85 270.66,-272.98"/>
<text text-anchor="middle" x="139.62" y="-288.42" font-family="Arial" font-size="16.00">Stateful Processor</text>
<text text-anchor="middle" x="139.62" y="-251.42" font-family="Arial" font-size="16.00">Sequential semantics</text>
<text text-anchor="middle" x="139.62" y="-233.42" font-family="Arial" font-size="16.00">Pattern N+1 sees N</text>
</g>
<!-- simd&#45;&gt;stateful -->
<g id="edge3" class="edge">
<title>simd&#45;&gt;stateful</title>
<path fill="none" stroke="#ff6f00" stroke-width="4" d="M139.62,-431.83C139.62,-431.83 139.62,-340.88 139.62,-340.88"/>
<polygon fill="#ff6f00" stroke="#ff6f00" stroke-width="4" points="143.12,-340.88 139.62,-330.88 136.12,-340.88 143.12,-340.88"/>
<text text-anchor="middle" x="163.62" y="-377.65" font-family="Arial" font-size="14.00">process</text>
</g>
<!-- output -->
<g id="node5" class="node">
<title>output</title>
<ellipse fill="#e8f5e9" stroke="black" stroke-width="3" cx="139.62" cy="-48.79" rx="98.99" ry="48.58"/>
<text text-anchor="middle" x="139.62" y="-64.89" font-family="Arial" font-size="18.00">Category Batch</text>
<text text-anchor="middle" x="139.62" y="-23.89" font-family="Arial" font-size="18.00">learned</text>
</g>
<!-- stateful&#45;&gt;output -->
<g id="edge4" class="edge">
<title>stateful&#45;&gt;output</title>
<path fill="none" stroke="#2e7d32" stroke-width="4" d="M139.62,-198.46C139.62,-198.46 139.62,-107.77 139.62,-107.77"/>
<polygon fill="#2e7d32" stroke="#2e7d32" stroke-width="4" points="143.12,-107.77 139.62,-97.77 136.12,-107.77 143.12,-107.77"/>
<text text-anchor="middle" x="171.12" y="-144.38" font-family="Arial" font-size="14.00">categories</text>
</g>
</g>
</svg>
