<?xml version="1.0" encoding="UTF-8" standalone="no"?>
<!DOCTYPE svg PUBLIC "-//W3C//DTD SVG 1.1//EN"
 "http://www.w3.org/Graphics/SVG/1.1/DTD/svg11.dtd">
<!-- Generated by graphviz version 2.46.0 (20210118.1747)
 -->
<!-- Title: LaminarARTMatching Pages: 1 -->
<svg width="440pt" height="687pt"
 viewBox="0.00 0.00 440.00 686.88" xmlns="http://www.w3.org/2000/svg" xmlns:xlink="http://www.w3.org/1999/xlink">
<g id="graph0" class="graph" transform="scale(1 1) rotate(0) translate(4 682.88)">
<title>LaminarARTMatching</title>
<polygon fill="white" stroke="transparent" points="-4,4 -4,-682.88 436,-682.88 436,4 -4,4"/>
<!-- bottom_up -->
<g id="node1" class="node">
<title>bottom_up</title>
<ellipse fill="#fff9c4" stroke="black" stroke-width="3" cx="105" cy="-644.94" rx="72.25" ry="33.88"/>
<text text-anchor="middle" x="105" y="-650.54" font-family="Arial" font-size="18.00">Bottom&#45;Up</text>
<text text-anchor="middle" x="105" y="-630.54" font-family="Arial" font-size="18.00">Input</text>
</g>
<!-- match -->
<g id="node3" class="node">
<title>match</title>
<path fill="#fff176" stroke="black" stroke-width="3" d="M312,-510C312,-510 120,-510 120,-510 114,-510 108,-504 108,-498 108,-498 108,-459 108,-459 108,-453 114,-447 120,-447 120,-447 312,-447 312,-447 318,-447 324,-453 324,-459 324,-459 324,-498 324,-498 324,-504 318,-510 312,-510"/>
<text text-anchor="middle" x="216" y="-493.2" font-family="Arial" font-size="16.00">Match Computation</text>
<text text-anchor="middle" x="216" y="-456.2" font-family="Arial" font-size="16.00">M = |I ∩ E| / |I|</text>
</g>
<!-- bottom_up&#45;&gt;match -->
<g id="edge1" class="edge">
<title>bottom_up&#45;&gt;match</title>
<path fill="none" stroke="#fbc02d" stroke-width="4" d="M142.56,-615.95C142.56,-615.95 142.56,-520.28 142.56,-520.28"/>
<polygon fill="#fbc02d" stroke="#fbc02d" stroke-width="4" points="146.06,-520.28 142.56,-510.28 139.06,-520.28 146.06,-520.28"/>
<text text-anchor="middle" x="114.5" y="-556.8" font-family="Arial" font-size="14.00"> &#160;I &#160;</text>
</g>
<!-- top_down -->
<g id="node2" class="node">
<title>top_down</title>
<ellipse fill="#e1bee7" stroke="black" stroke-width="3" cx="327" cy="-644.94" rx="77.56" ry="33.88"/>
<text text-anchor="middle" x="327" y="-650.54" font-family="Arial" font-size="18.00">Top&#45;Down</text>
<text text-anchor="middle" x="327" y="-630.54" font-family="Arial" font-size="18.00">Expectation</text>
</g>
<!-- top_down&#45;&gt;match -->
<g id="edge2" class="edge">
<title>top_down&#45;&gt;match</title>
<path fill="none" stroke="#9c27b0" stroke-width="4" d="M286.61,-615.57C286.61,-615.57 286.61,-520.13 286.61,-520.13"/>
<polygon fill="#9c27b0" stroke="#9c27b0" stroke-width="4" points="290.11,-520.13 286.61,-510.13 283.11,-520.13 290.11,-520.13"/>
<text text-anchor="middle" x="339.5" y="-556.8" font-family="Arial" font-size="14.00"> &#160;E &#160;</text>
</g>
<!-- vigilance -->
<g id="node4" class="node">
<title>vigilance</title>
<path fill="#ffe082" stroke="black" stroke-width="4" d="M207.56,-351.47C207.56,-351.47 136.44,-279.53 136.44,-279.53 132.22,-275.27 132.22,-266.73 136.44,-262.47 136.44,-262.47 207.56,-190.53 207.56,-190.53 211.78,-186.27 220.22,-186.27 224.44,-190.53 224.44,-190.53 295.56,-262.47 295.56,-262.47 299.78,-266.73 299.78,-275.27 295.56,-279.53 295.56,-279.53 224.44,-351.47 224.44,-351.47 220.22,-355.73 211.78,-355.73 207.56,-351.47"/>
<text text-anchor="middle" x="216" y="-297.1" font-family="Arial" font-size="18.00">Vigilance</text>
<text text-anchor="middle" x="216" y="-277.1" font-family="Arial" font-size="18.00">Test</text>
<text text-anchor="middle" x="216" y="-236.1" font-family="Arial" font-size="18.00">M ≥ ρ?</text>
</g>
<!-- match&#45;&gt;vigilance -->
<g id="edge3" class="edge">
<title>match&#45;&gt;vigilance</title>
<path fill="none" stroke="black" stroke-width="4" d="M216,-446.99C216,-446.99 216,-370.33 216,-370.33"/>
<polygon fill="black" stroke="black" stroke-width="4" points="219.5,-370.33 216,-360.33 212.5,-370.33 219.5,-370.33"/>
</g>
<!-- resonance -->
<g id="node5" class="node">
<title>resonance</title>
<path fill="#4caf50" stroke="black" stroke-width="4" d="M168,-81C168,-81 12,-81 12,-81 6,-81 0,-75 0,-69 0,-69 0,-12 0,-12 0,-6 6,0 12,0 12,0 168,0 168,0 174,0 180,-6 180,-12 180,-12 180,-69 180,-69 180,-75 174,-81 168,-81"/>
<text text-anchor="middle" x="90" y="-64.2" font-family="Arial" font-size="16.00" fill="white">RESONANCE</text>
<text text-anchor="middle" x="90" y="-27.2" font-family="Arial" font-size="16.00" fill="white">✓ Learn Category</text>
<text text-anchor="middle" x="90" y="-9.2" font-family="Arial" font-size="16.00" fill="white">Driving gates</text>
</g>
<!-- vigilance&#45;&gt;resonance -->
<g id="edge4" class="edge">
<title>vigilance&#45;&gt;resonance</title>
<path fill="none" stroke="#4caf50" stroke-width="4" d="M154,-244.56C154,-244.56 154,-91.34 154,-91.34"/>
<polygon fill="#4caf50" stroke="#4caf50" stroke-width="4" points="157.5,-91.34 154,-81.34 150.5,-91.34 157.5,-91.34"/>
<text text-anchor="middle" x="116.5" y="-127.8" font-family="Arial" font-size="14.00"> &#160;match &#160;</text>
</g>
<!-- reset -->
<g id="node6" class="node">
<title>reset</title>
<path fill="#f44336" stroke="black" stroke-width="4" d="M420,-81C420,-81 264,-81 264,-81 258,-81 252,-75 252,-69 252,-69 252,-12 252,-12 252,-6 258,0 264,0 264,0 420,0 420,0 426,0 432,-6 432,-12 432,-12 432,-69 432,-69 432,-75 426,-81 420,-81"/>
<text text-anchor="middle" x="342" y="-64.2" font-family="Arial" font-size="16.00" fill="white">MISMATCH</text>
<text text-anchor="middle" x="342" y="-27.2" font-family="Arial" font-size="16.00" fill="white">✗ Search New</text>
<text text-anchor="middle" x="342" y="-9.2" font-family="Arial" font-size="16.00" fill="white">Modulatory gates</text>
</g>
<!-- vigilance&#45;&gt;reset -->
<g id="edge5" class="edge">
<title>vigilance&#45;&gt;reset</title>
<path fill="none" stroke="#f44336" stroke-width="4" d="M278,-244.56C278,-244.56 278,-91.34 278,-91.34"/>
<polygon fill="#f44336" stroke="#f44336" stroke-width="4" points="281.5,-91.34 278,-81.34 274.5,-91.34 281.5,-91.34"/>
<text text-anchor="middle" x="379.5" y="-127.8" font-family="Arial" font-size="14.00"> &#160;mismatch &#160;</text>
</g>
</g>
</svg>
