<?xml version="1.0" encoding="UTF-8" standalone="no"?>
<!DOCTYPE svg PUBLIC "-//W3C//DTD SVG 1.1//EN"
 "http://www.w3.org/Graphics/SVG/1.1/DTD/svg11.dtd">
<!-- Generated by graphviz version 2.46.0 (20210118.1747)
 -->
<!-- Title: LaminarPerformance Pages: 1 -->
<svg width="1630pt" height="432pt"
 viewBox="0.00 0.00 1630.00 432.00" xmlns="http://www.w3.org/2000/svg" xmlns:xlink="http://www.w3.org/1999/xlink">
<g id="graph0" class="graph" transform="scale(1 1) rotate(0) translate(4 428)">
<title>LaminarPerformance</title>
<polygon fill="white" stroke="transparent" points="-4,4 -4,-428 1626,-428 1626,4 -4,4"/>
<text text-anchor="middle" x="811" y="-407.2" font-family="Arial Bold" font-size="16.00">Laminar Circuit Performance Benchmarks</text>
<text text-anchor="middle" x="811" y="-389.2" font-family="Arial Bold" font-size="16.00">Batch Processing with SIMD Optimization</text>
<g id="clust1" class="cluster">
<title>cluster_single</title>
<polygon fill="#fff9c4" stroke="#fff9c4" points="541.5,-8 541.5,-98 1072.54,-98 1072.54,-8 541.5,-8"/>
<text text-anchor="middle" x="807.02" y="-81.2" font-family="Arial Bold" font-size="16.00">Single Pattern Processing</text>
</g>
<g id="clust2" class="cluster">
<title>cluster_batch</title>
<polygon fill="#c8e6c9" stroke="#c8e6c9" points="521,-184 521,-274 1077.49,-274 1077.49,-184 521,-184"/>
<text text-anchor="middle" x="799.24" y="-257.2" font-family="Arial Bold" font-size="16.00">Batch Processing (32 patterns)</text>
</g>
<g id="clust3" class="cluster">
<title>cluster_layers</title>
<polygon fill="#e3f2fd" stroke="#e3f2fd" points="689,-282 689,-372 1614,-372 1614,-282 689,-282"/>
<text text-anchor="middle" x="1151.5" y="-355.2" font-family="Arial Bold" font-size="16.00">Layer&#45;wise Performance (μs/pattern in batch)</text>
</g>
<g id="clust4" class="cluster">
<title>cluster_layout</title>
<polygon fill="#f3e5f5" stroke="#f3e5f5" points="8,-174 8,-284 500,-284 500,-174 8,-174"/>
<text text-anchor="middle" x="254" y="-267.2" font-family="Arial Bold" font-size="16.00">Data Layout Optimization</text>
</g>
<!-- single_time -->
<g id="node1" class="node">
<title>single_time</title>
<polygon fill="#ffe082" stroke="black" points="787,-62 681,-62 681,-26 787,-26 787,-62"/>
<text text-anchor="middle" x="734" y="-47.4" font-family="Arial" font-size="12.00">Processing Time</text>
<text text-anchor="middle" x="734" y="-34.4" font-family="Arial" font-size="12.00">1239 μs/pattern</text>
</g>
<!-- single_throughput -->
<g id="node3" class="node">
<title>single_throughput</title>
<ellipse fill="#ffb300" stroke="black" cx="991" cy="-40" rx="73.58" ry="24.08"/>
<text text-anchor="middle" x="991" y="-43.4" font-family="Arial" font-size="12.00">Throughput</text>
<text text-anchor="middle" x="991" y="-30.4" font-family="Arial" font-size="12.00">807 patterns/sec</text>
</g>
<!-- single_time&#45;&gt;single_throughput -->
<g id="edge2" class="edge">
<title>single_time&#45;&gt;single_throughput</title>
<path fill="none" stroke="black" stroke-dasharray="5,2" d="M787.22,-43.18C821.67,-42.64 867.54,-41.92 906.94,-41.3"/>
<polygon fill="black" stroke="black" points="907.13,-44.8 917.07,-41.14 907.02,-37.8 907.13,-44.8"/>
</g>
<!-- speedup -->
<g id="node7" class="node">
<title>speedup</title>
<polygon fill="#a5d6a7" stroke="black" stroke-width="2" points="991,-174 871,-140 991,-106 1111,-140 991,-174"/>
<text text-anchor="middle" x="991" y="-143.4" font-family="Arial" font-size="12.00">Speedup: 1.30x</text>
<text text-anchor="middle" x="991" y="-130.4" font-family="Arial" font-size="12.00">(23% improvement)</text>
</g>
<!-- single_time&#45;&gt;speedup -->
<g id="edge5" class="edge">
<title>single_time&#45;&gt;speedup</title>
<path fill="none" stroke="#4caf50" d="M774.77,-62.13C801.68,-74.11 838.16,-89.78 871,-102 887.4,-108.1 905.28,-114.13 922.08,-119.52"/>
<polygon fill="#4caf50" stroke="#4caf50" points="921.23,-122.93 931.82,-122.62 923.35,-116.26 921.23,-122.93"/>
<text text-anchor="middle" x="829" y="-98" font-family="Arial" font-size="10.00">vs</text>
</g>
<!-- single_layers -->
<g id="node2" class="node">
<title>single_layers</title>
<polygon fill="#fff59d" stroke="black" points="623.5,-62 549.5,-62 549.5,-26 623.5,-26 623.5,-62"/>
<text text-anchor="middle" x="586.5" y="-47.4" font-family="Arial" font-size="12.00">6 Layers</text>
<text text-anchor="middle" x="586.5" y="-34.4" font-family="Arial" font-size="12.00">Sequential</text>
</g>
<!-- single_layers&#45;&gt;single_time -->
<g id="edge1" class="edge">
<title>single_layers&#45;&gt;single_time</title>
<path fill="none" stroke="black" d="M623.84,-44C638,-44 654.63,-44 670.58,-44"/>
<polygon fill="black" stroke="black" points="670.94,-47.5 680.94,-44 670.94,-40.5 670.94,-47.5"/>
</g>
<!-- batch_time -->
<g id="node4" class="node">
<title>batch_time</title>
<polygon fill="#81c784" stroke="black" points="787,-234 681,-234 681,-198 787,-198 787,-234"/>
<text text-anchor="middle" x="734" y="-219.4" font-family="Arial" font-size="12.00">Processing Time</text>
<text text-anchor="middle" x="734" y="-206.4" font-family="Arial" font-size="12.00">953 μs/pattern</text>
</g>
<!-- batch_throughput -->
<g id="node6" class="node">
<title>batch_throughput</title>
<ellipse fill="#4caf50" stroke="black" cx="991" cy="-216" rx="78.48" ry="24.08"/>
<text text-anchor="middle" x="991" y="-219.4" font-family="Arial" font-size="12.00" fill="white">Throughput</text>
<text text-anchor="middle" x="991" y="-206.4" font-family="Arial" font-size="12.00" fill="white">1050 patterns/sec</text>
</g>
<!-- batch_time&#45;&gt;batch_throughput -->
<g id="edge4" class="edge">
<title>batch_time&#45;&gt;batch_throughput</title>
<path fill="none" stroke="black" stroke-dasharray="5,2" d="M787.22,-216C820.26,-216 863.8,-216 902.07,-216"/>
<polygon fill="black" stroke="black" points="902.19,-219.5 912.19,-216 902.19,-212.5 902.19,-219.5"/>
</g>
<!-- batch_time&#45;&gt;speedup -->
<g id="edge6" class="edge">
<title>batch_time&#45;&gt;speedup</title>
<path fill="none" stroke="#4caf50" stroke-width="2" d="M787.22,-200.44C826.15,-188.83 879.67,-172.88 921.95,-160.28"/>
<polygon fill="#4caf50" stroke="#4caf50" stroke-width="2" points="923.03,-163.61 931.62,-157.4 921.03,-156.9 923.03,-163.61"/>
<text text-anchor="middle" x="829" y="-196" font-family="Arial" font-size="10.00">optimized</text>
</g>
<!-- l23_perf -->
<g id="node9" class="node">
<title>l23_perf</title>
<polygon fill="#ffb74d" stroke="black" points="1026.5,-337.5 955.5,-337.5 955.5,-290.5 1026.5,-290.5 1026.5,-337.5"/>
<text text-anchor="middle" x="991" y="-323.9" font-family="Arial" font-size="12.00">Layer 2/3</text>
<text text-anchor="middle" x="991" y="-310.9" font-family="Arial" font-size="12.00">280 μs</text>
<text text-anchor="middle" x="991" y="-297.9" font-family="Arial" font-size="12.00">(grouping)</text>
</g>
<!-- batch_time&#45;&gt;l23_perf -->
<g id="edge11" class="edge">
<title>batch_time&#45;&gt;l23_perf</title>
<path fill="none" stroke="black" stroke-dasharray="1,5" d="M771.09,-234.06C798.18,-247.22 836.4,-264.95 871,-278 895.36,-287.19 923.19,-295.72 945.81,-302.16"/>
<polygon fill="black" stroke="black" points="944.91,-305.54 955.48,-304.88 946.8,-298.8 944.91,-305.54"/>
<text text-anchor="middle" x="829" y="-273" font-family="Arial" font-size="10.00">breakdown</text>
</g>
<!-- batch_simd -->
<g id="node5" class="node">
<title>batch_simd</title>
<polygon fill="#66bb6a" stroke="black" points="644,-234 529,-234 529,-198 644,-198 644,-234"/>
<text text-anchor="middle" x="586.5" y="-219.4" font-family="Arial" font-size="12.00">SIMD Vectorized</text>
<text text-anchor="middle" x="586.5" y="-206.4" font-family="Arial" font-size="12.00">Transposed layout</text>
</g>
<!-- batch_simd&#45;&gt;batch_time -->
<g id="edge3" class="edge">
<title>batch_simd&#45;&gt;batch_time</title>
<path fill="none" stroke="black" d="M644.17,-216C652.89,-216 661.93,-216 670.76,-216"/>
<polygon fill="black" stroke="black" points="671,-219.5 681,-216 671,-212.5 671,-219.5"/>
</g>
<!-- impl -->
<g id="node16" class="node">
<title>impl</title>
<polygon fill="#ffe082" stroke="black" points="1315,-234 1148,-234 1148,-230 1144,-230 1144,-226 1148,-226 1148,-206 1144,-206 1144,-202 1148,-202 1148,-198 1315,-198 1315,-234"/>
<polyline fill="none" stroke="black" points="1148,-230 1152,-230 1152,-226 1148,-226 "/>
<polyline fill="none" stroke="black" points="1148,-206 1152,-206 1152,-202 1148,-202 "/>
<text text-anchor="middle" x="1231.5" y="-219.4" font-family="Arial" font-size="12.00">StatefulBatchProcessor.java</text>
<text text-anchor="middle" x="1231.5" y="-206.4" font-family="Arial" font-size="12.00">processBatch()</text>
</g>
<!-- batch_throughput&#45;&gt;impl -->
<g id="edge15" class="edge">
<title>batch_throughput&#45;&gt;impl</title>
<path fill="none" stroke="#ff6f00" stroke-dasharray="1,5" d="M1069.76,-216C1091.45,-216 1115.24,-216 1137.7,-216"/>
<polygon fill="#ff6f00" stroke="#ff6f00" points="1137.92,-219.5 1147.92,-216 1137.92,-212.5 1137.92,-219.5"/>
</g>
<!-- future -->
<g id="node19" class="node">
<title>future</title>
<polygon fill="#ffe0b2" stroke="black" points="1303,-170 1154,-170 1154,-110 1309,-110 1309,-164 1303,-170"/>
<polyline fill="none" stroke="black" points="1303,-170 1303,-164 "/>
<polyline fill="none" stroke="black" points="1309,-164 1303,-164 "/>
<text text-anchor="middle" x="1231.5" y="-156.4" font-family="Arial" font-size="12.00">Future Optimizations:</text>
<text text-anchor="middle" x="1231.5" y="-143.4" font-family="Arial" font-size="12.00">• AVX&#45;512: 8x lanes (2.5x)</text>
<text text-anchor="middle" x="1231.5" y="-130.4" font-family="Arial" font-size="12.00">• GPU: 100x potential</text>
<text text-anchor="middle" x="1231.5" y="-117.4" font-family="Arial" font-size="12.00">• Batch size tuning</text>
</g>
<!-- speedup&#45;&gt;future -->
<g id="edge18" class="edge">
<title>speedup&#45;&gt;future</title>
<path fill="none" stroke="#9e9e9e" stroke-dasharray="5,2" d="M1111.25,-140C1122.19,-140 1133.14,-140 1143.71,-140"/>
<polygon fill="#9e9e9e" stroke="#9e9e9e" points="1143.72,-143.5 1153.72,-140 1143.72,-136.5 1143.72,-143.5"/>
</g>
<!-- l1_perf -->
<g id="node8" class="node">
<title>l1_perf</title>
<polygon fill="#ce93d8" stroke="black" points="771,-337.5 697,-337.5 697,-290.5 771,-290.5 771,-337.5"/>
<text text-anchor="middle" x="734" y="-323.9" font-family="Arial" font-size="12.00">Layer 1</text>
<text text-anchor="middle" x="734" y="-310.9" font-family="Arial" font-size="12.00">95 μs</text>
<text text-anchor="middle" x="734" y="-297.9" font-family="Arial" font-size="12.00">(top&#45;down)</text>
</g>
<!-- l1_perf&#45;&gt;l23_perf -->
<!-- l4_perf -->
<g id="node10" class="node">
<title>l4_perf</title>
<polygon fill="#fff176" stroke="black" points="1268,-337.5 1195,-337.5 1195,-290.5 1268,-290.5 1268,-337.5"/>
<text text-anchor="middle" x="1231.5" y="-323.9" font-family="Arial" font-size="12.00">Layer 4</text>
<text text-anchor="middle" x="1231.5" y="-310.9" font-family="Arial" font-size="12.00">320 μs</text>
<text text-anchor="middle" x="1231.5" y="-297.9" font-family="Arial" font-size="12.00">(matching)</text>
</g>
<!-- l23_perf&#45;&gt;l4_perf -->
<!-- l5_perf -->
<g id="node11" class="node">
<title>l5_perf</title>
<polygon fill="#fff176" stroke="black" points="1452.5,-337.5 1395.5,-337.5 1395.5,-290.5 1452.5,-290.5 1452.5,-337.5"/>
<text text-anchor="middle" x="1424" y="-323.9" font-family="Arial" font-size="12.00">Layer 5</text>
<text text-anchor="middle" x="1424" y="-310.9" font-family="Arial" font-size="12.00">110 μs</text>
<text text-anchor="middle" x="1424" y="-297.9" font-family="Arial" font-size="12.00">(output)</text>
</g>
<!-- l4_perf&#45;&gt;l5_perf -->
<!-- l6_perf -->
<g id="node12" class="node">
<title>l6_perf</title>
<polygon fill="#ce93d8" stroke="black" points="1606,-337.5 1533,-337.5 1533,-290.5 1606,-290.5 1606,-337.5"/>
<text text-anchor="middle" x="1569.5" y="-323.9" font-family="Arial" font-size="12.00">Layer 6</text>
<text text-anchor="middle" x="1569.5" y="-310.9" font-family="Arial" font-size="12.00">148 μs</text>
<text text-anchor="middle" x="1569.5" y="-297.9" font-family="Arial" font-size="12.00">(feedback)</text>
</g>
<!-- l5_perf&#45;&gt;l6_perf -->
<!-- row_major -->
<g id="node13" class="node">
<title>row_major</title>
<polygon fill="#ffccbc" stroke="black" points="108,-239.5 16,-239.5 16,-192.5 108,-192.5 108,-239.5"/>
<text text-anchor="middle" x="62" y="-225.9" font-family="Arial" font-size="12.00">Row&#45;Major</text>
<text text-anchor="middle" x="62" y="-212.9" font-family="Arial" font-size="12.00">(Pattern&#45;wise)</text>
<text text-anchor="middle" x="62" y="-199.9" font-family="Arial" font-size="12.00">Cache misses</text>
</g>
<!-- transpose -->
<g id="node14" class="node">
<title>transpose</title>
<polygon fill="#e1bee7" stroke="black" points="252,-250 179,-216 252,-182 325,-216 252,-250"/>
<text text-anchor="middle" x="252" y="-219.4" font-family="Arial" font-size="12.00">Transpose</text>
<text text-anchor="middle" x="252" y="-206.4" font-family="Arial" font-size="12.00">Operation</text>
</g>
<!-- row_major&#45;&gt;transpose -->
<g id="edge12" class="edge">
<title>row_major&#45;&gt;transpose</title>
<path fill="none" stroke="black" d="M108.03,-216C126.23,-216 147.84,-216 168.67,-216"/>
<polygon fill="black" stroke="black" points="168.81,-219.5 178.81,-216 168.81,-212.5 168.81,-219.5"/>
<text text-anchor="middle" x="143.5" y="-219" font-family="Arial" font-size="10.00">reshape</text>
</g>
<!-- col_major -->
<g id="node15" class="node">
<title>col_major</title>
<polygon fill="#c8e6c9" stroke="black" points="492,-239.5 398,-239.5 398,-192.5 492,-192.5 492,-239.5"/>
<text text-anchor="middle" x="445" y="-225.9" font-family="Arial" font-size="12.00">Column&#45;Major</text>
<text text-anchor="middle" x="445" y="-212.9" font-family="Arial" font-size="12.00">(Feature&#45;wise)</text>
<text text-anchor="middle" x="445" y="-199.9" font-family="Arial" font-size="12.00">SIMD friendly</text>
</g>
<!-- transpose&#45;&gt;col_major -->
<g id="edge13" class="edge">
<title>transpose&#45;&gt;col_major</title>
<path fill="none" stroke="#4caf50" d="M325.21,-216C345.99,-216 368.34,-216 387.98,-216"/>
<polygon fill="#4caf50" stroke="#4caf50" points="387.98,-219.5 397.98,-216 387.98,-212.5 387.98,-219.5"/>
<text text-anchor="middle" x="361.5" y="-219" font-family="Arial" font-size="10.00">optimize</text>
</g>
<!-- col_major&#45;&gt;batch_simd -->
<g id="edge14" class="edge">
<title>col_major&#45;&gt;batch_simd</title>
<path fill="none" stroke="#4caf50" stroke-dasharray="5,2" d="M492.06,-216C500.6,-216 509.67,-216 518.67,-216"/>
<polygon fill="#4caf50" stroke="#4caf50" points="518.78,-219.5 528.78,-216 518.78,-212.5 518.78,-219.5"/>
</g>
<!-- hardware -->
<g id="node17" class="node">
<title>hardware</title>
<polygon fill="#e1f5fe" stroke="black" points="1489,-262.5 1353,-262.5 1353,-189.5 1495,-189.5 1495,-256.5 1489,-262.5"/>
<polyline fill="none" stroke="black" points="1489,-262.5 1489,-256.5 "/>
<polyline fill="none" stroke="black" points="1495,-256.5 1489,-256.5 "/>
<text text-anchor="middle" x="1424" y="-248.9" font-family="Arial" font-size="12.00">Hardware:</text>
<text text-anchor="middle" x="1424" y="-235.9" font-family="Arial" font-size="12.00">• Apple Silicon NEON</text>
<text text-anchor="middle" x="1424" y="-222.9" font-family="Arial" font-size="12.00">• 4x double SIMD lanes</text>
<text text-anchor="middle" x="1424" y="-209.9" font-family="Arial" font-size="12.00">• L1 cache optimization</text>
<text text-anchor="middle" x="1424" y="-196.9" font-family="Arial" font-size="12.00">• Prefetching enabled</text>
</g>
<!-- impl&#45;&gt;hardware -->
<g id="edge16" class="edge">
<title>impl&#45;&gt;hardware</title>
<path fill="none" stroke="black" stroke-dasharray="1,5" d="M1315.22,-220.34C1324.34,-220.82 1333.62,-221.31 1342.71,-221.79"/>
<polygon fill="black" stroke="black" points="1342.7,-225.29 1352.87,-222.32 1343.07,-218.3 1342.7,-225.29"/>
</g>
<!-- tests -->
<g id="node18" class="node">
<title>tests</title>
<polygon fill="#fff59d" stroke="black" points="1490,-171.5 1352,-171.5 1352,-98.5 1496,-98.5 1496,-165.5 1490,-171.5"/>
<polyline fill="none" stroke="black" points="1490,-171.5 1490,-165.5 "/>
<polyline fill="none" stroke="black" points="1496,-165.5 1490,-165.5 "/>
<text text-anchor="middle" x="1424" y="-157.9" font-family="Arial" font-size="12.00">Test Coverage:</text>
<text text-anchor="middle" x="1424" y="-144.9" font-family="Arial" font-size="12.00">• 43 test classes</text>
<text text-anchor="middle" x="1424" y="-131.9" font-family="Arial" font-size="12.00">• 402 individual tests</text>
<text text-anchor="middle" x="1424" y="-118.9" font-family="Arial" font-size="12.00">• 100% pass rate</text>
<text text-anchor="middle" x="1424" y="-105.9" font-family="Arial" font-size="12.00">• Performance validated</text>
</g>
<!-- impl&#45;&gt;tests -->
<g id="edge17" class="edge">
<title>impl&#45;&gt;tests</title>
<path fill="none" stroke="black" stroke-dasharray="1,5" d="M1275.25,-197.82C1295.11,-189.38 1319.4,-179.05 1342.51,-169.23"/>
<polygon fill="black" stroke="black" points="1344.14,-172.33 1351.97,-165.2 1341.4,-165.89 1344.14,-172.33"/>
</g>
</g>
</svg>
