<?xml version="1.0" encoding="UTF-8" standalone="no"?>
<!DOCTYPE svg PUBLIC "-//W3C//DTD SVG 1.1//EN"
 "http://www.w3.org/Graphics/SVG/1.1/DTD/svg11.dtd">
<!-- Generated by graphviz version 2.46.0 (20210118.1747)
 -->
<!-- Title: Laminar6Layer Pages: 1 -->
<svg width="598pt" height="921pt"
 viewBox="0.00 0.00 598.00 920.88" xmlns="http://www.w3.org/2000/svg" xmlns:xlink="http://www.w3.org/1999/xlink">
<g id="graph0" class="graph" transform="scale(1 1) rotate(0) translate(4 916.88)">
<title>Laminar6Layer</title>
<polygon fill="white" stroke="transparent" points="-4,4 -4,-916.88 594,-916.88 594,4 -4,4"/>
<!-- input -->
<g id="node1" class="node">
<title>input</title>
<ellipse fill="#e3f2fd" stroke="black" stroke-width="3" cx="426" cy="-878.94" rx="62.87" ry="33.88"/>
<text text-anchor="middle" x="426" y="-884.54" font-family="Arial" font-size="18.00">Thalamic</text>
<text text-anchor="middle" x="426" y="-864.54" font-family="Arial" font-size="18.00">Input</text>
</g>
<!-- l4 -->
<g id="node2" class="node">
<title>l4</title>
<path fill="#fff176" stroke="black" stroke-width="3" d="M329,-744C329,-744 173,-744 173,-744 167,-744 161,-738 161,-732 161,-732 161,-693 161,-693 161,-687 167,-681 173,-681 173,-681 329,-681 329,-681 335,-681 341,-687 341,-693 341,-693 341,-732 341,-732 341,-738 335,-744 329,-744"/>
<text text-anchor="middle" x="251" y="-727.2" font-family="Arial" font-size="16.00">Layer 4</text>
<text text-anchor="middle" x="251" y="-690.2" font-family="Arial" font-size="16.00">Input + ART Matching</text>
</g>
<!-- input&#45;&gt;l4 -->
<g id="edge1" class="edge">
<title>input&#45;&gt;l4</title>
<path fill="none" stroke="#fbc02d" stroke-width="4" d="M395.12,-848.92C366.14,-821.69 322.64,-780.82 291.02,-751.1"/>
<polygon fill="#fbc02d" stroke="#fbc02d" stroke-width="4" points="293.34,-748.48 283.65,-744.18 288.54,-753.58 293.34,-748.48"/>
<text text-anchor="middle" x="366.5" y="-790.8" font-family="Arial" font-size="14.00"> &#160;input &#160;</text>
</g>
<!-- l23 -->
<g id="node3" class="node">
<title>l23</title>
<path fill="#ffb74d" stroke="black" stroke-width="3" d="M310,-567.5C310,-567.5 154,-567.5 154,-567.5 148,-567.5 142,-561.5 142,-555.5 142,-555.5 142,-516.5 142,-516.5 142,-510.5 148,-504.5 154,-504.5 154,-504.5 310,-504.5 310,-504.5 316,-504.5 322,-510.5 322,-516.5 322,-516.5 322,-555.5 322,-555.5 322,-561.5 316,-567.5 310,-567.5"/>
<text text-anchor="middle" x="232" y="-550.7" font-family="Arial" font-size="16.00">Layer 2/3</text>
<text text-anchor="middle" x="232" y="-513.7" font-family="Arial" font-size="16.00">Horizontal Grouping</text>
</g>
<!-- l4&#45;&gt;l23 -->
<g id="edge2" class="edge">
<title>l4&#45;&gt;l23</title>
<path fill="none" stroke="#fbc02d" stroke-width="4" d="M247.65,-680.7C244.54,-652.14 239.88,-609.41 236.46,-577.97"/>
<polygon fill="#fbc02d" stroke="#fbc02d" stroke-width="4" points="239.91,-577.34 235.35,-567.78 232.95,-578.1 239.91,-577.34"/>
<text text-anchor="middle" x="275" y="-626.8" font-family="Arial" font-size="14.00"> &#160;features &#160;</text>
</g>
<!-- resonance -->
<g id="node7" class="node">
<title>resonance</title>
<path fill="#c8e6c9" stroke="black" stroke-width="3" d="M481.05,-575.08C481.05,-575.08 404.95,-540.92 404.95,-540.92 399.47,-538.46 399.47,-533.54 404.95,-531.08 404.95,-531.08 481.05,-496.92 481.05,-496.92 486.53,-494.46 497.47,-494.46 502.95,-496.92 502.95,-496.92 579.05,-531.08 579.05,-531.08 584.53,-533.54 584.53,-538.46 579.05,-540.92 579.05,-540.92 502.95,-575.08 502.95,-575.08 497.47,-577.54 486.53,-577.54 481.05,-575.08"/>
<text text-anchor="middle" x="492" y="-541.2" font-family="Arial" font-size="16.00">Resonance</text>
<text text-anchor="middle" x="492" y="-523.2" font-family="Arial" font-size="16.00">Check</text>
</g>
<!-- l4&#45;&gt;resonance -->
<g id="edge7" class="edge">
<title>l4&#45;&gt;resonance</title>
<path fill="none" stroke="black" stroke-width="2" d="M293.25,-680.9C336.37,-649.68 403.04,-601.41 447.1,-569.51"/>
<polygon fill="black" stroke="black" stroke-width="2" points="449.27,-572.26 455.32,-563.56 445.17,-566.59 449.27,-572.26"/>
</g>
<!-- l5 -->
<g id="node4" class="node">
<title>l5</title>
<path fill="#fff176" stroke="black" stroke-width="3" d="M345,-391C345,-391 189,-391 189,-391 183,-391 177,-385 177,-379 177,-379 177,-340 177,-340 177,-334 183,-328 189,-328 189,-328 345,-328 345,-328 351,-328 357,-334 357,-340 357,-340 357,-379 357,-379 357,-385 351,-391 345,-391"/>
<text text-anchor="middle" x="267" y="-374.2" font-family="Arial" font-size="16.00">Layer 5</text>
<text text-anchor="middle" x="267" y="-337.2" font-family="Arial" font-size="16.00">Categories</text>
</g>
<!-- l23&#45;&gt;l5 -->
<g id="edge3" class="edge">
<title>l23&#45;&gt;l5</title>
<path fill="none" stroke="#fbc02d" stroke-width="4" d="M238.18,-504.2C243.91,-475.64 252.48,-432.91 258.78,-401.47"/>
<polygon fill="#fbc02d" stroke="#fbc02d" stroke-width="4" points="262.29,-401.77 260.83,-391.28 255.43,-400.4 262.29,-401.77"/>
<text text-anchor="middle" x="284.5" y="-437.8" font-family="Arial" font-size="14.00"> &#160;grouped &#160;</text>
</g>
<!-- l6 -->
<g id="node5" class="node">
<title>l6</title>
<path fill="#ce93d8" stroke="black" stroke-width="3" d="M327,-227C327,-227 171,-227 171,-227 165,-227 159,-221 159,-215 159,-215 159,-176 159,-176 159,-170 165,-164 171,-164 171,-164 327,-164 327,-164 333,-164 339,-170 339,-176 339,-176 339,-215 339,-215 339,-221 333,-227 327,-227"/>
<text text-anchor="middle" x="249" y="-210.2" font-family="Arial" font-size="16.00">Layer 6</text>
<text text-anchor="middle" x="249" y="-173.2" font-family="Arial" font-size="16.00">Top&#45;Down Feedback</text>
</g>
<!-- l5&#45;&gt;l6 -->
<g id="edge4" class="edge">
<title>l5&#45;&gt;l6</title>
<path fill="none" stroke="#9c27b0" stroke-width="3" d="M263.57,-327.65C260.73,-302.09 256.67,-265.54 253.56,-237.52"/>
<polygon fill="#9c27b0" stroke="#9c27b0" stroke-width="3" points="257,-236.79 252.42,-227.24 250.04,-237.56 257,-236.79"/>
<text text-anchor="middle" x="292.5" y="-273.8" font-family="Arial" font-size="14.00"> &#160;category &#160;</text>
</g>
<!-- l1 -->
<g id="node6" class="node">
<title>l1</title>
<path fill="#ce93d8" stroke="black" stroke-width="3" d="M168,-63C168,-63 12,-63 12,-63 6,-63 0,-57 0,-51 0,-51 0,-12 0,-12 0,-6 6,0 12,0 12,0 168,0 168,0 174,0 180,-6 180,-12 180,-12 180,-51 180,-51 180,-57 174,-63 168,-63"/>
<text text-anchor="middle" x="90" y="-46.2" font-family="Arial" font-size="16.00">Layer 1</text>
<text text-anchor="middle" x="90" y="-9.2" font-family="Arial" font-size="16.00">Attentional Modulation</text>
</g>
<!-- l6&#45;&gt;l1 -->
<g id="edge5" class="edge">
<title>l6&#45;&gt;l1</title>
<path fill="none" stroke="#9c27b0" stroke-width="3" d="M218.72,-163.65C192.75,-137.19 155.22,-98.95 127.38,-70.59"/>
<polygon fill="#9c27b0" stroke="#9c27b0" stroke-width="3" points="129.67,-67.92 120.17,-63.24 124.68,-72.83 129.67,-67.92"/>
<text text-anchor="middle" x="217.5" y="-109.8" font-family="Arial" font-size="14.00"> &#160;expectation &#160;</text>
</g>
<!-- l1&#45;&gt;l4 -->
<g id="edge6" class="edge">
<title>l1&#45;&gt;l4</title>
<path fill="none" stroke="#9c27b0" stroke-width="3" stroke-dasharray="5,2" d="M79.14,-63.35C62.61,-110.36 33,-194.5 33,-194.5 33,-537 33,-537 33,-537 33,-537 140.83,-623.32 204.82,-674.54"/>
<polygon fill="#9c27b0" stroke="#9c27b0" stroke-width="3" points="202.78,-677.39 212.78,-680.9 207.16,-671.92 202.78,-677.39"/>
<text text-anchor="middle" x="69" y="-355.8" font-family="Arial" font-size="14.00"> &#160;modulate &#160;</text>
</g>
<!-- resonance&#45;&gt;input -->
<g id="edge9" class="edge">
<title>resonance&#45;&gt;input</title>
<path fill="none" stroke="#f44336" stroke-width="2" stroke-dasharray="5,2" d="M484.3,-576.8C471.81,-641.31 447.25,-768.18 434.35,-834.79"/>
<polygon fill="#f44336" stroke="#f44336" stroke-width="2" points="430.85,-834.46 432.39,-844.94 437.73,-835.79 430.85,-834.46"/>
<text text-anchor="middle" x="478.5" y="-708.8" font-family="Arial" font-size="14.00">reset</text>
</g>
<!-- resonance&#45;&gt;l5 -->
<g id="edge8" class="edge">
<title>resonance&#45;&gt;l5</title>
<path fill="none" stroke="#4caf50" stroke-width="3" d="M456.84,-507.73C418.53,-478.02 357.01,-430.31 314.43,-397.29"/>
<polygon fill="#4caf50" stroke="#4caf50" stroke-width="3" points="316.5,-394.46 306.45,-391.1 312.21,-399.99 316.5,-394.46"/>
<text text-anchor="middle" x="395.5" y="-437.8" font-family="Arial" font-size="14.00">learn</text>
</g>
</g>
</svg>
