<?xml version="1.0" encoding="UTF-8" standalone="no"?>
<!DOCTYPE svg PUBLIC "-//W3C//DTD SVG 1.1//EN"
 "http://www.w3.org/Graphics/SVG/1.1/DTD/svg11.dtd">
<!-- Generated by graphviz version 2.46.0 (20210118.1747)
 -->
<!-- Title: ListParseExample Pages: 1 -->
<svg width="1565pt" height="1917pt"
 viewBox="0.00 0.00 1565.00 1916.77" xmlns="http://www.w3.org/2000/svg" xmlns:xlink="http://www.w3.org/1999/xlink">
<g id="graph0" class="graph" transform="scale(1 1) rotate(0) translate(4 1912.77)">
<title>ListParseExample</title>
<polygon fill="white" stroke="transparent" points="-4,4 -4,-1912.77 1561,-1912.77 1561,4 -4,4"/>
<text text-anchor="middle" x="778.5" y="-1891.97" font-family="Arial Bold" font-size="16.00">LIST PARSE Example: Speech Sequence Chunking</text>
<text text-anchor="middle" x="778.5" y="-1873.97" font-family="Arial Bold" font-size="16.00">&quot;PLEASE&#45;SEND&#45;HELP&quot; → [PLEASE][SEND][HELP]</text>
<g id="clust1" class="cluster">
<title>cluster_input</title>
<polygon fill="#e3f2fd" stroke="#e3f2fd" points="8,-349.96 8,-1856.77 309,-1856.77 309,-349.96 8,-349.96"/>
<text text-anchor="middle" x="158.5" y="-1839.97" font-family="Arial Bold" font-size="16.00">Input Phoneme Sequence (0&#45;1500ms)</text>
</g>
<g id="clust2" class="cluster">
<title>cluster_wm</title>
<polygon fill="#fff9c4" stroke="#fff9c4" points="317,-626.2 317,-881.94 641,-881.94 641,-626.2 317,-626.2"/>
<text text-anchor="middle" x="479" y="-865.14" font-family="Arial Bold" font-size="16.00">Working Memory (Item Scale: 50&#45;100ms)</text>
</g>
<g id="clust3" class="cluster">
<title>cluster_mask</title>
<polygon fill="#c8e6c9" stroke="#c8e6c9" points="649,-340.77 649,-724.94 975,-724.94 975,-340.77 649,-340.77"/>
<text text-anchor="middle" x="812" y="-708.14" font-family="Arial Bold" font-size="16.00">Masking Field (Chunk Scale: 200&#45;400ms)</text>
</g>
<g id="clust4" class="cluster">
<title>cluster_boundaries</title>
<polygon fill="#ffe0b2" stroke="#ffe0b2" points="983,-327 983,-463 1503,-463 1503,-327 983,-327"/>
<text text-anchor="middle" x="1243" y="-446.2" font-family="Arial Bold" font-size="16.00">Detected Chunk Boundaries</text>
</g>
<g id="clust5" class="cluster">
<title>cluster_transmitter</title>
<polygon fill="#f3e5f5" stroke="#f3e5f5" points="1353,-120.5 1353,-298 1549,-298 1549,-120.5 1353,-120.5"/>
<text text-anchor="middle" x="1451" y="-281.2" font-family="Arial Bold" font-size="16.00">Transmitter Habituation</text>
</g>
<g id="clust6" class="cluster">
<title>cluster_output</title>
<polygon fill="#a5d6a7" stroke="#a5d6a7" points="1046,-115 1046,-298 1345,-298 1345,-115 1046,-115"/>
<text text-anchor="middle" x="1195.5" y="-281.2" font-family="Arial Bold" font-size="16.00">Output: Hierarchical Chunk Structure</text>
</g>
<!-- p -->
<g id="node1" class="node">
<title>p</title>
<ellipse fill="#bbdefb" stroke="black" cx="271" cy="-1798.73" rx="27" ry="24.08"/>
<text text-anchor="middle" x="271" y="-1802.13" font-family="Arial" font-size="12.00">P</text>
<text text-anchor="middle" x="271" y="-1789.13" font-family="Arial" font-size="12.00">t=0</text>
</g>
<!-- l -->
<g id="node2" class="node">
<title>l</title>
<ellipse fill="#bbdefb" stroke="black" cx="268" cy="-1703.64" rx="33.47" ry="24.08"/>
<text text-anchor="middle" x="268" y="-1707.04" font-family="Arial" font-size="12.00">L</text>
<text text-anchor="middle" x="268" y="-1694.04" font-family="Arial" font-size="12.00">t=100</text>
</g>
<!-- p&#45;&gt;l -->
<g id="edge1" class="edge">
<title>p&#45;&gt;l</title>
<path fill="none" stroke="black" d="M270.24,-1774.24C269.89,-1763.24 269.46,-1749.95 269.07,-1737.94"/>
<polygon fill="black" stroke="black" points="272.57,-1737.68 268.75,-1727.8 265.57,-1737.91 272.57,-1737.68"/>
<text text-anchor="middle" x="285" y="-1748.69" font-family="Arial" font-size="10.00">time →</text>
</g>
<!-- wm_items -->
<g id="node15" class="node">
<title>wm_items</title>
<polygon fill="#fff59d" stroke="black" points="433.5,-847.94 334.5,-847.94 334.5,-761.94 433.5,-761.94 433.5,-847.94"/>
<text text-anchor="middle" x="384" y="-834.34" font-family="Arial" font-size="12.00">Items Stored:</text>
<text text-anchor="middle" x="384" y="-821.34" font-family="Arial" font-size="12.00">[P, L, E, A, S, E]</text>
<text text-anchor="middle" x="384" y="-808.34" font-family="Arial" font-size="12.00">↓</text>
<text text-anchor="middle" x="384" y="-795.34" font-family="Arial" font-size="12.00">[S, E, N, D]</text>
<text text-anchor="middle" x="384" y="-782.34" font-family="Arial" font-size="12.00">↓</text>
<text text-anchor="middle" x="384" y="-769.34" font-family="Arial" font-size="12.00">[H, E, L, P]</text>
</g>
<!-- p&#45;&gt;wm_items -->
<g id="edge14" class="edge">
<title>p&#45;&gt;wm_items</title>
<path fill="none" stroke="black" d="M296.08,-1789.67C329.37,-1777.22 384,-1749.89 384,-1704.64 384,-1704.64 384,-1704.64 384,-941.98 384,-914.37 384,-883.61 384,-858.33"/>
<polygon fill="black" stroke="black" points="387.5,-858.22 384,-848.22 380.5,-858.22 387.5,-858.22"/>
<text text-anchor="middle" x="395" y="-1320.81" font-family="Arial" font-size="10.00">store</text>
</g>
<!-- e1 -->
<g id="node3" class="node">
<title>e1</title>
<ellipse fill="#bbdefb" stroke="black" cx="268" cy="-1608.56" rx="33.47" ry="24.08"/>
<text text-anchor="middle" x="268" y="-1611.96" font-family="Arial" font-size="12.00">E</text>
<text text-anchor="middle" x="268" y="-1598.96" font-family="Arial" font-size="12.00">t=200</text>
</g>
<!-- l&#45;&gt;e1 -->
<g id="edge2" class="edge">
<title>l&#45;&gt;e1</title>
<path fill="none" stroke="black" d="M268,-1679.15C268,-1668.16 268,-1654.86 268,-1642.85"/>
<polygon fill="black" stroke="black" points="271.5,-1642.72 268,-1632.72 264.5,-1642.72 271.5,-1642.72"/>
<text text-anchor="middle" x="284" y="-1653.6" font-family="Arial" font-size="10.00">time →</text>
</g>
<!-- a -->
<g id="node4" class="node">
<title>a</title>
<ellipse fill="#bbdefb" stroke="black" cx="268" cy="-1513.48" rx="33.47" ry="24.08"/>
<text text-anchor="middle" x="268" y="-1516.88" font-family="Arial" font-size="12.00">A</text>
<text text-anchor="middle" x="268" y="-1503.88" font-family="Arial" font-size="12.00">t=300</text>
</g>
<!-- e1&#45;&gt;a -->
<g id="edge3" class="edge">
<title>e1&#45;&gt;a</title>
<path fill="none" stroke="black" d="M268,-1584.07C268,-1573.07 268,-1559.78 268,-1547.77"/>
<polygon fill="black" stroke="black" points="271.5,-1547.64 268,-1537.64 264.5,-1547.64 271.5,-1547.64"/>
<text text-anchor="middle" x="284" y="-1558.52" font-family="Arial" font-size="10.00">time →</text>
</g>
<!-- s1 -->
<g id="node5" class="node">
<title>s1</title>
<ellipse fill="#bbdefb" stroke="black" cx="268" cy="-1418.39" rx="33.47" ry="24.08"/>
<text text-anchor="middle" x="268" y="-1421.79" font-family="Arial" font-size="12.00">S</text>
<text text-anchor="middle" x="268" y="-1408.79" font-family="Arial" font-size="12.00">t=400</text>
</g>
<!-- a&#45;&gt;s1 -->
<g id="edge4" class="edge">
<title>a&#45;&gt;s1</title>
<path fill="none" stroke="black" d="M268,-1488.99C268,-1477.99 268,-1464.7 268,-1452.69"/>
<polygon fill="black" stroke="black" points="271.5,-1452.55 268,-1442.55 264.5,-1452.55 271.5,-1452.55"/>
<text text-anchor="middle" x="284" y="-1463.44" font-family="Arial" font-size="10.00">time →</text>
</g>
<!-- e2 -->
<g id="node6" class="node">
<title>e2</title>
<ellipse fill="#90caf9" stroke="black" cx="268" cy="-1323.31" rx="33.47" ry="24.08"/>
<text text-anchor="middle" x="268" y="-1326.71" font-family="Arial" font-size="12.00">E</text>
<text text-anchor="middle" x="268" y="-1313.71" font-family="Arial" font-size="12.00">t=500</text>
</g>
<!-- s1&#45;&gt;e2 -->
<g id="edge5" class="edge">
<title>s1&#45;&gt;e2</title>
<path fill="none" stroke="black" d="M268,-1393.91C268,-1382.91 268,-1369.61 268,-1357.6"/>
<polygon fill="black" stroke="black" points="271.5,-1357.47 268,-1347.47 264.5,-1357.47 271.5,-1357.47"/>
<text text-anchor="middle" x="284" y="-1368.35" font-family="Arial" font-size="10.00">time →</text>
</g>
<!-- s2 -->
<g id="node7" class="node">
<title>s2</title>
<ellipse fill="#64b5f6" stroke="black" cx="268" cy="-1228.23" rx="33.47" ry="24.08"/>
<text text-anchor="middle" x="268" y="-1231.63" font-family="Arial" font-size="12.00">S</text>
<text text-anchor="middle" x="268" y="-1218.63" font-family="Arial" font-size="12.00">t=600</text>
</g>
<!-- e2&#45;&gt;s2 -->
<g id="edge6" class="edge">
<title>e2&#45;&gt;s2</title>
<path fill="none" stroke="black" d="M268,-1298.82C268,-1287.82 268,-1274.53 268,-1262.52"/>
<polygon fill="black" stroke="black" points="271.5,-1262.39 268,-1252.39 264.5,-1262.39 271.5,-1262.39"/>
<text text-anchor="middle" x="284" y="-1273.27" font-family="Arial" font-size="10.00">time →</text>
</g>
<!-- e2&#45;&gt;wm_items -->
<g id="edge15" class="edge">
<title>e2&#45;&gt;wm_items</title>
<path fill="none" stroke="black" d="M292.68,-1307.09C315.53,-1290.89 346,-1262.96 346,-1229.23 346,-1229.23 346,-1229.23 346,-941.98 346,-913.4 353.87,-882.65 362.45,-857.63"/>
<polygon fill="black" stroke="black" points="365.83,-858.58 365.89,-847.99 359.24,-856.23 365.83,-858.58"/>
<text text-anchor="middle" x="357" y="-1083.1" font-family="Arial" font-size="10.00">store</text>
</g>
<!-- e3 -->
<g id="node8" class="node">
<title>e3</title>
<ellipse fill="#64b5f6" stroke="black" cx="268" cy="-1133.14" rx="33.47" ry="24.08"/>
<text text-anchor="middle" x="268" y="-1136.54" font-family="Arial" font-size="12.00">E</text>
<text text-anchor="middle" x="268" y="-1123.54" font-family="Arial" font-size="12.00">t=700</text>
</g>
<!-- s2&#45;&gt;e3 -->
<g id="edge7" class="edge">
<title>s2&#45;&gt;e3</title>
<path fill="none" stroke="black" d="M268,-1203.74C268,-1192.74 268,-1179.45 268,-1167.44"/>
<polygon fill="black" stroke="black" points="271.5,-1167.3 268,-1157.3 264.5,-1167.3 271.5,-1167.3"/>
<text text-anchor="middle" x="284" y="-1178.19" font-family="Arial" font-size="10.00">time →</text>
</g>
<!-- n -->
<g id="node9" class="node">
<title>n</title>
<ellipse fill="#64b5f6" stroke="black" cx="268" cy="-1038.06" rx="33.47" ry="24.08"/>
<text text-anchor="middle" x="268" y="-1041.46" font-family="Arial" font-size="12.00">N</text>
<text text-anchor="middle" x="268" y="-1028.46" font-family="Arial" font-size="12.00">t=800</text>
</g>
<!-- e3&#45;&gt;n -->
<g id="edge8" class="edge">
<title>e3&#45;&gt;n</title>
<path fill="none" stroke="black" d="M268,-1108.66C268,-1097.66 268,-1084.36 268,-1072.35"/>
<polygon fill="black" stroke="black" points="271.5,-1072.22 268,-1062.22 264.5,-1072.22 271.5,-1072.22"/>
<text text-anchor="middle" x="284" y="-1083.1" font-family="Arial" font-size="10.00">time →</text>
</g>
<!-- d -->
<g id="node10" class="node">
<title>d</title>
<ellipse fill="#64b5f6" stroke="black" cx="268" cy="-942.98" rx="33.47" ry="24.08"/>
<text text-anchor="middle" x="268" y="-946.38" font-family="Arial" font-size="12.00">D</text>
<text text-anchor="middle" x="268" y="-933.38" font-family="Arial" font-size="12.00">t=900</text>
</g>
<!-- n&#45;&gt;d -->
<g id="edge9" class="edge">
<title>n&#45;&gt;d</title>
<path fill="none" stroke="black" d="M268,-1013.57C268,-1002.58 268,-989.28 268,-977.27"/>
<polygon fill="black" stroke="black" points="271.5,-977.14 268,-967.14 264.5,-977.14 271.5,-977.14"/>
<text text-anchor="middle" x="284" y="-988.02" font-family="Arial" font-size="10.00">time →</text>
</g>
<!-- h -->
<g id="node11" class="node">
<title>h</title>
<ellipse fill="#42a5f5" stroke="black" cx="254" cy="-804.94" rx="37.45" ry="24.08"/>
<text text-anchor="middle" x="254" y="-808.34" font-family="Arial" font-size="12.00">H</text>
<text text-anchor="middle" x="254" y="-795.34" font-family="Arial" font-size="12.00">t=1000</text>
</g>
<!-- d&#45;&gt;h -->
<g id="edge10" class="edge">
<title>d&#45;&gt;h</title>
<path fill="none" stroke="black" d="M259.62,-919.69C257.73,-913.69 255.99,-907.14 255,-900.94 251.75,-880.65 251.43,-857.62 251.95,-839.31"/>
<polygon fill="black" stroke="black" points="255.46,-839.26 252.34,-829.13 248.46,-838.99 255.46,-839.26"/>
<text text-anchor="middle" x="271" y="-892.94" font-family="Arial" font-size="10.00">time →</text>
</g>
<!-- d&#45;&gt;wm_items -->
<g id="edge16" class="edge">
<title>d&#45;&gt;wm_items</title>
<path fill="none" stroke="black" d="M284.15,-921.55C291.88,-911.88 301.32,-900.23 310,-889.94 319.37,-878.83 329.57,-867.05 339.33,-855.93"/>
<polygon fill="black" stroke="black" points="342.01,-858.18 345.99,-848.36 336.76,-853.55 342.01,-858.18"/>
<text text-anchor="middle" x="321" y="-892.94" font-family="Arial" font-size="10.00">store</text>
</g>
<!-- e4 -->
<g id="node12" class="node">
<title>e4</title>
<ellipse fill="#42a5f5" stroke="black" cx="254" cy="-657.7" rx="37.45" ry="24.08"/>
<text text-anchor="middle" x="254" y="-661.1" font-family="Arial" font-size="12.00">E</text>
<text text-anchor="middle" x="254" y="-648.1" font-family="Arial" font-size="12.00">t=1100</text>
</g>
<!-- h&#45;&gt;e4 -->
<g id="edge11" class="edge">
<title>h&#45;&gt;e4</title>
<path fill="none" stroke="black" d="M254,-780.6C254,-756.68 254,-719.23 254,-692.16"/>
<polygon fill="black" stroke="black" points="257.5,-691.98 254,-681.98 250.5,-691.98 257.5,-691.98"/>
<text text-anchor="middle" x="270" y="-735.94" font-family="Arial" font-size="10.00">time →</text>
</g>
<!-- l2 -->
<g id="node13" class="node">
<title>l2</title>
<ellipse fill="#42a5f5" stroke="black" cx="254" cy="-533.23" rx="37.45" ry="24.08"/>
<text text-anchor="middle" x="254" y="-536.63" font-family="Arial" font-size="12.00">L</text>
<text text-anchor="middle" x="254" y="-523.63" font-family="Arial" font-size="12.00">t=1200</text>
</g>
<!-- e4&#45;&gt;l2 -->
<g id="edge12" class="edge">
<title>e4&#45;&gt;l2</title>
<path fill="none" stroke="black" d="M254,-633.38C254,-614.74 254,-588.37 254,-567.51"/>
<polygon fill="black" stroke="black" points="257.5,-567.47 254,-557.47 250.5,-567.47 257.5,-567.47"/>
<text text-anchor="middle" x="270" y="-592.97" font-family="Arial" font-size="10.00">time →</text>
</g>
<!-- p2 -->
<g id="node14" class="node">
<title>p2</title>
<ellipse fill="#42a5f5" stroke="black" cx="254" cy="-382" rx="37.45" ry="24.08"/>
<text text-anchor="middle" x="254" y="-385.4" font-family="Arial" font-size="12.00">P</text>
<text text-anchor="middle" x="254" y="-372.4" font-family="Arial" font-size="12.00">t=1300</text>
</g>
<!-- l2&#45;&gt;p2 -->
<g id="edge13" class="edge">
<title>l2&#45;&gt;p2</title>
<path fill="none" stroke="black" d="M254,-508.92C254,-484.06 254,-444.47 254,-416.33"/>
<polygon fill="black" stroke="black" points="257.5,-416.15 254,-406.15 250.5,-416.15 257.5,-416.15"/>
<text text-anchor="middle" x="270" y="-474" font-family="Arial" font-size="10.00">time →</text>
</g>
<!-- wm_primacy -->
<g id="node16" class="node">
<title>wm_primacy</title>
<polygon fill="#ffe082" stroke="black" points="632.5,-681.2 525.5,-681.2 525.5,-634.2 632.5,-634.2 632.5,-681.2"/>
<text text-anchor="middle" x="579" y="-667.6" font-family="Arial" font-size="12.00">Primacy Applied:</text>
<text text-anchor="middle" x="579" y="-654.6" font-family="Arial" font-size="12.00">[1.0, 0.9, 0.8, ...]</text>
<text text-anchor="middle" x="579" y="-641.6" font-family="Arial" font-size="12.00">Early = Strong</text>
</g>
<!-- wm_items&#45;&gt;wm_primacy -->
<g id="edge17" class="edge">
<title>wm_items&#45;&gt;wm_primacy</title>
<path fill="none" stroke="black" d="M433.71,-766.91C466.82,-742.25 509.7,-710.32 540.27,-687.55"/>
<polygon fill="black" stroke="black" points="542.62,-690.16 548.55,-681.38 538.44,-684.55 542.62,-690.16"/>
<text text-anchor="middle" x="489.5" y="-735.94" font-family="Arial" font-size="10.00">weight</text>
</g>
<!-- mask1 -->
<g id="node17" class="node">
<title>mask1</title>
<ellipse fill="#4caf50" stroke="black" stroke-width="3" cx="817" cy="-657.7" rx="53.07" ry="33.47"/>
<text text-anchor="middle" x="817" y="-667.6" font-family="Arial" font-size="12.00" fill="white">Category 1</text>
<text text-anchor="middle" x="817" y="-654.6" font-family="Arial" font-size="12.00" fill="white">act=0.95</text>
<text text-anchor="middle" x="817" y="-641.6" font-family="Arial" font-size="12.00" fill="white">WINNER</text>
</g>
<!-- wm_primacy&#45;&gt;mask1 -->
<g id="edge20" class="edge">
<title>wm_primacy&#45;&gt;mask1</title>
<path fill="none" stroke="#4caf50" stroke-width="2" d="M632.71,-657.7C668.55,-657.7 715.84,-657.7 753.54,-657.7"/>
<polygon fill="#4caf50" stroke="#4caf50" stroke-width="2" points="753.9,-661.2 763.9,-657.7 753.9,-654.2 753.9,-661.2"/>
<text text-anchor="middle" x="698.23" y="-674.7" font-family="Arial" font-size="10.00">chunk 1</text>
<text text-anchor="middle" x="698.23" y="-663.7" font-family="Arial" font-size="10.00">(0&#45;500ms)</text>
</g>
<!-- mask2 -->
<g id="node18" class="node">
<title>mask2</title>
<ellipse fill="#66bb6a" stroke="black" stroke-width="3" cx="817" cy="-533.23" rx="53.07" ry="33.47"/>
<text text-anchor="middle" x="817" y="-543.13" font-family="Arial" font-size="12.00" fill="white">Category 2</text>
<text text-anchor="middle" x="817" y="-530.13" font-family="Arial" font-size="12.00" fill="white">act=0.88</text>
<text text-anchor="middle" x="817" y="-517.13" font-family="Arial" font-size="12.00" fill="white">WINNER</text>
</g>
<!-- wm_primacy&#45;&gt;mask2 -->
<g id="edge21" class="edge">
<title>wm_primacy&#45;&gt;mask2</title>
<path fill="none" stroke="#66bb6a" stroke-width="2" d="M622.93,-634.1C663.85,-613.04 724.78,-581.69 767.42,-559.74"/>
<polygon fill="#66bb6a" stroke="#66bb6a" stroke-width="2" points="769.21,-562.76 776.5,-555.07 766.01,-556.54 769.21,-562.76"/>
<text text-anchor="middle" x="746.5" y="-598.47" font-family="Arial" font-size="10.00">chunk 2</text>
<text text-anchor="middle" x="746.5" y="-587.47" font-family="Arial" font-size="10.00">(600&#45;900ms)</text>
</g>
<!-- mask3 -->
<g id="node19" class="node">
<title>mask3</title>
<ellipse fill="#81c784" stroke="black" stroke-width="3" cx="817" cy="-382" rx="53.07" ry="33.47"/>
<text text-anchor="middle" x="817" y="-391.9" font-family="Arial" font-size="12.00">Category 3</text>
<text text-anchor="middle" x="817" y="-378.9" font-family="Arial" font-size="12.00">act=0.82</text>
<text text-anchor="middle" x="817" y="-365.9" font-family="Arial" font-size="12.00">WINNER</text>
</g>
<!-- wm_primacy&#45;&gt;mask3 -->
<g id="edge22" class="edge">
<title>wm_primacy&#45;&gt;mask3</title>
<path fill="none" stroke="#81c784" stroke-width="2" d="M592.89,-634.07C612.67,-602.59 650.92,-544.44 690,-500 717.09,-469.19 751.51,-437.89 777.68,-415.42"/>
<polygon fill="#81c784" stroke="#81c784" stroke-width="2" points="780.18,-417.9 785.52,-408.75 775.64,-412.57 780.18,-417.9"/>
<text text-anchor="middle" x="722.5" y="-536.23" font-family="Arial" font-size="10.00">chunk 3</text>
<text text-anchor="middle" x="722.5" y="-525.23" font-family="Arial" font-size="10.00">(1000&#45;1300ms)</text>
</g>
<!-- mask1&#45;&gt;mask2 -->
<g id="edge18" class="edge">
<title>mask1&#45;&gt;mask2</title>
<path fill="none" stroke="black" d="M817,-624.2C817,-609.81 817,-592.68 817,-577.24"/>
<polygon fill="black" stroke="black" points="820.5,-576.88 817,-566.88 813.5,-576.88 820.5,-576.88"/>
<text text-anchor="middle" x="856.5" y="-592.97" font-family="Arial" font-size="10.00">sequential chunks</text>
</g>
<!-- b1 -->
<g id="node20" class="node">
<title>b1</title>
<polygon fill="#ff9800" stroke="black" stroke-width="2" points="1417,-429 1339,-382 1417,-335 1495,-382 1417,-429"/>
<text text-anchor="middle" x="1417" y="-391.9" font-family="Arial" font-size="12.00">Boundary 1</text>
<text text-anchor="middle" x="1417" y="-378.9" font-family="Arial" font-size="12.00">t=500ms</text>
<text text-anchor="middle" x="1417" y="-365.9" font-family="Arial" font-size="12.00">PLEASE|</text>
</g>
<!-- mask1&#45;&gt;b1 -->
<g id="edge23" class="edge">
<title>mask1&#45;&gt;b1</title>
<path fill="none" stroke="black" d="M866.13,-644.89C960.89,-620.7 1173.38,-559.52 1330,-463 1349.07,-451.25 1367.69,-434.98 1382.78,-420.18"/>
<polygon fill="black" stroke="black" points="1385.3,-422.6 1389.89,-413.05 1380.35,-417.66 1385.3,-422.6"/>
<text text-anchor="middle" x="1266.5" y="-530.73" font-family="Arial" font-size="10.00">emit</text>
</g>
<!-- mask2&#45;&gt;mask3 -->
<g id="edge19" class="edge">
<title>mask2&#45;&gt;mask3</title>
<path fill="none" stroke="black" d="M817,-499.85C817,-478.05 817,-449.07 817,-425.42"/>
<polygon fill="black" stroke="black" points="820.5,-425.32 817,-415.32 813.5,-425.32 820.5,-425.32"/>
<text text-anchor="middle" x="856.5" y="-474" font-family="Arial" font-size="10.00">sequential chunks</text>
</g>
<!-- b2 -->
<g id="node21" class="node">
<title>b2</title>
<polygon fill="#ffb74d" stroke="black" stroke-width="2" points="1243,-429 1165,-382 1243,-335 1321,-382 1243,-429"/>
<text text-anchor="middle" x="1243" y="-391.9" font-family="Arial" font-size="12.00">Boundary 2</text>
<text text-anchor="middle" x="1243" y="-378.9" font-family="Arial" font-size="12.00">t=900ms</text>
<text text-anchor="middle" x="1243" y="-365.9" font-family="Arial" font-size="12.00">SEND|</text>
</g>
<!-- mask2&#45;&gt;b2 -->
<g id="edge24" class="edge">
<title>mask2&#45;&gt;b2</title>
<path fill="none" stroke="black" d="M869.82,-530.16C939.06,-525.54 1062.66,-510.7 1156,-463 1176.26,-452.65 1195.28,-436.26 1210.35,-421"/>
<polygon fill="black" stroke="black" points="1213.02,-423.28 1217.41,-413.64 1207.96,-418.43 1213.02,-423.28"/>
<text text-anchor="middle" x="1148.5" y="-474" font-family="Arial" font-size="10.00">emit</text>
</g>
<!-- b3 -->
<g id="node22" class="node">
<title>b3</title>
<polygon fill="#ffcc80" stroke="black" stroke-width="2" points="1069,-429 991,-382 1069,-335 1147,-382 1069,-429"/>
<text text-anchor="middle" x="1069" y="-391.9" font-family="Arial" font-size="12.00">Boundary 3</text>
<text text-anchor="middle" x="1069" y="-378.9" font-family="Arial" font-size="12.00">t=1300ms</text>
<text text-anchor="middle" x="1069" y="-365.9" font-family="Arial" font-size="12.00">HELP|</text>
</g>
<!-- mask3&#45;&gt;b3 -->
<g id="edge25" class="edge">
<title>mask3&#45;&gt;b3</title>
<path fill="none" stroke="black" d="M870.13,-382C902.08,-382 943.54,-382 980.33,-382"/>
<polygon fill="black" stroke="black" points="980.57,-385.5 990.57,-382 980.57,-378.5 980.57,-385.5"/>
<text text-anchor="middle" x="930.52" y="-388" font-family="Arial" font-size="10.00">emit</text>
</g>
<!-- trans -->
<g id="node23" class="node">
<title>trans</title>
<polygon fill="#e1bee7" stroke="black" points="1495,-264 1361,-264 1361,-217 1495,-217 1495,-264"/>
<text text-anchor="middle" x="1428" y="-250.4" font-family="Arial" font-size="12.00">Transmitter Z(t):</text>
<text text-anchor="middle" x="1428" y="-237.4" font-family="Arial" font-size="12.00">1.0 → 0.3 → 1.0</text>
<text text-anchor="middle" x="1428" y="-224.4" font-family="Arial" font-size="12.00">(depletion &amp; recovery)</text>
</g>
<!-- b1&#45;&gt;trans -->
<g id="edge26" class="edge">
<title>b1&#45;&gt;trans</title>
<path fill="none" stroke="black" stroke-dasharray="5,2" d="M1420.48,-336.86C1422.08,-316.62 1423.94,-293.03 1425.41,-274.38"/>
<polygon fill="black" stroke="black" points="1428.91,-274.55 1426.2,-264.3 1421.93,-274 1428.91,-274.55"/>
<text text-anchor="middle" x="1440.5" y="-309" font-family="Arial" font-size="10.00">depletes</text>
</g>
<!-- chunk1 -->
<g id="node25" class="node">
<title>chunk1</title>
<polygon fill="#81c784" stroke="black" stroke-width="2" points="1336.5,-264 1257.5,-264 1257.5,-217 1336.5,-217 1336.5,-264"/>
<text text-anchor="middle" x="1297" y="-250.4" font-family="Arial" font-size="12.00">CHUNK 1:</text>
<text text-anchor="middle" x="1297" y="-237.4" font-family="Arial" font-size="12.00">[PLEASE]</text>
<text text-anchor="middle" x="1297" y="-224.4" font-family="Arial" font-size="12.00">(word level)</text>
</g>
<!-- b1&#45;&gt;chunk1 -->
<g id="edge32" class="edge">
<title>b1&#45;&gt;chunk1</title>
<path fill="none" stroke="black" d="M1390.67,-350.39C1370.67,-327.14 1343.3,-295.32 1323.31,-272.08"/>
<polygon fill="black" stroke="black" points="1325.74,-269.55 1316.57,-264.25 1320.44,-274.11 1325.74,-269.55"/>
</g>
<!-- chunk2 -->
<g id="node26" class="node">
<title>chunk2</title>
<polygon fill="#81c784" stroke="black" stroke-width="2" points="1239.5,-264 1160.5,-264 1160.5,-217 1239.5,-217 1239.5,-264"/>
<text text-anchor="middle" x="1200" y="-250.4" font-family="Arial" font-size="12.00">CHUNK 2:</text>
<text text-anchor="middle" x="1200" y="-237.4" font-family="Arial" font-size="12.00">[SEND]</text>
<text text-anchor="middle" x="1200" y="-224.4" font-family="Arial" font-size="12.00">(word level)</text>
</g>
<!-- b2&#45;&gt;chunk2 -->
<g id="edge33" class="edge">
<title>b2&#45;&gt;chunk2</title>
<path fill="none" stroke="black" d="M1231.02,-342.14C1224.39,-320.62 1216.24,-294.19 1209.96,-273.81"/>
<polygon fill="black" stroke="black" points="1213.24,-272.58 1206.95,-264.06 1206.55,-274.65 1213.24,-272.58"/>
</g>
<!-- chunk3 -->
<g id="node27" class="node">
<title>chunk3</title>
<polygon fill="#81c784" stroke="black" stroke-width="2" points="1138.5,-264 1059.5,-264 1059.5,-217 1138.5,-217 1138.5,-264"/>
<text text-anchor="middle" x="1099" y="-250.4" font-family="Arial" font-size="12.00">CHUNK 3:</text>
<text text-anchor="middle" x="1099" y="-237.4" font-family="Arial" font-size="12.00">[HELP]</text>
<text text-anchor="middle" x="1099" y="-224.4" font-family="Arial" font-size="12.00">(word level)</text>
</g>
<!-- b3&#45;&gt;chunk3 -->
<g id="edge34" class="edge">
<title>b3&#45;&gt;chunk3</title>
<path fill="none" stroke="black" d="M1077.76,-340.28C1082.27,-319.28 1087.71,-294.01 1091.95,-274.29"/>
<polygon fill="black" stroke="black" points="1095.43,-274.76 1094.11,-264.25 1088.58,-273.29 1095.43,-274.76"/>
</g>
<!-- reset -->
<g id="node24" class="node">
<title>reset</title>
<polygon fill="#ce93d8" stroke="black" points="1525,-164.5 1423,-164.5 1423,-128.5 1525,-128.5 1525,-164.5"/>
<text text-anchor="middle" x="1474" y="-149.9" font-family="Arial" font-size="12.00">Reset Signal</text>
<text text-anchor="middle" x="1474" y="-136.9" font-family="Arial" font-size="12.00">(prevents loops)</text>
</g>
<!-- trans&#45;&gt;reset -->
<g id="edge27" class="edge">
<title>trans&#45;&gt;reset</title>
<path fill="none" stroke="black" d="M1439.37,-216.76C1445.84,-203.83 1453.97,-187.57 1460.72,-174.05"/>
<polygon fill="black" stroke="black" points="1464.02,-175.3 1465.36,-164.79 1457.75,-172.16 1464.02,-175.3"/>
<text text-anchor="middle" x="1468.5" y="-191" font-family="Arial" font-size="10.00">triggers</text>
</g>
<!-- reset&#45;&gt;wm_items -->
<g id="edge28" class="edge">
<title>reset&#45;&gt;wm_items</title>
<path fill="none" stroke="#9c27b0" stroke-dasharray="5,2" d="M1489.77,-164.72C1504.1,-182.21 1523,-210.73 1523,-239.5 1523,-658.7 1523,-658.7 1523,-658.7 1523,-768.58 678.2,-796.92 443.72,-802.67"/>
<polygon fill="#9c27b0" stroke="#9c27b0" points="443.59,-799.17 433.67,-802.91 443.76,-806.17 443.59,-799.17"/>
<text text-anchor="middle" x="1534" y="-474" font-family="Arial" font-size="10.00">clear</text>
</g>
<!-- phrase -->
<g id="node28" class="node">
<title>phrase</title>
<polygon fill="#4caf50" stroke="black" stroke-width="3" points="1272.5,-170 1127.5,-170 1127.5,-123 1272.5,-123 1272.5,-170"/>
<text text-anchor="middle" x="1200" y="-156.4" font-family="Arial" font-size="12.00" fill="white">PHRASE:</text>
<text text-anchor="middle" x="1200" y="-143.4" font-family="Arial" font-size="12.00" fill="white">[PLEASE&#45;SEND&#45;HELP]</text>
<text text-anchor="middle" x="1200" y="-130.4" font-family="Arial" font-size="12.00" fill="white">(sentence level)</text>
</g>
<!-- chunk1&#45;&gt;phrase -->
<g id="edge29" class="edge">
<title>chunk1&#45;&gt;phrase</title>
<path fill="none" stroke="black" d="M1273.02,-216.76C1260.43,-204.82 1244.85,-190.04 1231.31,-177.2"/>
<polygon fill="black" stroke="black" points="1233.7,-174.64 1224.04,-170.3 1228.88,-179.72 1233.7,-174.64"/>
</g>
<!-- chunk2&#45;&gt;phrase -->
<g id="edge30" class="edge">
<title>chunk2&#45;&gt;phrase</title>
<path fill="none" stroke="black" d="M1200,-216.76C1200,-205.81 1200,-192.48 1200,-180.45"/>
<polygon fill="black" stroke="black" points="1203.5,-180.3 1200,-170.3 1196.5,-180.3 1203.5,-180.3"/>
</g>
<!-- chunk3&#45;&gt;phrase -->
<g id="edge31" class="edge">
<title>chunk3&#45;&gt;phrase</title>
<path fill="none" stroke="black" d="M1123.71,-216.99C1136.91,-204.97 1153.34,-190.01 1167.56,-177.05"/>
<polygon fill="black" stroke="black" points="1170.16,-179.41 1175.2,-170.09 1165.45,-174.24 1170.16,-179.41"/>
</g>
<!-- functions -->
<g id="node29" class="node">
<title>functions</title>
<polygon fill="#fff9c4" stroke="black" points="1189.5,-86 1012.5,-86 1012.5,0 1195.5,0 1195.5,-80 1189.5,-86"/>
<polyline fill="none" stroke="black" points="1189.5,-86 1189.5,-80 "/>
<polyline fill="none" stroke="black" points="1195.5,-80 1189.5,-80 "/>
<text text-anchor="middle" x="1104" y="-72.4" font-family="Arial" font-size="12.00">Demonstrates:</text>
<text text-anchor="middle" x="1104" y="-59.4" font-family="Arial" font-size="12.00">• Multi&#45;scale temporal chunking</text>
<text text-anchor="middle" x="1104" y="-46.4" font-family="Arial" font-size="12.00">• Working memory gating</text>
<text text-anchor="middle" x="1104" y="-33.4" font-family="Arial" font-size="12.00">• Automatic segmentation</text>
<text text-anchor="middle" x="1104" y="-20.4" font-family="Arial" font-size="12.00">• Hierarchical structure</text>
<text text-anchor="middle" x="1104" y="-7.4" font-family="Arial" font-size="12.00">• Speech/motor sequences</text>
</g>
<!-- phrase&#45;&gt;functions -->
<g id="edge35" class="edge">
<title>phrase&#45;&gt;functions</title>
<path fill="none" stroke="black" stroke-dasharray="1,5" d="M1178.69,-122.97C1170.43,-114.23 1160.61,-103.85 1150.86,-93.54"/>
<polygon fill="black" stroke="black" points="1153.2,-90.93 1143.79,-86.07 1148.12,-95.74 1153.2,-90.93"/>
</g>
<!-- impl -->
<g id="node30" class="node">
<title>impl</title>
<polygon fill="#ffe082" stroke="black" points="1378,-66.5 1214,-66.5 1214,-62.5 1210,-62.5 1210,-58.5 1214,-58.5 1214,-27.5 1210,-27.5 1210,-23.5 1214,-23.5 1214,-19.5 1378,-19.5 1378,-66.5"/>
<polyline fill="none" stroke="black" points="1214,-62.5 1218,-62.5 1218,-58.5 1214,-58.5 "/>
<polyline fill="none" stroke="black" points="1214,-27.5 1218,-27.5 1218,-23.5 1214,-23.5 "/>
<text text-anchor="middle" x="1296" y="-52.9" font-family="Arial" font-size="12.00">MaskingField.java</text>
<text text-anchor="middle" x="1296" y="-39.9" font-family="Arial" font-size="12.00">+ WorkingMemory.java</text>
<text text-anchor="middle" x="1296" y="-26.9" font-family="Arial" font-size="12.00">+ TransmitterDynamics.java</text>
</g>
<!-- phrase&#45;&gt;impl -->
<g id="edge36" class="edge">
<title>phrase&#45;&gt;impl</title>
<path fill="none" stroke="#ff6f00" stroke-dasharray="1,5" d="M1221.31,-122.97C1234.88,-108.62 1252.64,-89.85 1267.43,-74.21"/>
<polygon fill="#ff6f00" stroke="#ff6f00" points="1270.09,-76.48 1274.42,-66.81 1265.01,-71.67 1270.09,-76.48"/>
</g>
</g>
</svg>
