<?xml version="1.0" encoding="UTF-8" standalone="no"?>
<!DOCTYPE svg PUBLIC "-//W3C//DTD SVG 1.1//EN"
 "http://www.w3.org/Graphics/SVG/1.1/DTD/svg11.dtd">
<!-- Generated by graphviz version 2.46.0 (20210118.1747)
 -->
<!-- Title: MaskingFieldCompetition Pages: 1 -->
<svg width="1221pt" height="857pt"
 viewBox="0.00 0.00 1221.29 857.29" xmlns="http://www.w3.org/2000/svg" xmlns:xlink="http://www.w3.org/1999/xlink">
<g id="graph0" class="graph" transform="scale(1 1) rotate(0) translate(4 853.29)">
<title>MaskingFieldCompetition</title>
<polygon fill="white" stroke="transparent" points="-4,4 -4,-853.29 1217.29,-853.29 1217.29,4 -4,4"/>
<text text-anchor="middle" x="606.65" y="-832.49" font-family="Arial Bold" font-size="16.00">Masking Field Competition Dynamics</text>
<text text-anchor="middle" x="606.65" y="-814.49" font-family="Arial Bold" font-size="16.00">Spatial Winner&#45;Take&#45;All with Mexican Hat Connectivity</text>
<g id="clust1" class="cluster">
<title>cluster_input</title>
<polygon fill="#e3f2fd" stroke="#e3f2fd" points="262.29,-596.29 262.29,-797.29 492.29,-797.29 492.29,-596.29 262.29,-596.29"/>
<text text-anchor="middle" x="377.29" y="-780.49" font-family="Arial Bold" font-size="16.00">Input from Working Memory</text>
</g>
<g id="clust2" class="cluster">
<title>cluster_nodes</title>
<polygon fill="#fff9c4" stroke="#fff9c4" points="294.29,-8 294.29,-551.29 568.29,-551.29 568.29,-8 294.29,-8"/>
<text text-anchor="middle" x="431.29" y="-534.49" font-family="Arial Bold" font-size="16.00">Masking Field Nodes (Categories)</text>
</g>
<g id="clust3" class="cluster">
<title>cluster_mexican</title>
<polygon fill="#c8e6c9" stroke="#c8e6c9" points="18.29,-118.08 18.29,-327.17 286.29,-327.17 286.29,-118.08 18.29,-118.08"/>
<text text-anchor="middle" x="152.29" y="-310.37" font-family="Arial Bold" font-size="16.00">Mexican Hat Lateral Connectivity</text>
</g>
<g id="clust4" class="cluster">
<title>cluster_equations</title>
<polygon fill="#f3e5f5" stroke="#f3e5f5" points="830.29,-596.29 830.29,-797.29 1205.29,-797.29 1205.29,-596.29 830.29,-596.29"/>
<text text-anchor="middle" x="1017.79" y="-780.49" font-family="Arial Bold" font-size="16.00">Competition Equations</text>
</g>
<g id="clust5" class="cluster">
<title>cluster_winner</title>
<polygon fill="#ffe0b2" stroke="#ffe0b2" points="576.29,-362.21 576.29,-690.29 822.29,-690.29 822.29,-362.21 576.29,-362.21"/>
<text text-anchor="middle" x="699.29" y="-673.49" font-family="Arial Bold" font-size="16.00">Winner&#45;Take&#45;All Mechanism</text>
</g>
<!-- wm -->
<g id="node1" class="node">
<title>wm</title>
<polygon fill="#bbdefb" stroke="black" points="429.29,-763.29 319.29,-763.29 319.29,-727.29 429.29,-727.29 429.29,-763.29"/>
<text text-anchor="middle" x="374.29" y="-748.69" font-family="Arial" font-size="12.00">Working Memory</text>
<text text-anchor="middle" x="374.29" y="-735.69" font-family="Arial" font-size="12.00">Activation Pattern</text>
</g>
<!-- primacy -->
<g id="node2" class="node">
<title>primacy</title>
<polygon fill="#90caf9" stroke="black" points="428.79,-640.29 319.79,-640.29 319.79,-604.29 428.79,-604.29 428.79,-640.29"/>
<text text-anchor="middle" x="374.29" y="-625.69" font-family="Arial" font-size="12.00">Primacy Gradient</text>
<text text-anchor="middle" x="374.29" y="-612.69" font-family="Arial" font-size="12.00">Weighted</text>
</g>
<!-- wm&#45;&gt;primacy -->
<g id="edge1" class="edge">
<title>wm&#45;&gt;primacy</title>
<path fill="none" stroke="black" d="M374.29,-727.21C374.29,-707.33 374.29,-674.21 374.29,-650.71"/>
<polygon fill="black" stroke="black" points="377.79,-650.68 374.29,-640.68 370.79,-650.68 377.79,-650.68"/>
<text text-anchor="middle" x="404.79" y="-701.29" font-family="Arial" font-size="10.00">apply gradient</text>
</g>
<!-- node1 -->
<g id="node3" class="node">
<title>node1</title>
<ellipse fill="#ffecb3" stroke="black" cx="520.29" cy="-493.25" rx="39.7" ry="24.08"/>
<text text-anchor="middle" x="520.29" y="-496.65" font-family="Arial" font-size="12.00">Node 1</text>
<text text-anchor="middle" x="520.29" y="-483.65" font-family="Arial" font-size="12.00">act=0.2</text>
</g>
<!-- primacy&#45;&gt;node1 -->
<g id="edge7" class="edge">
<title>primacy&#45;&gt;node1</title>
<path fill="none" stroke="black" stroke-dasharray="1,5" d="M398.97,-604.19C418,-590.61 444.64,-570.73 466.29,-551.29 476.3,-542.31 486.62,-531.78 495.51,-522.23"/>
<polygon fill="black" stroke="black" points="498.12,-524.56 502.31,-514.83 492.97,-519.82 498.12,-524.56"/>
</g>
<!-- node2 -->
<g id="node4" class="node">
<title>node2</title>
<ellipse fill="#fdd835" stroke="black" stroke-width="3" cx="496.29" cy="-388.21" rx="39.7" ry="24.08"/>
<text text-anchor="middle" x="496.29" y="-391.61" font-family="Arial" font-size="12.00">Node 2</text>
<text text-anchor="middle" x="496.29" y="-378.61" font-family="Arial" font-size="12.00">act=0.8</text>
</g>
<!-- primacy&#45;&gt;node2 -->
<g id="edge6" class="edge">
<title>primacy&#45;&gt;node2</title>
<path fill="none" stroke="#4caf50" stroke-width="2" d="M373.88,-604.27C373.89,-573.13 377.56,-505.88 406.29,-459.25 418.94,-438.73 439.9,-421.89 458.42,-409.87"/>
<polygon fill="#4caf50" stroke="#4caf50" stroke-width="2" points="460.36,-412.78 466.99,-404.52 456.66,-406.85 460.36,-412.78"/>
<text text-anchor="middle" x="438.79" y="-490.75" font-family="Arial" font-size="10.00">strongest input</text>
</g>
<!-- node3 -->
<g id="node5" class="node">
<title>node3</title>
<ellipse fill="#fff59d" stroke="black" cx="472.29" cy="-269.12" rx="39.7" ry="24.08"/>
<text text-anchor="middle" x="472.29" y="-272.52" font-family="Arial" font-size="12.00">Node 3</text>
<text text-anchor="middle" x="472.29" y="-259.52" font-family="Arial" font-size="12.00">act=0.3</text>
</g>
<!-- primacy&#45;&gt;node3 -->
<g id="edge8" class="edge">
<title>primacy&#45;&gt;node3</title>
<path fill="none" stroke="black" stroke-dasharray="1,5" d="M368,-604.05C352.05,-557.2 314.74,-425.05 365.29,-335.17 378.78,-311.19 405.09,-295.02 428.24,-284.8"/>
<polygon fill="black" stroke="black" points="429.7,-287.98 437.59,-280.91 427.01,-281.52 429.7,-287.98"/>
</g>
<!-- node5 -->
<g id="node7" class="node">
<title>node5</title>
<ellipse fill="#ffe082" stroke="black" cx="472.29" cy="-40.04" rx="39.7" ry="24.08"/>
<text text-anchor="middle" x="472.29" y="-43.44" font-family="Arial" font-size="12.00">Node 5</text>
<text text-anchor="middle" x="472.29" y="-30.44" font-family="Arial" font-size="12.00">act=0.5</text>
</g>
<!-- primacy&#45;&gt;node5 -->
<g id="edge9" class="edge">
<title>primacy&#45;&gt;node5</title>
<path fill="none" stroke="black" stroke-dasharray="1,5" d="M319.51,-614.31C215.63,-599.53 0.29,-560.85 0.29,-494.25 0.29,-494.25 0.29,-494.25 0.29,-143.08 0.29,-123.41 -0.88,-113.6 14.29,-101.08 75.66,-50.47 316.98,-42.24 422.48,-41.1"/>
<polygon fill="black" stroke="black" points="422.59,-44.6 432.56,-41.01 422.52,-37.6 422.59,-44.6"/>
</g>
<!-- node1&#45;&gt;node2 -->
<!-- node2&#45;&gt;node1 -->
<g id="edge13" class="edge">
<title>node2&#45;&gt;node1</title>
<path fill="none" stroke="#f44336" d="M504,-422.31C506.76,-434.14 509.86,-447.46 512.62,-459.28"/>
<polygon fill="#f44336" stroke="#f44336" points="507.37,-421.31 501.69,-412.37 500.55,-422.9 507.37,-421.31"/>
<polygon fill="#f44336" stroke="#f44336" points="509.29,-460.44 514.97,-469.38 516.11,-458.85 509.29,-460.44"/>
<text text-anchor="middle" x="521.29" y="-433.25" font-family="Arial" font-size="10.00">inhibit</text>
</g>
<!-- node2&#45;&gt;node3 -->
<!-- node2&#45;&gt;node3 -->
<g id="edge14" class="edge">
<title>node2&#45;&gt;node3</title>
<path fill="none" stroke="#f44336" d="M489.51,-354.11C486.24,-338.17 482.33,-319.1 479.07,-303.16"/>
<polygon fill="#f44336" stroke="#f44336" points="486.12,-354.98 491.55,-364.08 492.97,-353.58 486.12,-354.98"/>
<polygon fill="#f44336" stroke="#f44336" points="482.46,-302.3 477.03,-293.21 475.61,-303.71 482.46,-302.3"/>
<text text-anchor="middle" x="500.29" y="-338.17" font-family="Arial" font-size="10.00">inhibit</text>
</g>
<!-- node2&#45;&gt;node5 -->
<g id="edge15" class="edge">
<title>node2&#45;&gt;node5</title>
<path fill="none" stroke="#f44336" d="M508.96,-365.11C512.02,-359.1 515.05,-352.5 517.29,-346.17 520.17,-338.03 520.4,-335.75 521.29,-327.17 531.7,-227.23 555.02,-195.74 521.29,-101.08 516.99,-89 509.1,-77.6 500.89,-68.03"/>
<polygon fill="#f44336" stroke="#f44336" points="503.31,-65.5 493.99,-60.46 498.14,-70.21 503.31,-65.5"/>
<text text-anchor="middle" x="551.29" y="-213.58" font-family="Arial" font-size="10.00">inhibit</text>
</g>
<!-- center -->
<g id="node8" class="node">
<title>center</title>
<ellipse fill="#4caf50" stroke="black" cx="218.29" cy="-269.12" rx="60.21" ry="24.08"/>
<text text-anchor="middle" x="218.29" y="-272.52" font-family="Arial" font-size="12.00" fill="white">Center Node</text>
<text text-anchor="middle" x="218.29" y="-259.52" font-family="Arial" font-size="12.00" fill="white">(winner)</text>
</g>
<!-- node2&#45;&gt;center -->
<g id="edge12" class="edge">
<title>node2&#45;&gt;center</title>
<path fill="none" stroke="#ff6f00" stroke-dasharray="1,5" d="M458.57,-380.76C415.97,-372.47 345.4,-355.63 290.29,-327.17 275.42,-319.48 260.63,-308.5 248.37,-298.23"/>
<polygon fill="#ff6f00" stroke="#ff6f00" points="250.55,-295.49 240.69,-291.62 245.98,-300.8 250.55,-295.49"/>
<text text-anchor="middle" x="368.29" y="-338.17" font-family="Arial" font-size="10.00">becomes winner</text>
</g>
<!-- winner -->
<g id="node15" class="node">
<title>winner</title>
<polygon fill="#ff9800" stroke="black" points="699.29,-527.25 584.29,-493.25 699.29,-459.25 814.29,-493.25 699.29,-527.25"/>
<text text-anchor="middle" x="699.29" y="-496.65" font-family="Arial" font-size="12.00">Winner Selection</text>
<text text-anchor="middle" x="699.29" y="-483.65" font-family="Arial" font-size="12.00">argmax(activation)</text>
</g>
<!-- node2&#45;&gt;winner -->
<g id="edge18" class="edge">
<title>node2&#45;&gt;winner</title>
<path fill="none" stroke="#4caf50" stroke-width="2" d="M525.97,-404.27C558.14,-420.6 610.07,-446.96 648.71,-466.57"/>
<polygon fill="#4caf50" stroke="#4caf50" stroke-width="2" points="647.22,-469.74 657.72,-471.15 650.39,-463.5 647.22,-469.74"/>
<text text-anchor="middle" x="613.29" y="-433.25" font-family="Arial" font-size="10.00">highest</text>
</g>
<!-- node4 -->
<g id="node6" class="node">
<title>node4</title>
<ellipse fill="#fff9c4" stroke="black" cx="472.29" cy="-144.08" rx="39.7" ry="24.08"/>
<text text-anchor="middle" x="472.29" y="-147.48" font-family="Arial" font-size="12.00">Node 4</text>
<text text-anchor="middle" x="472.29" y="-134.48" font-family="Arial" font-size="12.00">act=0.1</text>
</g>
<!-- node3&#45;&gt;node4 -->
<!-- node4&#45;&gt;node5 -->
<!-- near -->
<g id="node9" class="node">
<title>near</title>
<polygon fill="#ffccbc" stroke="black" points="161.79,-162.08 60.79,-162.08 60.79,-126.08 161.79,-126.08 161.79,-162.08"/>
<text text-anchor="middle" x="111.29" y="-147.48" font-family="Arial" font-size="12.00">Near Neighbors</text>
<text text-anchor="middle" x="111.29" y="-134.48" font-family="Arial" font-size="12.00">(distance 1&#45;2)</text>
</g>
<!-- center&#45;&gt;near -->
<g id="edge10" class="edge">
<title>center&#45;&gt;near</title>
<path fill="none" stroke="#f44336" stroke-width="2" d="M191.85,-247.47C184.54,-241.25 176.83,-234.19 170.29,-227.08 154.27,-209.66 138.74,-187.81 127.64,-171.04"/>
<polygon fill="#f44336" stroke="#f44336" stroke-width="2" points="130.34,-168.78 121.95,-162.31 124.48,-172.6 130.34,-168.78"/>
<text text-anchor="middle" x="193.29" y="-219.08" font-family="Arial" font-size="10.00">INHIBIT</text>
<text text-anchor="middle" x="193.29" y="-208.08" font-family="Arial" font-size="10.00">(suppress)</text>
</g>
<!-- far -->
<g id="node10" class="node">
<title>far</title>
<polygon fill="#e0e0e0" stroke="black" points="272.79,-162.08 179.79,-162.08 179.79,-126.08 272.79,-126.08 272.79,-162.08"/>
<text text-anchor="middle" x="226.29" y="-147.48" font-family="Arial" font-size="12.00">Far Neighbors</text>
<text text-anchor="middle" x="226.29" y="-134.48" font-family="Arial" font-size="12.00">(distance 3+)</text>
</g>
<!-- center&#45;&gt;far -->
<g id="edge11" class="edge">
<title>center&#45;&gt;far</title>
<path fill="none" stroke="#4caf50" stroke-dasharray="5,2" d="M219.8,-244.98C221.14,-224.38 223.1,-194.21 224.52,-172.42"/>
<polygon fill="#4caf50" stroke="#4caf50" points="228.03,-172.39 225.18,-162.18 221.04,-171.93 228.03,-172.39"/>
<text text-anchor="middle" x="248.79" y="-219.08" font-family="Arial" font-size="10.00">weak excite</text>
<text text-anchor="middle" x="248.79" y="-208.08" font-family="Arial" font-size="10.00">(cooperate)</text>
</g>
<!-- excite_eq -->
<g id="node11" class="node">
<title>excite_eq</title>
<polygon fill="#c8e6c9" stroke="black" points="1196.79,-763.29 1023.79,-763.29 1023.79,-727.29 1196.79,-727.29 1196.79,-763.29"/>
<text text-anchor="middle" x="1110.29" y="-748.69" font-family="Arial" font-size="12.00">Excitation:</text>
<text text-anchor="middle" x="1110.29" y="-735.69" font-family="Arial" font-size="12.00">w_exc(d) = A·exp(&#45;d²/(2σ_e²))</text>
</g>
<!-- total_eq -->
<g id="node13" class="node">
<title>total_eq</title>
<polygon fill="#e1bee7" stroke="black" points="1081.79,-640.29 950.79,-640.29 950.79,-604.29 1081.79,-604.29 1081.79,-640.29"/>
<text text-anchor="middle" x="1016.29" y="-625.69" font-family="Arial" font-size="12.00">Total:</text>
<text text-anchor="middle" x="1016.29" y="-612.69" font-family="Arial" font-size="12.00">W(d) = w_exc &#45; w_inh</text>
</g>
<!-- excite_eq&#45;&gt;total_eq -->
<g id="edge16" class="edge">
<title>excite_eq&#45;&gt;total_eq</title>
<path fill="none" stroke="black" stroke-dasharray="1,5" d="M1097.03,-727.21C1081.16,-706.79 1054.46,-672.41 1036.14,-648.83"/>
<polygon fill="black" stroke="black" points="1038.7,-646.43 1029.8,-640.68 1033.17,-650.72 1038.7,-646.43"/>
</g>
<!-- inhibit_eq -->
<g id="node12" class="node">
<title>inhibit_eq</title>
<polygon fill="#ffccbc" stroke="black" points="1005.79,-763.29 838.79,-763.29 838.79,-727.29 1005.79,-727.29 1005.79,-763.29"/>
<text text-anchor="middle" x="922.29" y="-748.69" font-family="Arial" font-size="12.00">Inhibition:</text>
<text text-anchor="middle" x="922.29" y="-735.69" font-family="Arial" font-size="12.00">w_inh(d) = B·exp(&#45;d²/(2σ_i²))</text>
</g>
<!-- inhibit_eq&#45;&gt;total_eq -->
<g id="edge17" class="edge">
<title>inhibit_eq&#45;&gt;total_eq</title>
<path fill="none" stroke="black" stroke-dasharray="1,5" d="M935.56,-727.21C951.43,-706.79 978.13,-672.41 996.45,-648.83"/>
<polygon fill="black" stroke="black" points="999.42,-650.72 1002.79,-640.68 993.89,-646.43 999.42,-650.72"/>
</g>
<!-- threshold -->
<g id="node14" class="node">
<title>threshold</title>
<polygon fill="#ffb74d" stroke="black" points="773.01,-656.29 655.74,-656.29 625.58,-588.29 742.85,-588.29 773.01,-656.29"/>
<text text-anchor="middle" x="699.29" y="-625.69" font-family="Arial" font-size="12.00">Threshold</text>
<text text-anchor="middle" x="699.29" y="-612.69" font-family="Arial" font-size="12.00">θ = 0.5</text>
</g>
<!-- threshold&#45;&gt;winner -->
<g id="edge20" class="edge">
<title>threshold&#45;&gt;winner</title>
<path fill="none" stroke="black" stroke-dasharray="5,2" d="M699.29,-588.24C699.29,-572.78 699.29,-554.16 699.29,-537.58"/>
<polygon fill="black" stroke="black" points="702.79,-537.57 699.29,-527.57 695.79,-537.57 702.79,-537.57"/>
<text text-anchor="middle" x="716.79" y="-562.29" font-family="Arial" font-size="10.00">above θ</text>
</g>
<!-- suppress -->
<g id="node16" class="node">
<title>suppress</title>
<polygon fill="#ffccbc" stroke="black" points="691.79,-406.21 584.79,-406.21 584.79,-370.21 691.79,-370.21 691.79,-406.21"/>
<text text-anchor="middle" x="638.29" y="-391.61" font-family="Arial" font-size="12.00">Suppress Losers</text>
<text text-anchor="middle" x="638.29" y="-378.61" font-family="Arial" font-size="12.00">act → 0</text>
</g>
<!-- winner&#45;&gt;suppress -->
<g id="edge19" class="edge">
<title>winner&#45;&gt;suppress</title>
<path fill="none" stroke="black" d="M685.29,-463.09C679.97,-452.56 673.65,-440.71 667.29,-430.25 664.16,-425.09 660.6,-419.72 657.08,-414.63"/>
<polygon fill="black" stroke="black" points="659.9,-412.56 651.26,-406.42 654.19,-416.61 659.9,-412.56"/>
<text text-anchor="middle" x="700.29" y="-433.25" font-family="Arial" font-size="10.00">inhibit others</text>
</g>
<!-- output -->
<g id="node17" class="node">
<title>output</title>
<polygon fill="#81c784" stroke="black" stroke-width="2" points="982.29,-411.71 830.29,-411.71 830.29,-364.71 982.29,-364.71 982.29,-411.71"/>
<text text-anchor="middle" x="906.29" y="-398.11" font-family="Arial" font-size="12.00">Output:</text>
<text text-anchor="middle" x="906.29" y="-385.11" font-family="Arial" font-size="12.00">Chunk Boundary Signal</text>
<text text-anchor="middle" x="906.29" y="-372.11" font-family="Arial" font-size="12.00">(sequence segmentation)</text>
</g>
<!-- winner&#45;&gt;output -->
<g id="edge24" class="edge">
<title>winner&#45;&gt;output</title>
<path fill="none" stroke="#4caf50" stroke-width="2" d="M741.18,-471.4C773.07,-455.53 817.21,-433.55 851.84,-416.32"/>
<polygon fill="#4caf50" stroke="#4caf50" stroke-width="2" points="853.48,-419.41 860.88,-411.82 850.36,-413.14 853.48,-419.41"/>
<text text-anchor="middle" x="830.79" y="-433.25" font-family="Arial" font-size="10.00">emit</text>
</g>
<!-- suppress&#45;&gt;node1 -->
<g id="edge21" class="edge">
<title>suppress&#45;&gt;node1</title>
<path fill="none" stroke="#f44336" stroke-dasharray="1,5" d="M618.46,-406.53C599.67,-422.94 571.21,-447.79 549.77,-466.52"/>
<polygon fill="#f44336" stroke="#f44336" points="547.44,-463.9 542.21,-473.11 552.05,-469.17 547.44,-463.9"/>
</g>
<!-- suppress&#45;&gt;node3 -->
<g id="edge22" class="edge">
<title>suppress&#45;&gt;node3</title>
<path fill="none" stroke="#f44336" stroke-dasharray="1,5" d="M614.16,-370.18C585.6,-350.04 537.88,-316.38 505.76,-293.73"/>
<polygon fill="#f44336" stroke="#f44336" points="507.74,-290.84 497.55,-287.94 503.7,-296.56 507.74,-290.84"/>
</g>
<!-- suppress&#45;&gt;node4 -->
<g id="edge23" class="edge">
<title>suppress&#45;&gt;node4</title>
<path fill="none" stroke="#f44336" stroke-dasharray="1,5" d="M634.57,-370.18C626.36,-335.79 603.95,-256.89 561.29,-205.08 547.78,-188.67 528.63,-174.96 511.55,-164.82"/>
<polygon fill="#f44336" stroke="#f44336" points="513.27,-161.77 502.85,-159.84 509.8,-167.85 513.27,-161.77"/>
</g>
<!-- impl -->
<g id="node18" class="node">
<title>impl</title>
<polygon fill="#ffe082" stroke="black" points="989.79,-287.12 822.79,-287.12 822.79,-283.12 818.79,-283.12 818.79,-279.12 822.79,-279.12 822.79,-259.12 818.79,-259.12 818.79,-255.12 822.79,-255.12 822.79,-251.12 989.79,-251.12 989.79,-287.12"/>
<polyline fill="none" stroke="black" points="822.79,-283.12 826.79,-283.12 826.79,-279.12 822.79,-279.12 "/>
<polyline fill="none" stroke="black" points="822.79,-259.12 826.79,-259.12 826.79,-255.12 822.79,-255.12 "/>
<text text-anchor="middle" x="906.29" y="-272.52" font-family="Arial" font-size="12.00">MaskingField.java</text>
<text text-anchor="middle" x="906.29" y="-259.52" font-family="Arial" font-size="12.00">performSpatialCompetition()</text>
</g>
<!-- output&#45;&gt;impl -->
<g id="edge25" class="edge">
<title>output&#45;&gt;impl</title>
<path fill="none" stroke="#ff6f00" stroke-dasharray="1,5" d="M906.29,-364.63C906.29,-345.48 906.29,-317.95 906.29,-297.53"/>
<polygon fill="#ff6f00" stroke="#ff6f00" points="909.79,-297.31 906.29,-287.31 902.79,-297.31 909.79,-297.31"/>
</g>
<!-- params -->
<g id="node19" class="node">
<title>params</title>
<polygon fill="#e1f5fe" stroke="black" points="1066.79,-187.08 929.79,-187.08 929.79,-101.08 1072.79,-101.08 1072.79,-181.08 1066.79,-187.08"/>
<polyline fill="none" stroke="black" points="1066.79,-187.08 1066.79,-181.08 "/>
<polyline fill="none" stroke="black" points="1072.79,-181.08 1066.79,-181.08 "/>
<text text-anchor="middle" x="1001.29" y="-173.48" font-family="Arial" font-size="12.00">Parameters:</text>
<text text-anchor="middle" x="1001.29" y="-160.48" font-family="Arial" font-size="12.00">• σ_e (excite width): 1.0</text>
<text text-anchor="middle" x="1001.29" y="-147.48" font-family="Arial" font-size="12.00">• σ_i (inhibit width): 3.0</text>
<text text-anchor="middle" x="1001.29" y="-134.48" font-family="Arial" font-size="12.00">• A (excite strength): 2.0</text>
<text text-anchor="middle" x="1001.29" y="-121.48" font-family="Arial" font-size="12.00">• B (inhibit strength): 1.5</text>
<text text-anchor="middle" x="1001.29" y="-108.48" font-family="Arial" font-size="12.00">• θ (threshold): 0.5</text>
</g>
<!-- impl&#45;&gt;params -->
<g id="edge26" class="edge">
<title>impl&#45;&gt;params</title>
<path fill="none" stroke="black" stroke-dasharray="1,5" d="M919.5,-251.02C930.66,-236.57 947.22,-215.11 962.53,-195.29"/>
<polygon fill="black" stroke="black" points="965.43,-197.26 968.77,-187.21 959.89,-192.98 965.43,-197.26"/>
</g>
<!-- functions -->
<g id="node20" class="node">
<title>functions</title>
<polygon fill="#fff9c4" stroke="black" points="905.79,-187.08 710.79,-187.08 710.79,-101.08 911.79,-101.08 911.79,-181.08 905.79,-187.08"/>
<polyline fill="none" stroke="black" points="905.79,-187.08 905.79,-181.08 "/>
<polyline fill="none" stroke="black" points="911.79,-181.08 905.79,-181.08 "/>
<text text-anchor="middle" x="811.29" y="-173.48" font-family="Arial" font-size="12.00">Cognitive Functions:</text>
<text text-anchor="middle" x="811.29" y="-160.48" font-family="Arial" font-size="12.00">• Chunk boundary detection</text>
<text text-anchor="middle" x="811.29" y="-147.48" font-family="Arial" font-size="12.00">• Working memory gating</text>
<text text-anchor="middle" x="811.29" y="-134.48" font-family="Arial" font-size="12.00">• Context&#45;dependent segmentation</text>
<text text-anchor="middle" x="811.29" y="-121.48" font-family="Arial" font-size="12.00">• Temporal credit assignment</text>
<text text-anchor="middle" x="811.29" y="-108.48" font-family="Arial" font-size="12.00">• LIST PARSE mechanism</text>
</g>
<!-- impl&#45;&gt;functions -->
<g id="edge27" class="edge">
<title>impl&#45;&gt;functions</title>
<path fill="none" stroke="black" stroke-dasharray="1,5" d="M893.09,-251.02C881.93,-236.57 865.37,-215.11 850.06,-195.29"/>
<polygon fill="black" stroke="black" points="852.7,-192.98 843.82,-187.21 847.16,-197.26 852.7,-192.98"/>
</g>
</g>
</svg>
