<?xml version="1.0" encoding="UTF-8" standalone="no"?>
<!DOCTYPE svg PUBLIC "-//W3C//DTD SVG 1.1//EN"
 "http://www.w3.org/Graphics/SVG/1.1/DTD/svg11.dtd">
<!-- Generated by graphviz version 2.46.0 (20210118.1747)
 -->
<!-- Title: ShuntingDynamics Pages: 1 -->
<svg width="523pt" height="773pt"
 viewBox="0.00 0.00 522.50 773.33" xmlns="http://www.w3.org/2000/svg" xmlns:xlink="http://www.w3.org/1999/xlink">
<g id="graph0" class="graph" transform="scale(1 1) rotate(0) translate(4 769.33)">
<title>ShuntingDynamics</title>
<polygon fill="white" stroke="transparent" points="-4,4 -4,-769.33 518.5,-769.33 518.5,4 -4,4"/>
<text text-anchor="middle" x="257.25" y="-748.53" font-family="Arial Bold" font-size="16.00">Shunting Dynamics</text>
<text text-anchor="middle" x="257.25" y="-730.53" font-family="Arial Bold" font-size="16.00">Membrane Equation: dx/dt = &#45;A·x + (B &#45; x)·E &#45; (x + C)·I</text>
<g id="clust1" class="cluster">
<title>cluster_equation</title>
<polygon fill="lightgrey" stroke="lightgrey" points="63,-516.33 63,-605.33 459,-605.33 459,-516.33 63,-516.33"/>
<text text-anchor="middle" x="261" y="-588.53" font-family="Arial Bold" font-size="16.00">Components</text>
</g>
<g id="clust2" class="cluster">
<title>cluster_dynamics</title>
<polygon fill="#f0f0f0" stroke="#f0f0f0" points="84,-112 84,-487.33 330,-487.33 330,-112 84,-112"/>
<text text-anchor="middle" x="207" y="-470.53" font-family="Arial Bold" font-size="16.00">Membrane Potential Evolution</text>
</g>
<g id="clust3" class="cluster">
<title>cluster_params</title>
<polygon fill="#e8f5e9" stroke="#e8f5e9" points="8,-624.33 8,-713.33 452,-713.33 452,-624.33 8,-624.33"/>
<text text-anchor="middle" x="230" y="-696.53" font-family="Arial Bold" font-size="16.00">Parameters</text>
</g>
<!-- decay -->
<g id="node1" class="node">
<title>decay</title>
<polygon fill="#ffcccc" stroke="black" points="168.5,-571.33 71.5,-571.33 71.5,-524.33 168.5,-524.33 168.5,-571.33"/>
<text text-anchor="middle" x="120" y="-557.73" font-family="Arial" font-size="12.00">Passive Decay</text>
<text text-anchor="middle" x="120" y="-544.73" font-family="Arial" font-size="12.00">&#45;Ax</text>
<text text-anchor="middle" x="120" y="-531.73" font-family="Arial" font-size="12.00">(decay rate)</text>
</g>
<!-- x_t0 -->
<g id="node4" class="node">
<title>x_t0</title>
<ellipse fill="#fff9c4" stroke="black" cx="155" cy="-429.29" rx="52.15" ry="24.08"/>
<text text-anchor="middle" x="155" y="-432.69" font-family="Arial" font-size="12.00">x(t₀)</text>
<text text-anchor="middle" x="155" y="-419.69" font-family="Arial" font-size="12.00">Initial state</text>
</g>
<!-- decay&#45;&gt;x_t0 -->
<g id="edge1" class="edge">
<title>decay&#45;&gt;x_t0</title>
<path fill="none" stroke="black" stroke-dasharray="5,2" d="M126.83,-524.09C132.05,-506.71 139.31,-482.52 145.16,-463.06"/>
<polygon fill="black" stroke="black" points="148.54,-463.96 148.07,-453.38 141.84,-461.95 148.54,-463.96"/>
<text text-anchor="middle" x="167" y="-498.33" font-family="Arial" font-size="10.00">passive decay</text>
</g>
<!-- excitation -->
<g id="node2" class="node">
<title>excitation</title>
<polygon fill="#ccffcc" stroke="black" points="311,-571.33 187,-571.33 187,-524.33 311,-524.33 311,-571.33"/>
<text text-anchor="middle" x="249" y="-557.73" font-family="Arial" font-size="12.00">Excitatory Input</text>
<text text-anchor="middle" x="249" y="-544.73" font-family="Arial" font-size="12.00">(B&#45;x)E</text>
<text text-anchor="middle" x="249" y="-531.73" font-family="Arial" font-size="12.00">(shunting excitation)</text>
</g>
<!-- x_t1 -->
<g id="node5" class="node">
<title>x_t1</title>
<ellipse fill="#c8e6c9" stroke="black" cx="249" cy="-334.21" rx="67.35" ry="24.08"/>
<text text-anchor="middle" x="249" y="-337.61" font-family="Arial" font-size="12.00">x(t₁)</text>
<text text-anchor="middle" x="249" y="-324.61" font-family="Arial" font-size="12.00">After excitation</text>
</g>
<!-- excitation&#45;&gt;x_t1 -->
<g id="edge2" class="edge">
<title>excitation&#45;&gt;x_t1</title>
<path fill="none" stroke="#4caf50" d="M249,-524.19C249,-486.75 249,-411.81 249,-368.39"/>
<polygon fill="#4caf50" stroke="#4caf50" points="252.5,-368.33 249,-358.33 245.5,-368.33 252.5,-368.33"/>
<text text-anchor="middle" x="261.5" y="-426.79" font-family="Arial" font-size="10.00">E &gt; 0</text>
</g>
<!-- inhibition -->
<g id="node3" class="node">
<title>inhibition</title>
<polygon fill="#ccccff" stroke="black" points="451,-571.33 329,-571.33 329,-524.33 451,-524.33 451,-571.33"/>
<text text-anchor="middle" x="390" y="-557.73" font-family="Arial" font-size="12.00">Inhibitory Input</text>
<text text-anchor="middle" x="390" y="-544.73" font-family="Arial" font-size="12.00">&#45;(x+C)I</text>
<text text-anchor="middle" x="390" y="-531.73" font-family="Arial" font-size="12.00">(shunting inhibition)</text>
</g>
<!-- x_t2 -->
<g id="node6" class="node">
<title>x_t2</title>
<ellipse fill="#bbdefb" stroke="black" cx="254" cy="-239.12" rx="65.52" ry="24.08"/>
<text text-anchor="middle" x="254" y="-242.52" font-family="Arial" font-size="12.00">x(t₂)</text>
<text text-anchor="middle" x="254" y="-229.52" font-family="Arial" font-size="12.00">After inhibition</text>
</g>
<!-- inhibition&#45;&gt;x_t2 -->
<g id="edge3" class="edge">
<title>inhibition&#45;&gt;x_t2</title>
<path fill="none" stroke="#2196f3" d="M387.72,-524.12C382.49,-480.11 366.69,-381.3 325,-310.17 315.71,-294.31 301.91,-279.56 288.94,-267.72"/>
<polygon fill="#2196f3" stroke="#2196f3" points="291.26,-265.1 281.45,-261.1 286.63,-270.35 291.26,-265.1"/>
<text text-anchor="middle" x="368.5" y="-379.25" font-family="Arial" font-size="10.00">I &gt; 0</text>
</g>
<!-- x_t0&#45;&gt;x_t1 -->
<g id="edge4" class="edge">
<title>x_t0&#45;&gt;x_t1</title>
<path fill="none" stroke="black" d="M176.33,-407.17C189.04,-394.59 205.35,-378.43 219.3,-364.61"/>
<polygon fill="black" stroke="black" points="222.13,-366.74 226.77,-357.22 217.21,-361.77 222.13,-366.74"/>
<text text-anchor="middle" x="209" y="-379.25" font-family="Arial" font-size="10.00">Δt</text>
</g>
<!-- x_t1&#45;&gt;x_t2 -->
<g id="edge5" class="edge">
<title>x_t1&#45;&gt;x_t2</title>
<path fill="none" stroke="black" d="M250.26,-309.72C250.85,-298.72 251.57,-285.43 252.21,-273.42"/>
<polygon fill="black" stroke="black" points="255.71,-273.46 252.76,-263.28 248.72,-273.08 255.71,-273.46"/>
<text text-anchor="middle" x="256" y="-284.17" font-family="Arial" font-size="10.00">Δt</text>
</g>
<!-- x_ss -->
<g id="node7" class="node">
<title>x_ss</title>
<ellipse fill="#e1bee7" stroke="black" cx="254" cy="-144.04" rx="58.88" ry="24.08"/>
<text text-anchor="middle" x="254" y="-147.44" font-family="Arial" font-size="12.00">x(∞)</text>
<text text-anchor="middle" x="254" y="-134.44" font-family="Arial" font-size="12.00">Steady state</text>
</g>
<!-- x_t2&#45;&gt;x_ss -->
<g id="edge6" class="edge">
<title>x_t2&#45;&gt;x_ss</title>
<path fill="none" stroke="black" d="M254,-214.64C254,-203.64 254,-190.34 254,-178.33"/>
<polygon fill="black" stroke="black" points="257.5,-178.2 254,-168.2 250.5,-178.2 257.5,-178.2"/>
<text text-anchor="middle" x="277" y="-189.08" font-family="Arial" font-size="10.00">converges</text>
</g>
<!-- impl -->
<g id="node11" class="node">
<title>impl</title>
<polygon fill="#ffe082" stroke="black" points="209.5,-54.5 66.5,-54.5 66.5,-50.5 62.5,-50.5 62.5,-46.5 66.5,-46.5 66.5,-26.5 62.5,-26.5 62.5,-22.5 66.5,-22.5 66.5,-18.5 209.5,-18.5 209.5,-54.5"/>
<polyline fill="none" stroke="black" points="66.5,-50.5 70.5,-50.5 70.5,-46.5 66.5,-46.5 "/>
<polyline fill="none" stroke="black" points="66.5,-26.5 70.5,-26.5 70.5,-22.5 66.5,-22.5 "/>
<text text-anchor="middle" x="138" y="-39.9" font-family="Arial" font-size="12.00">ShuntingDynamics.java</text>
<text text-anchor="middle" x="138" y="-26.9" font-family="Arial" font-size="12.00">update() method</text>
</g>
<!-- x_ss&#45;&gt;impl -->
<g id="edge10" class="edge">
<title>x_ss&#45;&gt;impl</title>
<path fill="none" stroke="#ff6f00" stroke-dasharray="5,2" d="M230.8,-121.94C211.66,-104.52 184.49,-79.8 164.49,-61.6"/>
<polygon fill="#ff6f00" stroke="#ff6f00" points="166.69,-58.87 156.94,-54.73 161.98,-64.05 166.69,-58.87"/>
<text text-anchor="middle" x="231.5" y="-94" font-family="Arial" font-size="10.00">implements</text>
</g>
<!-- properties -->
<g id="node12" class="node">
<title>properties</title>
<polygon fill="#fff59d" stroke="black" points="508.5,-73 227.5,-73 227.5,0 514.5,0 514.5,-67 508.5,-73"/>
<polyline fill="none" stroke="black" points="508.5,-73 508.5,-67 "/>
<polyline fill="none" stroke="black" points="514.5,-67 508.5,-67 "/>
<text text-anchor="middle" x="371" y="-59.4" font-family="Arial" font-size="12.00">Key Properties:</text>
<text text-anchor="middle" x="371" y="-46.4" font-family="Arial" font-size="12.00">• Bounded: x ∈ [0, B]</text>
<text text-anchor="middle" x="371" y="-33.4" font-family="Arial" font-size="12.00">• Shunting: Rate depends on distance from bounds</text>
<text text-anchor="middle" x="371" y="-20.4" font-family="Arial" font-size="12.00">• Automatic gain control</text>
<text text-anchor="middle" x="371" y="-7.4" font-family="Arial" font-size="12.00">• Noise suppression</text>
</g>
<!-- x_ss&#45;&gt;properties -->
<g id="edge11" class="edge">
<title>x_ss&#45;&gt;properties</title>
<path fill="none" stroke="black" stroke-dasharray="1,5" d="M277.4,-121.94C290.69,-109.94 307.83,-94.49 323.79,-80.08"/>
<polygon fill="black" stroke="black" points="326.44,-82.41 331.52,-73.12 321.75,-77.22 326.44,-82.41"/>
</g>
<!-- param_A -->
<g id="node8" class="node">
<title>param_A</title>
<polygon fill="white" stroke="black" points="172,-679.33 16,-679.33 16,-632.33 178,-632.33 178,-673.33 172,-679.33"/>
<polyline fill="none" stroke="black" points="172,-679.33 172,-673.33 "/>
<polyline fill="none" stroke="black" points="178,-673.33 172,-673.33 "/>
<text text-anchor="middle" x="97" y="-665.73" font-family="Arial" font-size="12.00">A: Decay rate</text>
<text text-anchor="middle" x="97" y="-652.73" font-family="Arial" font-size="12.00">(typically 1.0, uniform,</text>
<text text-anchor="middle" x="97" y="-639.73" font-family="Arial" font-size="12.00">can be position&#45;dependent)</text>
</g>
<!-- param_A&#45;&gt;decay -->
<g id="edge7" class="edge">
<title>param_A&#45;&gt;decay</title>
<path fill="none" stroke="black" stroke-dasharray="1,5" d="M101.93,-632.09C105.12,-617.42 109.31,-598.1 112.86,-581.76"/>
<polygon fill="black" stroke="black" points="116.37,-582.05 115.07,-571.54 109.53,-580.57 116.37,-582.05"/>
</g>
<!-- param_B -->
<g id="node9" class="node">
<title>param_B</title>
<polygon fill="white" stroke="black" points="312,-673.83 196,-673.83 196,-637.83 318,-637.83 318,-667.83 312,-673.83"/>
<polyline fill="none" stroke="black" points="312,-673.83 312,-667.83 "/>
<polyline fill="none" stroke="black" points="318,-667.83 312,-667.83 "/>
<text text-anchor="middle" x="257" y="-659.23" font-family="Arial" font-size="12.00">B: Excitation ceiling</text>
<text text-anchor="middle" x="257" y="-646.23" font-family="Arial" font-size="12.00">(typically 1.0)</text>
</g>
<!-- param_B&#45;&gt;excitation -->
<g id="edge8" class="edge">
<title>param_B&#45;&gt;excitation</title>
<path fill="none" stroke="black" stroke-dasharray="1,5" d="M255.71,-637.8C254.57,-622.66 252.87,-600.11 251.47,-581.5"/>
<polygon fill="black" stroke="black" points="254.94,-581.07 250.7,-571.37 247.96,-581.6 254.94,-581.07"/>
</g>
<!-- param_C -->
<g id="node10" class="node">
<title>param_C</title>
<polygon fill="white" stroke="black" points="437.5,-673.83 336.5,-673.83 336.5,-637.83 443.5,-637.83 443.5,-667.83 437.5,-673.83"/>
<polyline fill="none" stroke="black" points="437.5,-673.83 437.5,-667.83 "/>
<polyline fill="none" stroke="black" points="443.5,-667.83 437.5,-667.83 "/>
<text text-anchor="middle" x="390" y="-659.23" font-family="Arial" font-size="12.00">C: Inhibition floor</text>
<text text-anchor="middle" x="390" y="-646.23" font-family="Arial" font-size="12.00">(typically 0.1)</text>
</g>
<!-- param_C&#45;&gt;inhibition -->
<g id="edge9" class="edge">
<title>param_C&#45;&gt;inhibition</title>
<path fill="none" stroke="black" stroke-dasharray="1,5" d="M390,-637.8C390,-622.66 390,-600.11 390,-581.5"/>
<polygon fill="black" stroke="black" points="393.5,-581.37 390,-571.37 386.5,-581.37 393.5,-581.37"/>
</g>
</g>
</svg>
