<?xml version="1.0" encoding="UTF-8" standalone="no"?>
<!DOCTYPE svg PUBLIC "-//W3C//DTD SVG 1.1//EN"
 "http://www.w3.org/Graphics/SVG/1.1/DTD/svg11.dtd">
<!-- Generated by graphviz version 2.46.0 (20210118.1747)
 -->
<!-- Title: TemporalPerformance Pages: 1 -->
<svg width="1113pt" height="548pt"
 viewBox="0.00 0.00 1112.55 548.00" xmlns="http://www.w3.org/2000/svg" xmlns:xlink="http://www.w3.org/1999/xlink">
<g id="graph0" class="graph" transform="scale(1 1) rotate(0) translate(4 544)">
<title>TemporalPerformance</title>
<polygon fill="white" stroke="transparent" points="-4,4 -4,-544 1108.55,-544 1108.55,4 -4,4"/>
<text text-anchor="middle" x="552.27" y="-523.2" font-family="Arial Bold" font-size="16.00">Temporal Module Performance Benchmarks</text>
<text text-anchor="middle" x="552.27" y="-505.2" font-family="Arial Bold" font-size="16.00">Vectorization Speedups (dimension=100, iterations=1000)</text>
<g id="clust1" class="cluster">
<title>cluster_wm</title>
<polygon fill="#e3f2fd" stroke="#e3f2fd" points="8,-300 8,-390 632.8,-390 632.8,-300 8,-300"/>
<text text-anchor="middle" x="320.4" y="-373.2" font-family="Arial Bold" font-size="16.00">Working Memory (STORE 2)</text>
</g>
<g id="clust2" class="cluster">
<title>cluster_shunt</title>
<polygon fill="#fff9c4" stroke="#fff9c4" points="8,-8 8,-98 624.31,-98 624.31,-8 8,-8"/>
<text text-anchor="middle" x="316.16" y="-81.2" font-family="Arial Bold" font-size="16.00">Shunting Dynamics</text>
</g>
<g id="clust3" class="cluster">
<title>cluster_mask</title>
<polygon fill="#f3e5f5" stroke="#f3e5f5" points="8,-398 8,-488 657.55,-488 657.55,-398 8,-398"/>
<text text-anchor="middle" x="332.77" y="-471.2" font-family="Arial Bold" font-size="16.00">Masking Field (LIST PARSE)</text>
</g>
<g id="clust4" class="cluster">
<title>cluster_impl</title>
<polygon fill="#ffe0b2" stroke="#ffe0b2" points="434.77,-106 434.77,-292 650.77,-292 650.77,-106 434.77,-106"/>
<text text-anchor="middle" x="542.77" y="-275.2" font-family="Arial Bold" font-size="16.00">Implementation</text>
</g>
<!-- wm_scalar -->
<g id="node1" class="node">
<title>wm_scalar</title>
<polygon fill="#ffccbc" stroke="black" points="152,-347 16,-347 16,-311 152,-311 152,-347"/>
<text text-anchor="middle" x="84" y="-332.4" font-family="Arial" font-size="12.00">Scalar Implementation</text>
<text text-anchor="middle" x="84" y="-319.4" font-family="Arial" font-size="12.00">34.20 ms/iteration</text>
</g>
<!-- wm_vector -->
<g id="node2" class="node">
<title>wm_vector</title>
<polygon fill="#c8e6c9" stroke="black" points="399,-347 241,-347 241,-311 399,-311 399,-347"/>
<text text-anchor="middle" x="320" y="-332.4" font-family="Arial" font-size="12.00">Vectorized Implementation</text>
<text text-anchor="middle" x="320" y="-319.4" font-family="Arial" font-size="12.00">2.44 ms/iteration</text>
</g>
<!-- wm_scalar&#45;&gt;wm_vector -->
<g id="edge1" class="edge">
<title>wm_scalar&#45;&gt;wm_vector</title>
<path fill="none" stroke="#4caf50" stroke-width="2" d="M152.06,-329C176.5,-329 204.52,-329 230.53,-329"/>
<polygon fill="#4caf50" stroke="#4caf50" stroke-width="2" points="230.78,-332.5 240.78,-329 230.78,-325.5 230.78,-332.5"/>
<text text-anchor="middle" x="196.5" y="-332" font-family="Arial" font-size="10.00">optimization</text>
</g>
<!-- wm_speedup -->
<g id="node3" class="node">
<title>wm_speedup</title>
<ellipse fill="#4caf50" stroke="black" cx="542.77" cy="-332" rx="82.05" ry="24.08"/>
<text text-anchor="middle" x="542.77" y="-335.4" font-family="Arial" font-size="12.00" fill="white">Speedup: 14.0x</text>
<text text-anchor="middle" x="542.77" y="-322.4" font-family="Arial" font-size="12.00" fill="white">⚡ SIMD optimized</text>
</g>
<!-- wm_vector&#45;&gt;wm_speedup -->
<g id="edge2" class="edge">
<title>wm_vector&#45;&gt;wm_speedup</title>
<path fill="none" stroke="black" stroke-dasharray="5,2" d="M399.15,-330.06C415.69,-330.29 433.28,-330.53 450.26,-330.76"/>
<polygon fill="black" stroke="black" points="450.7,-334.26 460.74,-330.9 450.79,-327.26 450.7,-334.26"/>
</g>
<!-- impl_wm -->
<g id="node10" class="node">
<title>impl_wm</title>
<polygon fill="#ffe082" stroke="black" points="635.27,-204 450.27,-204 450.27,-200 446.27,-200 446.27,-196 450.27,-196 450.27,-176 446.27,-176 446.27,-172 450.27,-172 450.27,-168 635.27,-168 635.27,-204"/>
<polyline fill="none" stroke="black" points="450.27,-200 454.27,-200 454.27,-196 450.27,-196 "/>
<polyline fill="none" stroke="black" points="450.27,-176 454.27,-176 454.27,-172 450.27,-172 "/>
<text text-anchor="middle" x="542.77" y="-182.9" font-family="Arial" font-size="12.00">VectorizedWorkingMemory.java</text>
</g>
<!-- wm_vector&#45;&gt;impl_wm -->
<g id="edge7" class="edge">
<title>wm_vector&#45;&gt;impl_wm</title>
<path fill="none" stroke="#ff6f00" stroke-dasharray="1,5" d="M333.8,-310.65C352.81,-284.84 390.98,-238.14 434.77,-213 437.81,-211.25 440.97,-209.62 444.2,-208.09"/>
<polygon fill="#ff6f00" stroke="#ff6f00" points="445.73,-211.24 453.5,-204.05 442.94,-204.82 445.73,-211.24"/>
</g>
<!-- overall -->
<g id="node14" class="node">
<title>overall</title>
<polygon fill="#c8e6c9" stroke="black" stroke-width="2" points="882.55,-392 686.55,-392 686.55,-332 888.55,-332 888.55,-386 882.55,-392"/>
<polyline fill="none" stroke="black" stroke-width="2" points="882.55,-392 882.55,-386 "/>
<polyline fill="none" stroke="black" stroke-width="2" points="888.55,-386 882.55,-386 "/>
<text text-anchor="middle" x="787.55" y="-378.4" font-family="Arial" font-size="12.00">Overall Temporal Module:</text>
<text text-anchor="middle" x="787.55" y="-365.4" font-family="Arial" font-size="12.00">• End&#45;to&#45;end: 8&#45;10x faster</text>
<text text-anchor="middle" x="787.55" y="-352.4" font-family="Arial" font-size="12.00">• Real&#45;time capable: 60Hz</text>
<text text-anchor="middle" x="787.55" y="-339.4" font-family="Arial" font-size="12.00">• Throughput: 100+ sequences/sec</text>
</g>
<!-- wm_speedup&#45;&gt;overall -->
<g id="edge13" class="edge">
<title>wm_speedup&#45;&gt;overall</title>
<path fill="none" stroke="#4caf50" stroke-dasharray="5,2" d="M618.59,-341.25C636.86,-343.5 656.79,-345.97 676.33,-348.38"/>
<polygon fill="#4caf50" stroke="#4caf50" points="676.15,-351.88 686.51,-349.64 677.01,-344.94 676.15,-351.88"/>
</g>
<!-- shunt_scalar -->
<g id="node4" class="node">
<title>shunt_scalar</title>
<polygon fill="#ffccbc" stroke="black" points="152,-62 16,-62 16,-26 152,-26 152,-62"/>
<text text-anchor="middle" x="84" y="-47.4" font-family="Arial" font-size="12.00">Scalar Implementation</text>
<text text-anchor="middle" x="84" y="-34.4" font-family="Arial" font-size="12.00">96.65 ms/iteration</text>
</g>
<!-- shunt_vector -->
<g id="node5" class="node">
<title>shunt_vector</title>
<polygon fill="#fff59d" stroke="black" points="399,-62 241,-62 241,-26 399,-26 399,-62"/>
<text text-anchor="middle" x="320" y="-47.4" font-family="Arial" font-size="12.00">Vectorized Implementation</text>
<text text-anchor="middle" x="320" y="-34.4" font-family="Arial" font-size="12.00">63.20 ms/iteration</text>
</g>
<!-- shunt_scalar&#45;&gt;shunt_vector -->
<g id="edge3" class="edge">
<title>shunt_scalar&#45;&gt;shunt_vector</title>
<path fill="none" stroke="#ffa726" stroke-width="2" d="M152.06,-44C176.5,-44 204.52,-44 230.53,-44"/>
<polygon fill="#ffa726" stroke="#ffa726" stroke-width="2" points="230.78,-47.5 240.78,-44 230.78,-40.5 230.78,-47.5"/>
<text text-anchor="middle" x="196.5" y="-47" font-family="Arial" font-size="10.00">optimization</text>
</g>
<!-- shunt_speedup -->
<g id="node6" class="node">
<title>shunt_speedup</title>
<ellipse fill="#ffb300" stroke="black" cx="542.77" cy="-40" rx="73.58" ry="24.08"/>
<text text-anchor="middle" x="542.77" y="-43.4" font-family="Arial" font-size="12.00">Speedup: 1.53x</text>
<text text-anchor="middle" x="542.77" y="-30.4" font-family="Arial" font-size="12.00">(memory bound)</text>
</g>
<!-- shunt_vector&#45;&gt;shunt_speedup -->
<g id="edge4" class="edge">
<title>shunt_vector&#45;&gt;shunt_speedup</title>
<path fill="none" stroke="black" stroke-dasharray="5,2" d="M399.15,-42.58C418.58,-42.23 439.48,-41.85 459.12,-41.5"/>
<polygon fill="black" stroke="black" points="459.33,-44.99 469.27,-41.31 459.21,-38 459.33,-44.99"/>
</g>
<!-- impl_shunt -->
<g id="node11" class="node">
<title>impl_shunt</title>
<polygon fill="#ffe082" stroke="black" points="642.77,-150 442.77,-150 442.77,-146 438.77,-146 438.77,-142 442.77,-142 442.77,-122 438.77,-122 438.77,-118 442.77,-118 442.77,-114 642.77,-114 642.77,-150"/>
<polyline fill="none" stroke="black" points="442.77,-146 446.77,-146 446.77,-142 442.77,-142 "/>
<polyline fill="none" stroke="black" points="442.77,-122 446.77,-122 446.77,-118 442.77,-118 "/>
<text text-anchor="middle" x="542.77" y="-128.9" font-family="Arial" font-size="12.00">VectorizedShuntingDynamics.java</text>
</g>
<!-- shunt_vector&#45;&gt;impl_shunt -->
<g id="edge8" class="edge">
<title>shunt_vector&#45;&gt;impl_shunt</title>
<path fill="none" stroke="#ff6f00" stroke-dasharray="1,5" d="M352.58,-62.24C374.99,-74.65 406.07,-90.79 434.77,-102 442.87,-105.16 451.43,-108.14 460.04,-110.9"/>
<polygon fill="#ff6f00" stroke="#ff6f00" points="459.17,-114.3 469.76,-113.92 461.25,-107.61 459.17,-114.3"/>
</g>
<!-- mask_scalar -->
<g id="node7" class="node">
<title>mask_scalar</title>
<polygon fill="#ffccbc" stroke="black" points="152,-444 16,-444 16,-408 152,-408 152,-444"/>
<text text-anchor="middle" x="84" y="-429.4" font-family="Arial" font-size="12.00">Scalar Implementation</text>
<text text-anchor="middle" x="84" y="-416.4" font-family="Arial" font-size="12.00">18.50 ms/iteration</text>
</g>
<!-- mask_vector -->
<g id="node8" class="node">
<title>mask_vector</title>
<polygon fill="#c8e6c9" stroke="black" points="399,-444 241,-444 241,-408 399,-408 399,-444"/>
<text text-anchor="middle" x="320" y="-429.4" font-family="Arial" font-size="12.00">Vectorized Implementation</text>
<text text-anchor="middle" x="320" y="-416.4" font-family="Arial" font-size="12.00">3.20 ms/iteration</text>
</g>
<!-- mask_scalar&#45;&gt;mask_vector -->
<g id="edge5" class="edge">
<title>mask_scalar&#45;&gt;mask_vector</title>
<path fill="none" stroke="#4caf50" stroke-width="2" d="M152.06,-426C176.5,-426 204.52,-426 230.53,-426"/>
<polygon fill="#4caf50" stroke="#4caf50" stroke-width="2" points="230.78,-429.5 240.78,-426 230.78,-422.5 230.78,-429.5"/>
<text text-anchor="middle" x="196.5" y="-429" font-family="Arial" font-size="10.00">optimization</text>
</g>
<!-- mask_speedup -->
<g id="node9" class="node">
<title>mask_speedup</title>
<ellipse fill="#66bb6a" stroke="black" cx="542.77" cy="-430" rx="106.55" ry="24.08"/>
<text text-anchor="middle" x="542.77" y="-433.4" font-family="Arial" font-size="12.00" fill="white">Speedup: 5.78x</text>
<text text-anchor="middle" x="542.77" y="-420.4" font-family="Arial" font-size="12.00" fill="white">⚡ Competition optimized</text>
</g>
<!-- mask_vector&#45;&gt;mask_speedup -->
<g id="edge6" class="edge">
<title>mask_vector&#45;&gt;mask_speedup</title>
<path fill="none" stroke="black" stroke-dasharray="5,2" d="M399.15,-427.42C407.89,-427.57 416.93,-427.74 426.01,-427.9"/>
<polygon fill="black" stroke="black" points="426.22,-431.41 436.28,-428.09 426.34,-424.41 426.22,-431.41"/>
</g>
<!-- impl_mask -->
<g id="node12" class="node">
<title>impl_mask</title>
<polygon fill="#ffe082" stroke="black" points="627.77,-258 457.77,-258 457.77,-254 453.77,-254 453.77,-250 457.77,-250 457.77,-230 453.77,-230 453.77,-226 457.77,-226 457.77,-222 627.77,-222 627.77,-258"/>
<polyline fill="none" stroke="black" points="457.77,-254 461.77,-254 461.77,-250 457.77,-250 "/>
<polyline fill="none" stroke="black" points="457.77,-230 461.77,-230 461.77,-226 457.77,-226 "/>
<text text-anchor="middle" x="542.77" y="-236.9" font-family="Arial" font-size="12.00">VectorizedMaskingField.java</text>
</g>
<!-- mask_vector&#45;&gt;impl_mask -->
<g id="edge9" class="edge">
<title>mask_vector&#45;&gt;impl_mask</title>
<path fill="none" stroke="#ff6f00" stroke-dasharray="1,5" d="M380.6,-407.88C387.37,-404.06 393.72,-399.49 399,-394 431.14,-360.58 404.22,-330.88 434.77,-296 447.07,-281.96 463.75,-270.91 480.28,-262.48"/>
<polygon fill="#ff6f00" stroke="#ff6f00" points="481.95,-265.56 489.42,-258.05 478.9,-259.26 481.95,-265.56"/>
</g>
<!-- mask_speedup&#45;&gt;overall -->
<g id="edge14" class="edge">
<title>mask_speedup&#45;&gt;overall</title>
<path fill="none" stroke="#4caf50" stroke-dasharray="5,2" d="M610.43,-411.33C630.94,-405.58 654.09,-399.1 676.7,-392.77"/>
<polygon fill="#4caf50" stroke="#4caf50" points="677.67,-396.13 686.35,-390.06 675.78,-389.39 677.67,-396.13"/>
</g>
<!-- hardware -->
<g id="node13" class="node">
<title>hardware</title>
<polygon fill="#e1f5fe" stroke="black" points="857.55,-222.5 711.55,-222.5 711.55,-149.5 863.55,-149.5 863.55,-216.5 857.55,-222.5"/>
<polyline fill="none" stroke="black" points="857.55,-222.5 857.55,-216.5 "/>
<polyline fill="none" stroke="black" points="863.55,-216.5 857.55,-216.5 "/>
<text text-anchor="middle" x="787.55" y="-208.9" font-family="Arial" font-size="12.00">Hardware:</text>
<text text-anchor="middle" x="787.55" y="-195.9" font-family="Arial" font-size="12.00">• Apple Silicon (M&#45;series)</text>
<text text-anchor="middle" x="787.55" y="-182.9" font-family="Arial" font-size="12.00">• NEON SIMD (128&#45;bit)</text>
<text text-anchor="middle" x="787.55" y="-169.9" font-family="Arial" font-size="12.00">• Java Vector API</text>
<text text-anchor="middle" x="787.55" y="-156.9" font-family="Arial" font-size="12.00">• 4x double lanes</text>
</g>
<!-- impl_wm&#45;&gt;hardware -->
<g id="edge10" class="edge">
<title>impl_wm&#45;&gt;hardware</title>
<path fill="none" stroke="black" stroke-dasharray="1,5" d="M635.56,-186C657.02,-186 679.8,-186 700.98,-186"/>
<polygon fill="black" stroke="black" points="701.23,-189.5 711.23,-186 701.23,-182.5 701.23,-189.5"/>
</g>
<!-- impl_shunt&#45;&gt;hardware -->
<g id="edge11" class="edge">
<title>impl_shunt&#45;&gt;hardware</title>
<path fill="none" stroke="black" stroke-dasharray="1,5" d="M624.95,-150.06C649.42,-155.5 676.35,-161.49 701.1,-166.99"/>
<polygon fill="black" stroke="black" points="700.66,-170.48 711.19,-169.24 702.18,-163.65 700.66,-170.48"/>
</g>
<!-- impl_mask&#45;&gt;hardware -->
<g id="edge12" class="edge">
<title>impl_mask&#45;&gt;hardware</title>
<path fill="none" stroke="black" stroke-dasharray="1,5" d="M624.95,-221.94C649.42,-216.5 676.35,-210.51 701.1,-205.01"/>
<polygon fill="black" stroke="black" points="702.18,-208.35 711.19,-202.76 700.66,-201.52 702.18,-208.35"/>
</g>
<!-- tests -->
<g id="node15" class="node">
<title>tests</title>
<polygon fill="#fff59d" stroke="black" points="1098.55,-392 925.55,-392 925.55,-332 1104.55,-332 1104.55,-386 1098.55,-392"/>
<polyline fill="none" stroke="black" points="1098.55,-392 1098.55,-386 "/>
<polyline fill="none" stroke="black" points="1104.55,-386 1098.55,-386 "/>
<text text-anchor="middle" x="1015.05" y="-378.4" font-family="Arial" font-size="12.00">Test Suite:</text>
<text text-anchor="middle" x="1015.05" y="-365.4" font-family="Arial" font-size="12.00">• 19 test classes</text>
<text text-anchor="middle" x="1015.05" y="-352.4" font-family="Arial" font-size="12.00">• 100% pass rate</text>
<text text-anchor="middle" x="1015.05" y="-339.4" font-family="Arial" font-size="12.00">• Performance regression tests</text>
</g>
<!-- overall&#45;&gt;tests -->
<g id="edge15" class="edge">
<title>overall&#45;&gt;tests</title>
<path fill="none" stroke="black" stroke-dasharray="1,5" d="M888.77,-362C897.56,-362 906.46,-362 915.24,-362"/>
<polygon fill="black" stroke="black" points="915.48,-365.5 925.48,-362 915.48,-358.5 915.48,-365.5"/>
</g>
</g>
</svg>
