<?xml version="1.0" encoding="UTF-8" standalone="no"?>
<!DOCTYPE svg PUBLIC "-//W3C//DTD SVG 1.1//EN"
 "http://www.w3.org/Graphics/SVG/1.1/DTD/svg11.dtd">
<!-- Generated by graphviz version 2.46.0 (20210118.1747)
 -->
<!-- Title: TemporalSequenceFlow Pages: 1 -->
<svg width="1504pt" height="126pt"
 viewBox="0.00 0.00 1503.78 126.00" xmlns="http://www.w3.org/2000/svg" xmlns:xlink="http://www.w3.org/1999/xlink">
<g id="graph0" class="graph" transform="scale(1 1) rotate(0) translate(4 122)">
<title>TemporalSequenceFlow</title>
<polygon fill="white" stroke="transparent" points="-4,4 -4,-122 1499.78,-122 1499.78,4 -4,4"/>
<!-- input -->
<g id="node1" class="node">
<title>input</title>
<ellipse fill="#e3f2fd" stroke="black" stroke-width="3" cx="72.12" cy="-59" rx="72.25" ry="21.43"/>
<text text-anchor="middle" x="72.12" y="-54" font-family="Arial" font-size="20.00">555&#45;1234</text>
</g>
<!-- wm -->
<g id="node2" class="node">
<title>wm</title>
<path fill="#c8e6c9" stroke="black" stroke-width="2" d="M506.25,-118C506.25,-118 335.25,-118 335.25,-118 329.25,-118 323.25,-112 323.25,-106 323.25,-106 323.25,-12 323.25,-12 323.25,-6 329.25,0 335.25,0 335.25,0 506.25,0 506.25,0 512.25,0 518.25,-6 518.25,-12 518.25,-12 518.25,-106 518.25,-106 518.25,-112 512.25,-118 506.25,-118"/>
<text text-anchor="middle" x="420.75" y="-101.2" font-family="Arial" font-size="16.00">Working Memory</text>
<text text-anchor="middle" x="420.75" y="-64.2" font-family="Arial" font-size="16.00">[555] strong</text>
<text text-anchor="middle" x="420.75" y="-46.2" font-family="Arial" font-size="16.00">[1234] weak</text>
<text text-anchor="middle" x="420.75" y="-9.2" font-family="Arial" font-size="16.00">Primacy gradient applied</text>
</g>
<!-- input&#45;&gt;wm -->
<g id="edge1" class="edge">
<title>input&#45;&gt;wm</title>
<path fill="none" stroke="#1976d2" stroke-width="4" d="M144.36,-59C144.36,-59 313.15,-59 313.15,-59"/>
<polygon fill="#1976d2" stroke="#1976d2" stroke-width="4" points="313.15,-62.5 323.15,-59 313.15,-55.5 313.15,-62.5"/>
<text text-anchor="middle" x="233.75" y="-62.8" font-family="Arial" font-size="14.00">store sequence</text>
</g>
<!-- winners -->
<g id="node3" class="node">
<title>winners</title>
<path fill="#ffc107" stroke="black" stroke-width="3" d="M859.25,-118C859.25,-118 686.25,-118 686.25,-118 680.25,-118 674.25,-112 674.25,-106 674.25,-106 674.25,-12 674.25,-12 674.25,-6 680.25,0 686.25,0 686.25,0 859.25,0 859.25,0 865.25,0 871.25,-6 871.25,-12 871.25,-12 871.25,-106 871.25,-106 871.25,-112 865.25,-118 859.25,-118"/>
<text text-anchor="middle" x="772.75" y="-101.2" font-family="Arial" font-size="16.00">Chunk Winners</text>
<text text-anchor="middle" x="772.75" y="-64.2" font-family="Arial" font-size="16.00">[555]</text>
<text text-anchor="middle" x="772.75" y="-46.2" font-family="Arial" font-size="16.00">[1234]</text>
<text text-anchor="middle" x="772.75" y="-9.2" font-family="Arial" font-size="16.00">Optimal 3&#45;4 element size</text>
</g>
<!-- wm&#45;&gt;winners -->
<g id="edge2" class="edge">
<title>wm&#45;&gt;winners</title>
<path fill="none" stroke="#388e3c" stroke-width="4" d="M518.33,-59C518.33,-59 664.06,-59 664.06,-59"/>
<polygon fill="#388e3c" stroke="#388e3c" stroke-width="4" points="664.06,-62.5 674.06,-59 664.06,-55.5 664.06,-62.5"/>
<text text-anchor="middle" x="596.25" y="-77.8" font-family="Arial" font-size="14.00">multi&#45;scale</text>
<text text-anchor="middle" x="596.25" y="-62.8" font-family="Arial" font-size="14.00">competition</text>
</g>
<!-- categories -->
<g id="node4" class="node">
<title>categories</title>
<path fill="#ce93d8" stroke="black" stroke-width="2" d="M1192.25,-99.5C1192.25,-99.5 1046.25,-99.5 1046.25,-99.5 1040.25,-99.5 1034.25,-93.5 1034.25,-87.5 1034.25,-87.5 1034.25,-30.5 1034.25,-30.5 1034.25,-24.5 1040.25,-18.5 1046.25,-18.5 1046.25,-18.5 1192.25,-18.5 1192.25,-18.5 1198.25,-18.5 1204.25,-24.5 1204.25,-30.5 1204.25,-30.5 1204.25,-87.5 1204.25,-87.5 1204.25,-93.5 1198.25,-99.5 1192.25,-99.5"/>
<text text-anchor="middle" x="1119.25" y="-82.7" font-family="Arial" font-size="16.00">Learned Categories</text>
<text text-anchor="middle" x="1119.25" y="-45.7" font-family="Arial" font-size="16.00">Area code pattern</text>
<text text-anchor="middle" x="1119.25" y="-27.7" font-family="Arial" font-size="16.00">Local number pattern</text>
</g>
<!-- winners&#45;&gt;categories -->
<g id="edge3" class="edge">
<title>winners&#45;&gt;categories</title>
<path fill="none" stroke="#7b1fa2" stroke-width="4" d="M871.58,-59C871.58,-59 1024.11,-59 1024.11,-59"/>
<polygon fill="#7b1fa2" stroke="#7b1fa2" stroke-width="4" points="1024.11,-62.5 1034.11,-59 1024.11,-55.5 1024.11,-62.5"/>
<text text-anchor="middle" x="952.75" y="-62.8" font-family="Arial" font-size="14.00">learn chunks</text>
</g>
<!-- output -->
<g id="node5" class="node">
<title>output</title>
<ellipse fill="#e8f5e9" stroke="black" stroke-width="3" cx="1409.52" cy="-59" rx="86.03" ry="21.43"/>
<text text-anchor="middle" x="1409.52" y="-54" font-family="Arial" font-size="20.00">[555] [1234]</text>
</g>
<!-- categories&#45;&gt;output -->
<g id="edge4" class="edge">
<title>categories&#45;&gt;output</title>
<path fill="none" stroke="#2e7d32" stroke-width="4" d="M1204.38,-59C1204.38,-59 1313.13,-59 1313.13,-59"/>
<polygon fill="#2e7d32" stroke="#2e7d32" stroke-width="4" points="1313.13,-62.5 1323.13,-59 1313.13,-55.5 1313.13,-62.5"/>
<text text-anchor="middle" x="1263.75" y="-62.8" font-family="Arial" font-size="14.00">recall</text>
</g>
</g>
</svg>
