<?xml version="1.0" encoding="UTF-8" standalone="no"?>
<!DOCTYPE svg PUBLIC "-//W3C//DTD SVG 1.1//EN"
 "http://www.w3.org/Graphics/SVG/1.1/DTD/svg11.dtd">
<!-- Generated by graphviz version 2.46.0 (20210118.1747)
 -->
<!-- Title: TemporalMultiScale Pages: 1 -->
<svg width="467pt" height="654pt"
 viewBox="0.00 0.00 466.53 653.56" xmlns="http://www.w3.org/2000/svg" xmlns:xlink="http://www.w3.org/1999/xlink">
<g id="graph0" class="graph" transform="scale(1 1) rotate(0) translate(4 649.56)">
<title>TemporalMultiScale</title>
<polygon fill="white" stroke="transparent" points="-4,4 -4,-649.56 462.53,-649.56 462.53,4 -4,4"/>
<!-- input -->
<g id="node1" class="node">
<title>input</title>
<ellipse fill="#e3f2fd" stroke="black" stroke-width="3" cx="226" cy="-611.62" rx="62.87" ry="33.88"/>
<text text-anchor="middle" x="226" y="-617.22" font-family="Arial" font-size="18.00">Temporal</text>
<text text-anchor="middle" x="226" y="-597.22" font-family="Arial" font-size="18.00">Pattern</text>
</g>
<!-- items -->
<g id="node2" class="node">
<title>items</title>
<path fill="#bbdefb" stroke="black" stroke-width="2" d="M304,-476.68C304,-476.68 148,-476.68 148,-476.68 142,-476.68 136,-470.68 136,-464.68 136,-464.68 136,-407.68 136,-407.68 136,-401.68 142,-395.68 148,-395.68 148,-395.68 304,-395.68 304,-395.68 310,-395.68 316,-401.68 316,-407.68 316,-407.68 316,-464.68 316,-464.68 316,-470.68 310,-476.68 304,-476.68"/>
<text text-anchor="middle" x="226" y="-459.88" font-family="Arial" font-size="16.00">Item Scale</text>
<text text-anchor="middle" x="226" y="-422.88" font-family="Arial" font-size="16.00">1&#45;2 elements</text>
<text text-anchor="middle" x="226" y="-404.88" font-family="Arial" font-size="16.00">50&#45;100ms</text>
</g>
<!-- input&#45;&gt;items -->
<g id="edge1" class="edge">
<title>input&#45;&gt;items</title>
<path fill="none" stroke="#1976d2" stroke-width="4" d="M226,-577.37C226,-577.37 226,-486.8 226,-486.8"/>
<polygon fill="#1976d2" stroke="#1976d2" stroke-width="4" points="229.5,-486.8 226,-476.8 222.5,-486.8 229.5,-486.8"/>
<text text-anchor="middle" x="249.5" y="-523.48" font-family="Arial" font-size="14.00">activate</text>
</g>
<!-- chunks -->
<g id="node3" class="node">
<title>chunks</title>
<path fill="#a5d6a7" stroke="black" stroke-width="4" d="M304,-294.68C304,-294.68 148,-294.68 148,-294.68 142,-294.68 136,-288.68 136,-282.68 136,-282.68 136,-225.68 136,-225.68 136,-219.68 142,-213.68 148,-213.68 148,-213.68 304,-213.68 304,-213.68 310,-213.68 316,-219.68 316,-225.68 316,-225.68 316,-282.68 316,-282.68 316,-288.68 310,-294.68 304,-294.68"/>
<text text-anchor="middle" x="226" y="-277.88" font-family="Arial" font-size="16.00">Chunk Scale</text>
<text text-anchor="middle" x="226" y="-240.88" font-family="Arial" font-size="16.00">3&#45;4 elements</text>
<text text-anchor="middle" x="226" y="-222.88" font-family="Arial" font-size="16.00">200&#45;400ms</text>
</g>
<!-- items&#45;&gt;chunks -->
<g id="edge2" class="edge">
<title>items&#45;&gt;chunks</title>
<path fill="none" stroke="#388e3c" stroke-width="4" d="M196,-395.33C196,-395.33 196,-304.88 196,-304.88"/>
<polygon fill="#388e3c" stroke="#388e3c" stroke-width="4" points="199.5,-304.88 196,-294.88 192.5,-304.88 199.5,-304.88"/>
<text text-anchor="middle" x="181" y="-341.48" font-family="Arial" font-size="14.00">excite ↑</text>
</g>
<!-- chunks&#45;&gt;items -->
<g id="edge5" class="edge">
<title>chunks&#45;&gt;items</title>
<path fill="none" stroke="#d32f2f" stroke-width="3" stroke-dasharray="5,2" d="M256,-295.02C256,-295.02 256,-385.47 256,-385.47"/>
<polygon fill="#d32f2f" stroke="#d32f2f" stroke-width="3" points="252.5,-385.47 256,-395.47 259.5,-385.47 252.5,-385.47"/>
<text text-anchor="middle" x="318" y="-341.48" font-family="Arial" font-size="14.00">inhibit ↓</text>
</g>
<!-- lists -->
<g id="node4" class="node">
<title>lists</title>
<path fill="#ef9a9a" stroke="black" stroke-width="2" d="M168,-96.84C168,-96.84 12,-96.84 12,-96.84 6,-96.84 0,-90.84 0,-84.84 0,-84.84 0,-27.84 0,-27.84 0,-21.84 6,-15.84 12,-15.84 12,-15.84 168,-15.84 168,-15.84 174,-15.84 180,-21.84 180,-27.84 180,-27.84 180,-84.84 180,-84.84 180,-90.84 174,-96.84 168,-96.84"/>
<text text-anchor="middle" x="90" y="-80.04" font-family="Arial" font-size="16.00">List Scale</text>
<text text-anchor="middle" x="90" y="-43.04" font-family="Arial" font-size="16.00">5&#45;7 elements</text>
<text text-anchor="middle" x="90" y="-25.04" font-family="Arial" font-size="16.00">500ms&#45;1s</text>
</g>
<!-- chunks&#45;&gt;lists -->
<g id="edge3" class="edge">
<title>chunks&#45;&gt;lists</title>
<path fill="none" stroke="#388e3c" stroke-width="3" d="M150.67,-213.66C150.67,-213.66 150.67,-107.14 150.67,-107.14"/>
<polygon fill="#388e3c" stroke="#388e3c" stroke-width="3" points="154.17,-107.14 150.67,-97.14 147.17,-107.14 154.17,-107.14"/>
<text text-anchor="middle" x="112" y="-159.48" font-family="Arial" font-size="14.00">excite ↑</text>
</g>
<!-- winner -->
<g id="node5" class="node">
<title>winner</title>
<path fill="#ffc107" stroke="black" stroke-width="4" d="M450.79,-65.48C450.79,-65.48 418.55,-103.37 418.55,-103.37 414.67,-107.94 404.78,-112.52 398.78,-112.52 398.78,-112.52 327.22,-112.52 327.22,-112.52 321.22,-112.52 311.33,-107.94 307.45,-103.37 307.45,-103.37 275.21,-65.48 275.21,-65.48 271.33,-60.91 271.33,-51.77 275.21,-47.2 275.21,-47.2 307.45,-9.3 307.45,-9.3 311.33,-4.73 321.22,-0.16 327.22,-0.16 327.22,-0.16 398.78,-0.16 398.78,-0.16 404.78,-0.16 414.67,-4.73 418.55,-9.3 418.55,-9.3 450.79,-47.2 450.79,-47.2 454.67,-51.77 454.67,-60.91 450.79,-65.48"/>
<text text-anchor="middle" x="363" y="-72.44" font-family="Arial" font-size="18.00">Winner</text>
<text text-anchor="middle" x="363" y="-31.44" font-family="Arial" font-size="18.00">Chunk Scale</text>
</g>
<!-- chunks&#45;&gt;winner -->
<g id="edge6" class="edge">
<title>chunks&#45;&gt;winner</title>
<path fill="none" stroke="#f57f17" stroke-width="5" d="M291.73,-213.66C291.73,-213.66 291.73,-94.96 291.73,-94.96"/>
<polygon fill="#f57f17" stroke="#f57f17" stroke-width="5" points="296.11,-94.96 291.73,-84.96 287.36,-94.96 296.11,-94.96"/>
<text text-anchor="middle" x="391" y="-159.48" font-family="Arial" font-size="14.00">strongest</text>
</g>
<!-- lists&#45;&gt;chunks -->
<g id="edge4" class="edge">
<title>lists&#45;&gt;chunks</title>
<path fill="none" stroke="#d32f2f" stroke-width="3" stroke-dasharray="5,2" d="M165.33,-96.85C165.33,-96.85 165.33,-203.38 165.33,-203.38"/>
<polygon fill="#d32f2f" stroke="#d32f2f" stroke-width="3" points="161.83,-203.38 165.33,-213.38 168.83,-203.38 161.83,-203.38"/>
<text text-anchor="middle" x="249" y="-159.48" font-family="Arial" font-size="14.00">inhibit ↓</text>
</g>
</g>
</svg>
