<?xml version="1.0" encoding="UTF-8" standalone="no"?>
<!DOCTYPE svg PUBLIC "-//W3C//DTD SVG 1.1//EN"
 "http://www.w3.org/Graphics/SVG/1.1/DTD/svg11.dtd">
<!-- Generated by graphviz version 2.46.0 (20210118.1747)
 -->
<!-- Title: TemporalArchitecture Pages: 1 -->
<svg width="271pt" height="858pt"
 viewBox="0.00 0.00 271.00 857.76" xmlns="http://www.w3.org/2000/svg" xmlns:xlink="http://www.w3.org/1999/xlink">
<g id="graph0" class="graph" transform="scale(1 1) rotate(0) translate(4 853.76)">
<title>TemporalArchitecture</title>
<polygon fill="white" stroke="transparent" points="-4,4 -4,-853.76 267,-853.76 267,4 -4,4"/>
<!-- input -->
<g id="node1" class="node">
<title>input</title>
<ellipse fill="#e3f2fd" stroke="black" stroke-width="3" cx="131.5" cy="-815.82" rx="67.76" ry="33.88"/>
<text text-anchor="middle" x="131.5" y="-821.42" font-family="Arial" font-size="18.00">Input</text>
<text text-anchor="middle" x="131.5" y="-801.42" font-family="Arial" font-size="18.00">Sequence</text>
</g>
<!-- wm -->
<g id="node2" class="node">
<title>wm</title>
<path fill="#bbdefb" stroke="black" stroke-width="3" d="M210.5,-694.88C210.5,-694.88 52.5,-694.88 52.5,-694.88 46.5,-694.88 40.5,-688.88 40.5,-682.88 40.5,-682.88 40.5,-588.88 40.5,-588.88 40.5,-582.88 46.5,-576.88 52.5,-576.88 52.5,-576.88 210.5,-576.88 210.5,-576.88 216.5,-576.88 222.5,-582.88 222.5,-588.88 222.5,-588.88 222.5,-682.88 222.5,-682.88 222.5,-688.88 216.5,-694.88 210.5,-694.88"/>
<text text-anchor="middle" x="131.5" y="-678.08" font-family="Arial" font-size="16.00">Working Memory</text>
<text text-anchor="middle" x="131.5" y="-641.08" font-family="Arial" font-size="16.00">Store items</text>
<text text-anchor="middle" x="131.5" y="-623.08" font-family="Arial" font-size="16.00">Apply primacy gradient</text>
<text text-anchor="middle" x="131.5" y="-586.08" font-family="Arial" font-size="16.00">10&#45;100ms</text>
</g>
<!-- input&#45;&gt;wm -->
<g id="edge1" class="edge">
<title>input&#45;&gt;wm</title>
<path fill="none" stroke="#1976d2" stroke-width="4" d="M131.5,-781.55C131.5,-781.55 131.5,-705.18 131.5,-705.18"/>
<polygon fill="#1976d2" stroke="#1976d2" stroke-width="4" points="135,-705.18 131.5,-695.18 128,-705.18 135,-705.18"/>
<text text-anchor="middle" x="147" y="-734.68" font-family="Arial" font-size="14.00">store</text>
</g>
<!-- masking -->
<g id="node3" class="node">
<title>masking</title>
<path fill="#a5d6a7" stroke="black" stroke-width="3" d="M251,-474.88C251,-474.88 12,-474.88 12,-474.88 6,-474.88 0,-468.88 0,-462.88 0,-462.88 0,-368.88 0,-368.88 0,-362.88 6,-356.88 12,-356.88 12,-356.88 251,-356.88 251,-356.88 257,-356.88 263,-362.88 263,-368.88 263,-368.88 263,-462.88 263,-462.88 263,-468.88 257,-474.88 251,-474.88"/>
<text text-anchor="middle" x="131.5" y="-458.08" font-family="Arial" font-size="16.00">Multi&#45;Scale Masking</text>
<text text-anchor="middle" x="131.5" y="-421.08" font-family="Arial" font-size="16.00">Item (1&#45;2) • Chunk (3&#45;4) • List (5&#45;7)</text>
<text text-anchor="middle" x="131.5" y="-403.08" font-family="Arial" font-size="16.00">Competition + Winner selection</text>
<text text-anchor="middle" x="131.5" y="-366.08" font-family="Arial" font-size="16.00">200&#45;400ms</text>
</g>
<!-- wm&#45;&gt;masking -->
<g id="edge2" class="edge">
<title>wm&#45;&gt;masking</title>
<path fill="none" stroke="#388e3c" stroke-width="4" d="M131.5,-576.64C131.5,-576.64 131.5,-485.23 131.5,-485.23"/>
<polygon fill="#388e3c" stroke="#388e3c" stroke-width="4" points="135,-485.23 131.5,-475.23 128,-485.23 135,-485.23"/>
<text text-anchor="middle" x="158.5" y="-529.68" font-family="Arial" font-size="14.00">temporal</text>
<text text-anchor="middle" x="158.5" y="-514.68" font-family="Arial" font-size="14.00">pattern</text>
</g>
<!-- categories -->
<g id="node4" class="node">
<title>categories</title>
<path fill="#ce93d8" stroke="black" stroke-width="3" d="M213,-254.88C213,-254.88 50,-254.88 50,-254.88 44,-254.88 38,-248.88 38,-242.88 38,-242.88 38,-166.88 38,-166.88 38,-160.88 44,-154.88 50,-154.88 50,-154.88 213,-154.88 213,-154.88 219,-154.88 225,-160.88 225,-166.88 225,-166.88 225,-242.88 225,-242.88 225,-248.88 219,-254.88 213,-254.88"/>
<text text-anchor="middle" x="131.5" y="-238.08" font-family="Arial" font-size="16.00">Temporal Categories</text>
<text text-anchor="middle" x="131.5" y="-201.08" font-family="Arial" font-size="16.00">Learned chunk patterns</text>
<text text-anchor="middle" x="131.5" y="-164.08" font-family="Arial" font-size="16.00">500ms&#45;1s</text>
</g>
<!-- masking&#45;&gt;categories -->
<g id="edge3" class="edge">
<title>masking&#45;&gt;categories</title>
<path fill="none" stroke="#7b1fa2" stroke-width="4" d="M131.5,-356.83C131.5,-356.83 131.5,-264.99 131.5,-264.99"/>
<polygon fill="#7b1fa2" stroke="#7b1fa2" stroke-width="4" points="135,-264.99 131.5,-254.99 128,-264.99 135,-264.99"/>
<text text-anchor="middle" x="154.5" y="-309.68" font-family="Arial" font-size="14.00">winning</text>
<text text-anchor="middle" x="154.5" y="-294.68" font-family="Arial" font-size="14.00">chunks</text>
</g>
<!-- output -->
<g id="node5" class="node">
<title>output</title>
<ellipse fill="#e8f5e9" stroke="black" stroke-width="3" cx="131.5" cy="-33.94" rx="67.76" ry="33.88"/>
<text text-anchor="middle" x="131.5" y="-39.54" font-family="Arial" font-size="18.00">Chunked</text>
<text text-anchor="middle" x="131.5" y="-19.54" font-family="Arial" font-size="18.00">Sequence</text>
</g>
<!-- categories&#45;&gt;output -->
<g id="edge4" class="edge">
<title>categories&#45;&gt;output</title>
<path fill="none" stroke="#2e7d32" stroke-width="4" d="M131.5,-154.52C131.5,-154.52 131.5,-78 131.5,-78"/>
<polygon fill="#2e7d32" stroke="#2e7d32" stroke-width="4" points="135,-78 131.5,-68 128,-78 135,-78"/>
<text text-anchor="middle" x="148" y="-107.68" font-family="Arial" font-size="14.00">recall</text>
</g>
</g>
</svg>
