<?xml version="1.0" encoding="UTF-8" standalone="no"?>
<!DOCTYPE svg PUBLIC "-//W3C//DTD SVG 1.1//EN"
 "http://www.w3.org/Graphics/SVG/1.1/DTD/svg11.dtd">
<!-- Generated by graphviz version 2.46.0 (20210118.1747)
 -->
<!-- Title: TemporalPrediction Pages: 1 -->
<svg width="1810pt" height="860pt"
 viewBox="0.00 0.00 1809.67 860.00" xmlns="http://www.w3.org/2000/svg" xmlns:xlink="http://www.w3.org/1999/xlink">
<g id="graph0" class="graph" transform="scale(1 1) rotate(0) translate(4 856)">
<title>TemporalPrediction</title>
<polygon fill="white" stroke="transparent" points="-4,4 -4,-856 1805.67,-856 1805.67,4 -4,4"/>
<text text-anchor="middle" x="900.84" y="-835.2" font-family="Arial Bold" font-size="16.00">Temporal Prediction from Learned Chunks</text>
<text text-anchor="middle" x="900.84" y="-817.2" font-family="Arial Bold" font-size="16.00">Sequence Completion and Prediction</text>
<g id="clust1" class="cluster">
<title>cluster_learned</title>
<polygon fill="#e3f2fd" stroke="#e3f2fd" points="201.18,-319 201.18,-604 418.18,-604 418.18,-319 201.18,-319"/>
<text text-anchor="middle" x="309.68" y="-587.2" font-family="Arial Bold" font-size="16.00">Learned Chunk Repertoire</text>
</g>
<g id="clust2" class="cluster">
<title>cluster_input</title>
<polygon fill="#fff9c4" stroke="#fff9c4" points="8,-612 8,-714 372.18,-714 372.18,-612 8,-612"/>
<text text-anchor="middle" x="190.09" y="-697.2" font-family="Arial Bold" font-size="16.00">Partial Input Sequence</text>
</g>
<g id="clust3" class="cluster">
<title>cluster_matching</title>
<polygon fill="#c8e6c9" stroke="#c8e6c9" points="489.09,-362 489.09,-800 800.09,-800 800.09,-362 489.09,-362"/>
<text text-anchor="middle" x="644.59" y="-783.2" font-family="Arial Bold" font-size="16.00">Chunk Activation (Match Computation)</text>
</g>
<g id="clust4" class="cluster">
<title>cluster_prediction</title>
<polygon fill="#ffe0b2" stroke="#ffe0b2" points="594.59,-208 594.59,-316 1005.85,-316 1005.85,-208 594.59,-208"/>
<text text-anchor="middle" x="800.22" y="-299.2" font-family="Arial Bold" font-size="16.00">Prediction Generation</text>
</g>
<g id="clust5" class="cluster">
<title>cluster_verify</title>
<polygon fill="#f3e5f5" stroke="#f3e5f5" points="880.47,-8 880.47,-200 1195.67,-200 1195.67,-8 880.47,-8"/>
<text text-anchor="middle" x="1038.07" y="-183.2" font-family="Arial Bold" font-size="16.00">Prediction Verification</text>
</g>
<g id="clust6" class="cluster">
<title>cluster_learning</title>
<polygon fill="#c8e6c9" stroke="#c8e6c9" points="1269.17,-152 1269.17,-307 1425.17,-307 1425.17,-152 1269.17,-152"/>
<text text-anchor="middle" x="1347.17" y="-290.2" font-family="Arial Bold" font-size="16.00">Adaptive Learning</text>
</g>
<!-- chunk_abc -->
<g id="node1" class="node">
<title>chunk_abc</title>
<polygon fill="#bbdefb" stroke="black" points="350.18,-439.5 268.18,-439.5 268.18,-392.5 350.18,-392.5 350.18,-439.5"/>
<text text-anchor="middle" x="309.18" y="-425.9" font-family="Arial" font-size="12.00">Chunk A:</text>
<text text-anchor="middle" x="309.18" y="-412.9" font-family="Arial" font-size="12.00">[A, B, C]</text>
<text text-anchor="middle" x="309.18" y="-399.9" font-family="Arial" font-size="12.00">weight=0.95</text>
</g>
<!-- match_a -->
<g id="node7" class="node">
<title>match_a</title>
<polygon fill="#4caf50" stroke="black" stroke-width="3" points="644.09,-490 534.09,-430 644.09,-370 754.09,-430 644.09,-490"/>
<text text-anchor="middle" x="644.09" y="-446.4" font-family="Arial" font-size="12.00" fill="white">Match with A:</text>
<text text-anchor="middle" x="644.09" y="-433.4" font-family="Arial" font-size="12.00" fill="white">|[A,B,?] ∩ [A,B,C]|</text>
<text text-anchor="middle" x="644.09" y="-420.4" font-family="Arial" font-size="12.00" fill="white">= 2/3 = 0.67</text>
<text text-anchor="middle" x="644.09" y="-407.4" font-family="Arial" font-size="12.00" fill="white">HIGH</text>
</g>
<!-- chunk_abc&#45;&gt;match_a -->
<g id="edge5" class="edge">
<title>chunk_abc&#45;&gt;match_a</title>
<path fill="none" stroke="black" stroke-dasharray="1,5" d="M350.34,-417.69C394.98,-419.57 469.02,-422.68 531.46,-425.31"/>
<polygon fill="black" stroke="black" points="531.64,-428.82 541.78,-425.74 531.93,-421.82 531.64,-428.82"/>
</g>
<!-- top_down -->
<g id="node11" class="node">
<title>top_down</title>
<polygon fill="#ffb74d" stroke="black" points="685.59,-272.5 602.59,-272.5 602.59,-225.5 685.59,-225.5 685.59,-272.5"/>
<text text-anchor="middle" x="644.09" y="-258.9" font-family="Arial" font-size="12.00">Top&#45;down</text>
<text text-anchor="middle" x="644.09" y="-245.9" font-family="Arial" font-size="12.00">Expectation:</text>
<text text-anchor="middle" x="644.09" y="-232.9" font-family="Arial" font-size="12.00">[A, B, C]</text>
</g>
<!-- chunk_abc&#45;&gt;top_down -->
<g id="edge10" class="edge">
<title>chunk_abc&#45;&gt;top_down</title>
<path fill="none" stroke="#ff6f00" stroke-dasharray="1,5" d="M350.29,-413.57C373.09,-410.12 400.52,-402.15 418.18,-384 439.68,-361.91 414.91,-339.4 436.09,-317 447.14,-305.31 534.95,-279.12 592.6,-262.87"/>
<polygon fill="#ff6f00" stroke="#ff6f00" points="593.59,-266.22 602.28,-260.15 591.7,-259.48 593.59,-266.22"/>
<text text-anchor="middle" x="457.59" y="-320" font-family="Arial" font-size="10.00">weights</text>
</g>
<!-- chunk_def -->
<g id="node2" class="node">
<title>chunk_def</title>
<polygon fill="#90caf9" stroke="black" points="350.18,-569.5 268.18,-569.5 268.18,-522.5 350.18,-522.5 350.18,-569.5"/>
<text text-anchor="middle" x="309.18" y="-555.9" font-family="Arial" font-size="12.00">Chunk D:</text>
<text text-anchor="middle" x="309.18" y="-542.9" font-family="Arial" font-size="12.00">[D, E, F]</text>
<text text-anchor="middle" x="309.18" y="-529.9" font-family="Arial" font-size="12.00">weight=0.88</text>
</g>
<!-- match_d -->
<g id="node8" class="node">
<title>match_d</title>
<polygon fill="#ffccbc" stroke="black" points="644.09,-766 534.09,-706 644.09,-646 754.09,-706 644.09,-766"/>
<text text-anchor="middle" x="644.09" y="-722.4" font-family="Arial" font-size="12.00">Match with D:</text>
<text text-anchor="middle" x="644.09" y="-709.4" font-family="Arial" font-size="12.00">|[A,B,?] ∩ [D,E,F]|</text>
<text text-anchor="middle" x="644.09" y="-696.4" font-family="Arial" font-size="12.00">= 0/3 = 0.0</text>
<text text-anchor="middle" x="644.09" y="-683.4" font-family="Arial" font-size="12.00">NONE</text>
</g>
<!-- chunk_def&#45;&gt;match_d -->
<g id="edge6" class="edge">
<title>chunk_def&#45;&gt;match_d</title>
<path fill="none" stroke="black" stroke-dasharray="1,5" d="M350.21,-540.57C388.69,-537.79 445.78,-540.47 479.09,-574 499.06,-594.12 471.85,-614.49 489.09,-637 505.98,-659.06 531.5,-674.25 556.93,-684.63"/>
<polygon fill="black" stroke="black" points="555.69,-687.9 566.28,-688.23 558.21,-681.37 555.69,-687.9"/>
</g>
<!-- chunk_ghi -->
<g id="node3" class="node">
<title>chunk_ghi</title>
<polygon fill="#64b5f6" stroke="black" points="350.18,-504.5 268.18,-504.5 268.18,-457.5 350.18,-457.5 350.18,-504.5"/>
<text text-anchor="middle" x="309.18" y="-490.9" font-family="Arial" font-size="12.00">Chunk G:</text>
<text text-anchor="middle" x="309.18" y="-477.9" font-family="Arial" font-size="12.00">[G, H, I]</text>
<text text-anchor="middle" x="309.18" y="-464.9" font-family="Arial" font-size="12.00">weight=0.82</text>
</g>
<!-- match_g -->
<g id="node9" class="node">
<title>match_g</title>
<polygon fill="#ffccbc" stroke="black" points="644.09,-628 538.09,-568 644.09,-508 750.09,-568 644.09,-628"/>
<text text-anchor="middle" x="644.09" y="-584.4" font-family="Arial" font-size="12.00">Match with G:</text>
<text text-anchor="middle" x="644.09" y="-571.4" font-family="Arial" font-size="12.00">|[A,B,?] ∩ [G,H,I]|</text>
<text text-anchor="middle" x="644.09" y="-558.4" font-family="Arial" font-size="12.00">= 0/3 = 0.0</text>
<text text-anchor="middle" x="644.09" y="-545.4" font-family="Arial" font-size="12.00">NONE</text>
</g>
<!-- chunk_ghi&#45;&gt;match_g -->
<g id="edge7" class="edge">
<title>chunk_ghi&#45;&gt;match_g</title>
<path fill="none" stroke="black" stroke-dasharray="1,5" d="M350.34,-491.49C402.34,-505.08 494.24,-529.1 561.24,-546.61"/>
<polygon fill="black" stroke="black" points="560.37,-550 570.93,-549.14 562.14,-543.23 560.37,-550"/>
</g>
<!-- chunk_jkl -->
<g id="node4" class="node">
<title>chunk_jkl</title>
<polygon fill="#42a5f5" stroke="black" points="350.18,-374.5 268.18,-374.5 268.18,-327.5 350.18,-327.5 350.18,-374.5"/>
<text text-anchor="middle" x="309.18" y="-360.9" font-family="Arial" font-size="12.00">Chunk J:</text>
<text text-anchor="middle" x="309.18" y="-347.9" font-family="Arial" font-size="12.00">[J, K, L]</text>
<text text-anchor="middle" x="309.18" y="-334.9" font-family="Arial" font-size="12.00">weight=0.75</text>
</g>
<!-- input -->
<g id="node5" class="node">
<title>input</title>
<ellipse fill="#ffd54f" stroke="black" stroke-width="2" cx="79.64" cy="-650" rx="63.78" ry="24.08"/>
<text text-anchor="middle" x="79.64" y="-653.4" font-family="Arial" font-size="12.00">Input: [A, B, ?]</text>
<text text-anchor="middle" x="79.64" y="-640.4" font-family="Arial" font-size="12.00">Incomplete</text>
</g>
<!-- wm_state -->
<g id="node6" class="node">
<title>wm_state</title>
<polygon fill="#ffe082" stroke="black" points="364.18,-680 254.18,-680 254.18,-620 364.18,-620 364.18,-680"/>
<text text-anchor="middle" x="309.18" y="-666.4" font-family="Arial" font-size="12.00">Working Memory:</text>
<text text-anchor="middle" x="309.18" y="-653.4" font-family="Arial" font-size="12.00">A (t=0)</text>
<text text-anchor="middle" x="309.18" y="-640.4" font-family="Arial" font-size="12.00">B (t=1)</text>
<text text-anchor="middle" x="309.18" y="-627.4" font-family="Arial" font-size="12.00">_ (t=2)</text>
</g>
<!-- input&#45;&gt;wm_state -->
<g id="edge1" class="edge">
<title>input&#45;&gt;wm_state</title>
<path fill="none" stroke="black" d="M143.42,-650C174.62,-650 212.27,-650 243.7,-650"/>
<polygon fill="black" stroke="black" points="244.1,-653.5 254.1,-650 244.1,-646.5 244.1,-653.5"/>
<text text-anchor="middle" x="172.28" y="-653" font-family="Arial" font-size="10.00">store</text>
</g>
<!-- wm_state&#45;&gt;match_a -->
<g id="edge2" class="edge">
<title>wm_state&#45;&gt;match_a</title>
<path fill="none" stroke="black" stroke-width="2" d="M364.23,-636.35C382.68,-629.87 402.57,-620.69 418.18,-608 463.03,-571.55 445.17,-536.57 489.09,-499 510.7,-480.51 538.06,-466.12 563.71,-455.38"/>
<polygon fill="black" stroke="black" stroke-width="2" points="565.12,-458.59 573.07,-451.59 562.49,-452.1 565.12,-458.59"/>
<text text-anchor="middle" x="457.59" y="-591" font-family="Arial" font-size="10.00">compare</text>
</g>
<!-- wm_state&#45;&gt;match_d -->
<g id="edge3" class="edge">
<title>wm_state&#45;&gt;match_d</title>
<path fill="none" stroke="black" stroke-dasharray="5,2" d="M364.41,-659.12C414.4,-667.53 489.66,-680.19 549.37,-690.24"/>
<polygon fill="black" stroke="black" points="549.13,-693.74 559.57,-691.95 550.29,-686.84 549.13,-693.74"/>
<text text-anchor="middle" x="457.59" y="-681" font-family="Arial" font-size="10.00">compare</text>
</g>
<!-- wm_state&#45;&gt;match_g -->
<g id="edge4" class="edge">
<title>wm_state&#45;&gt;match_g</title>
<path fill="none" stroke="black" stroke-dasharray="5,2" d="M364.41,-636.64C417.38,-623.6 498.73,-603.56 559.88,-588.49"/>
<polygon fill="black" stroke="black" points="561.03,-591.82 569.9,-586.03 559.36,-585.02 561.03,-591.82"/>
<text text-anchor="middle" x="457.59" y="-621" font-family="Arial" font-size="10.00">compare</text>
</g>
<!-- winner -->
<g id="node10" class="node">
<title>winner</title>
<ellipse fill="#ff9800" stroke="black" stroke-width="3" cx="309.18" cy="-250" rx="79.81" ry="33.47"/>
<text text-anchor="middle" x="309.18" y="-259.9" font-family="Arial" font-size="12.00">Winner&#45;Take&#45;All:</text>
<text text-anchor="middle" x="309.18" y="-246.9" font-family="Arial" font-size="12.00">Chunk A Selected</text>
<text text-anchor="middle" x="309.18" y="-233.9" font-family="Arial" font-size="12.00">(best match)</text>
</g>
<!-- match_a&#45;&gt;winner -->
<g id="edge8" class="edge">
<title>match_a&#45;&gt;winner</title>
<path fill="none" stroke="#4caf50" stroke-width="2" d="M584.85,-402.29C551.77,-383.58 512.42,-355.78 489.09,-320 477.18,-301.75 495.07,-286.81 479.09,-272 466.99,-260.79 433.4,-255.18 399.32,-252.4"/>
<polygon fill="#4caf50" stroke="#4caf50" stroke-width="2" points="399.47,-248.91 389.24,-251.66 398.95,-255.89 399.47,-248.91"/>
<text text-anchor="middle" x="457.59" y="-286" font-family="Arial" font-size="10.00">highest</text>
<text text-anchor="middle" x="457.59" y="-275" font-family="Arial" font-size="10.00">activation</text>
</g>
<!-- winner&#45;&gt;top_down -->
<g id="edge9" class="edge">
<title>winner&#45;&gt;top_down</title>
<path fill="none" stroke="black" stroke-width="2" d="M386.67,-241.54C402.96,-240.06 420.07,-238.76 436.09,-238 489.39,-235.47 550.39,-239.56 592.29,-243.45"/>
<polygon fill="black" stroke="black" stroke-width="2" points="591.96,-246.93 602.24,-244.4 592.62,-239.97 591.96,-246.93"/>
<text text-anchor="middle" x="457.59" y="-241" font-family="Arial" font-size="10.00">activate</text>
</g>
<!-- completion -->
<g id="node12" class="node">
<title>completion</title>
<ellipse fill="#ff9800" stroke="black" stroke-width="3" cx="929.97" cy="-249" rx="67.76" ry="33.47"/>
<text text-anchor="middle" x="929.97" y="-258.9" font-family="Arial" font-size="12.00">Predicted Item:</text>
<text text-anchor="middle" x="929.97" y="-245.9" font-family="Arial" font-size="12.00">C</text>
<text text-anchor="middle" x="929.97" y="-232.9" font-family="Arial" font-size="12.00">(position 3)</text>
</g>
<!-- top_down&#45;&gt;completion -->
<g id="edge11" class="edge">
<title>top_down&#45;&gt;completion</title>
<path fill="none" stroke="#ff6f00" stroke-width="2" d="M685.76,-249C728.97,-249 798.3,-249 851.91,-249"/>
<polygon fill="#ff6f00" stroke="#ff6f00" stroke-width="2" points="852.06,-252.5 862.06,-249 852.06,-245.5 852.06,-252.5"/>
<text text-anchor="middle" x="827.09" y="-263" font-family="Arial" font-size="10.00">extract</text>
<text text-anchor="middle" x="827.09" y="-252" font-family="Arial" font-size="10.00">missing</text>
</g>
<!-- match -->
<g id="node14" class="node">
<title>match</title>
<ellipse fill="#4caf50" stroke="black" cx="1136.76" cy="-133" rx="50.82" ry="33.47"/>
<text text-anchor="middle" x="1136.76" y="-142.9" font-family="Arial" font-size="12.00" fill="white">Match!</text>
<text text-anchor="middle" x="1136.76" y="-129.9" font-family="Arial" font-size="12.00" fill="white">Prediction</text>
<text text-anchor="middle" x="1136.76" y="-116.9" font-family="Arial" font-size="12.00" fill="white">Confirmed</text>
</g>
<!-- completion&#45;&gt;match -->
<g id="edge12" class="edge">
<title>completion&#45;&gt;match</title>
<path fill="none" stroke="#4caf50" stroke-width="2" d="M975.15,-223.97C1008.72,-204.96 1054.79,-178.86 1088.98,-159.5"/>
<polygon fill="#4caf50" stroke="#4caf50" stroke-width="2" points="1090.87,-162.45 1097.85,-154.48 1087.42,-156.36 1090.87,-162.45"/>
<text text-anchor="middle" x="1041.85" y="-200" font-family="Arial" font-size="10.00">if match</text>
</g>
<!-- mismatch -->
<g id="node15" class="node">
<title>mismatch</title>
<ellipse fill="#f44336" stroke="black" cx="1136.76" cy="-49" rx="50.41" ry="33.47"/>
<text text-anchor="middle" x="1136.76" y="-58.9" font-family="Arial" font-size="12.00" fill="white">Mismatch!</text>
<text text-anchor="middle" x="1136.76" y="-45.9" font-family="Arial" font-size="12.00" fill="white">Reset &amp;</text>
<text text-anchor="middle" x="1136.76" y="-32.9" font-family="Arial" font-size="12.00" fill="white">Relearn</text>
</g>
<!-- completion&#45;&gt;mismatch -->
<g id="edge13" class="edge">
<title>completion&#45;&gt;mismatch</title>
<path fill="none" stroke="#f44336" stroke-dasharray="5,2" d="M980.78,-226.94C990.3,-220.73 999.31,-213.12 1005.85,-204 1018.04,-186.99 1005.62,-176.25 1015.85,-158 1036.9,-120.43 1053.8,-119.77 1085.85,-91 1089.4,-87.81 1093.14,-84.53 1096.9,-81.28"/>
<polygon fill="#f44336" stroke="#f44336" points="1099.29,-83.85 1104.61,-74.69 1094.74,-78.53 1099.29,-83.85"/>
<text text-anchor="middle" x="1041.85" y="-161" font-family="Arial" font-size="10.00">if mismatch</text>
</g>
<!-- actual -->
<g id="node13" class="node">
<title>actual</title>
<polygon fill="#e1bee7" stroke="black" points="971.47,-115.5 888.47,-115.5 888.47,-68.5 971.47,-68.5 971.47,-115.5"/>
<text text-anchor="middle" x="929.97" y="-101.9" font-family="Arial" font-size="12.00">Actual Input:</text>
<text text-anchor="middle" x="929.97" y="-88.9" font-family="Arial" font-size="12.00">C arrives</text>
<text text-anchor="middle" x="929.97" y="-75.9" font-family="Arial" font-size="12.00">t=2</text>
</g>
<!-- actual&#45;&gt;match -->
<g id="edge14" class="edge">
<title>actual&#45;&gt;match</title>
<path fill="none" stroke="black" stroke-dasharray="1,5" d="M971.54,-94.22C999.01,-96.34 1035.97,-100.38 1067.85,-108 1072.91,-109.21 1078.12,-110.68 1083.28,-112.3"/>
<polygon fill="black" stroke="black" points="1082.53,-115.74 1093.12,-115.57 1084.73,-109.1 1082.53,-115.74"/>
</g>
<!-- actual&#45;&gt;mismatch -->
<g id="edge15" class="edge">
<title>actual&#45;&gt;mismatch</title>
<path fill="none" stroke="black" stroke-dasharray="1,5" d="M971.92,-83.4C1002.62,-76.95 1045.02,-68.05 1079,-60.92"/>
<polygon fill="black" stroke="black" points="1079.72,-64.34 1088.79,-58.86 1078.28,-57.49 1079.72,-64.34"/>
</g>
<!-- strengthen -->
<g id="node16" class="node">
<title>strengthen</title>
<polygon fill="#81c784" stroke="black" points="1385.67,-272.5 1308.67,-272.5 1308.67,-225.5 1385.67,-225.5 1385.67,-272.5"/>
<text text-anchor="middle" x="1347.17" y="-258.9" font-family="Arial" font-size="12.00">Strengthen</text>
<text text-anchor="middle" x="1347.17" y="-245.9" font-family="Arial" font-size="12.00">Chunk A</text>
<text text-anchor="middle" x="1347.17" y="-232.9" font-family="Arial" font-size="12.00">Δw = +0.05</text>
</g>
<!-- match&#45;&gt;strengthen -->
<g id="edge16" class="edge">
<title>match&#45;&gt;strengthen</title>
<path fill="none" stroke="#4caf50" d="M1171.91,-157.17C1197.87,-174.97 1234.85,-199.07 1269.17,-217 1278.61,-221.93 1288.97,-226.66 1298.95,-230.91"/>
<polygon fill="#4caf50" stroke="#4caf50" points="1297.79,-234.22 1308.36,-234.82 1300.48,-227.75 1297.79,-234.22"/>
<text text-anchor="middle" x="1228.67" y="-209" font-family="Arial" font-size="10.00">resonance</text>
</g>
<!-- continuation -->
<g id="node18" class="node">
<title>continuation</title>
<polygon fill="#fff9c4" stroke="black" points="1403.67,-142.5 1284.67,-142.5 1284.67,-95.5 1409.67,-95.5 1409.67,-136.5 1403.67,-142.5"/>
<polyline fill="none" stroke="black" points="1403.67,-142.5 1403.67,-136.5 "/>
<polyline fill="none" stroke="black" points="1409.67,-136.5 1403.67,-136.5 "/>
<text text-anchor="middle" x="1347.17" y="-128.9" font-family="Arial" font-size="12.00">Continue Predicting:</text>
<text text-anchor="middle" x="1347.17" y="-115.9" font-family="Arial" font-size="12.00">[A, B, C, D?, E?, F?]</text>
<text text-anchor="middle" x="1347.17" y="-102.9" font-family="Arial" font-size="12.00">Multi&#45;step ahead</text>
</g>
<!-- match&#45;&gt;continuation -->
<g id="edge19" class="edge">
<title>match&#45;&gt;continuation</title>
<path fill="none" stroke="black" stroke-dasharray="1,5" d="M1187.42,-129.66C1213.48,-127.91 1245.88,-125.74 1274.61,-123.81"/>
<polygon fill="black" stroke="black" points="1274.85,-127.3 1284.6,-123.14 1274.39,-120.31 1274.85,-127.3"/>
</g>
<!-- weaken -->
<g id="node17" class="node">
<title>weaken</title>
<polygon fill="#ffccbc" stroke="black" points="1387.17,-207.5 1307.17,-207.5 1307.17,-160.5 1387.17,-160.5 1387.17,-207.5"/>
<text text-anchor="middle" x="1347.17" y="-193.9" font-family="Arial" font-size="12.00">Weaken or</text>
<text text-anchor="middle" x="1347.17" y="-180.9" font-family="Arial" font-size="12.00">Create New</text>
<text text-anchor="middle" x="1347.17" y="-167.9" font-family="Arial" font-size="12.00">Chunk</text>
</g>
<!-- mismatch&#45;&gt;weaken -->
<g id="edge17" class="edge">
<title>mismatch&#45;&gt;weaken</title>
<path fill="none" stroke="#f44336" d="M1171.72,-73.06C1179.66,-78.84 1188.02,-85.06 1195.67,-91 1229.21,-117.03 1232.83,-130.05 1269.17,-152 1278.09,-157.39 1288.09,-162.28 1297.84,-166.52"/>
<polygon fill="#f44336" stroke="#f44336" points="1296.51,-169.75 1307.08,-170.39 1299.21,-163.3 1296.51,-169.75"/>
<text text-anchor="middle" x="1228.67" y="-142" font-family="Arial" font-size="10.00">reset</text>
</g>
<!-- strengthen&#45;&gt;chunk_abc -->
<g id="edge18" class="edge">
<title>strengthen&#45;&gt;chunk_abc</title>
<path fill="none" stroke="#4caf50" stroke-dasharray="5,2" d="M1315.25,-272.71C1276.15,-300.26 1205.71,-342 1137.76,-342 643.09,-342 643.09,-342 643.09,-342 574.27,-342 556.13,-342.48 489.09,-358 456.39,-365.57 450.05,-373.45 418.18,-384 399.3,-390.25 378.37,-396.59 360,-401.95"/>
<polygon fill="#4caf50" stroke="#4caf50" points="359.01,-398.6 350.38,-404.75 360.96,-405.32 359.01,-398.6"/>
<text text-anchor="middle" x="929.97" y="-345" font-family="Arial" font-size="10.00">update</text>
</g>
<!-- impl -->
<g id="node19" class="node">
<title>impl</title>
<polygon fill="#ffe082" stroke="black" points="1605.67,-272.5 1461.67,-272.5 1461.67,-268.5 1457.67,-268.5 1457.67,-264.5 1461.67,-264.5 1461.67,-233.5 1457.67,-233.5 1457.67,-229.5 1461.67,-229.5 1461.67,-225.5 1605.67,-225.5 1605.67,-272.5"/>
<polyline fill="none" stroke="black" points="1461.67,-268.5 1465.67,-268.5 1465.67,-264.5 1461.67,-264.5 "/>
<polyline fill="none" stroke="black" points="1461.67,-233.5 1465.67,-233.5 1465.67,-229.5 1461.67,-229.5 "/>
<text text-anchor="middle" x="1533.67" y="-258.9" font-family="Arial" font-size="12.00">ARTLaminarCircuit.java</text>
<text text-anchor="middle" x="1533.67" y="-245.9" font-family="Arial" font-size="12.00">process()</text>
<text text-anchor="middle" x="1533.67" y="-232.9" font-family="Arial" font-size="12.00">(top&#45;down expectation)</text>
</g>
<!-- strengthen&#45;&gt;impl -->
<g id="edge20" class="edge">
<title>strengthen&#45;&gt;impl</title>
<path fill="none" stroke="#ff6f00" stroke-dasharray="1,5" d="M1385.95,-249C1404.87,-249 1428.55,-249 1451.33,-249"/>
<polygon fill="#ff6f00" stroke="#ff6f00" points="1451.37,-252.5 1461.37,-249 1451.37,-245.5 1451.37,-252.5"/>
</g>
<!-- applications -->
<g id="node20" class="node">
<title>applications</title>
<polygon fill="#e1f5fe" stroke="black" points="1795.67,-344 1642.67,-344 1642.67,-258 1801.67,-258 1801.67,-338 1795.67,-344"/>
<polyline fill="none" stroke="black" points="1795.67,-344 1795.67,-338 "/>
<polyline fill="none" stroke="black" points="1801.67,-338 1795.67,-338 "/>
<text text-anchor="middle" x="1722.17" y="-330.4" font-family="Arial" font-size="12.00">Applications:</text>
<text text-anchor="middle" x="1722.17" y="-317.4" font-family="Arial" font-size="12.00">• Speech prediction</text>
<text text-anchor="middle" x="1722.17" y="-304.4" font-family="Arial" font-size="12.00">• Motor sequence planning</text>
<text text-anchor="middle" x="1722.17" y="-291.4" font-family="Arial" font-size="12.00">• Music anticipation</text>
<text text-anchor="middle" x="1722.17" y="-278.4" font-family="Arial" font-size="12.00">• Typing autocomplete</text>
<text text-anchor="middle" x="1722.17" y="-265.4" font-family="Arial" font-size="12.00">• Cognitive forecasting</text>
</g>
<!-- impl&#45;&gt;applications -->
<g id="edge21" class="edge">
<title>impl&#45;&gt;applications</title>
<path fill="none" stroke="black" stroke-dasharray="1,5" d="M1605.71,-268.81C1614.56,-271.27 1623.69,-273.82 1632.75,-276.35"/>
<polygon fill="black" stroke="black" points="1631.98,-279.76 1642.55,-279.08 1633.86,-273.02 1631.98,-279.76"/>
</g>
<!-- properties -->
<g id="node21" class="node">
<title>properties</title>
<polygon fill="#b2dfdb" stroke="black" points="1789.17,-240 1649.17,-240 1649.17,-154 1795.17,-154 1795.17,-234 1789.17,-240"/>
<polyline fill="none" stroke="black" points="1789.17,-240 1789.17,-234 "/>
<polyline fill="none" stroke="black" points="1795.17,-234 1789.17,-234 "/>
<text text-anchor="middle" x="1722.17" y="-226.4" font-family="Arial" font-size="12.00">Properties:</text>
<text text-anchor="middle" x="1722.17" y="-213.4" font-family="Arial" font-size="12.00">• Probabilistic prediction</text>
<text text-anchor="middle" x="1722.17" y="-200.4" font-family="Arial" font-size="12.00">• Context&#45;sensitive</text>
<text text-anchor="middle" x="1722.17" y="-187.4" font-family="Arial" font-size="12.00">• Multi&#45;step lookahead</text>
<text text-anchor="middle" x="1722.17" y="-174.4" font-family="Arial" font-size="12.00">• Error&#45;driven learning</text>
<text text-anchor="middle" x="1722.17" y="-161.4" font-family="Arial" font-size="12.00">• Uncertainty estimation</text>
</g>
<!-- impl&#45;&gt;properties -->
<g id="edge22" class="edge">
<title>impl&#45;&gt;properties</title>
<path fill="none" stroke="black" stroke-dasharray="1,5" d="M1605.71,-229.19C1616.7,-226.13 1628.12,-222.94 1639.33,-219.82"/>
<polygon fill="black" stroke="black" points="1640.4,-223.15 1649.09,-217.1 1638.52,-216.41 1640.4,-223.15"/>
</g>
</g>
</svg>
