<?xml version="1.0" encoding="UTF-8" standalone="no"?>
<!DOCTYPE svg PUBLIC "-//W3C//DTD SVG 1.1//EN"
 "http://www.w3.org/Graphics/SVG/1.1/DTD/svg11.dtd">
<!-- Generated by graphviz version 2.46.0 (20210118.1747)
 -->
<!-- Title: TransmitterHabituation Pages: 1 -->
<svg width="1193pt" height="736pt"
 viewBox="0.00 0.00 1193.00 735.75" xmlns="http://www.w3.org/2000/svg" xmlns:xlink="http://www.w3.org/1999/xlink">
<g id="graph0" class="graph" transform="scale(1 1) rotate(0) translate(4 731.75)">
<title>TransmitterHabituation</title>
<polygon fill="white" stroke="transparent" points="-4,4 -4,-731.75 1189,-731.75 1189,4 -4,4"/>
<text text-anchor="middle" x="592.5" y="-710.95" font-family="Arial Bold" font-size="16.00">Transmitter Habituation Dynamics</text>
<text text-anchor="middle" x="592.5" y="-692.95" font-family="Arial Bold" font-size="16.00">Equation: dZ/dt = ε(1&#45;Z) &#45; Z(λS + μS²)</text>
<g id="clust1" class="cluster">
<title>cluster_equation</title>
<polygon fill="lightgrey" stroke="lightgrey" points="779,-456.67 779,-545.67 1071,-545.67 1071,-456.67 779,-456.67"/>
<text text-anchor="middle" x="925" y="-528.87" font-family="Arial Bold" font-size="16.00">Transmitter Dynamics</text>
</g>
<g id="clust2" class="cluster">
<title>cluster_states</title>
<polygon fill="#f0f0f0" stroke="#f0f0f0" points="174,-238 174,-675.75 401,-675.75 401,-238 174,-238"/>
<text text-anchor="middle" x="287.5" y="-658.95" font-family="Arial Bold" font-size="16.00">Transmitter Level Evolution</text>
</g>
<g id="clust3" class="cluster">
<title>cluster_activity</title>
<polygon fill="#e3f2fd" stroke="#e3f2fd" points="409,-591.71 409,-669.71 765,-669.71 765,-591.71 409,-591.71"/>
<text text-anchor="middle" x="587" y="-652.91" font-family="Arial Bold" font-size="16.00">Synaptic Activity (S)</text>
</g>
<g id="clust4" class="cluster">
<title>cluster_params</title>
<polygon fill="#f3e5f5" stroke="#f3e5f5" points="773,-591.71 773,-669.71 1177,-669.71 1177,-591.71 773,-591.71"/>
<text text-anchor="middle" x="975" y="-652.91" font-family="Arial Bold" font-size="16.00">Parameters</text>
</g>
<!-- recovery -->
<g id="node1" class="node">
<title>recovery</title>
<polygon fill="#c8e6c9" stroke="black" points="1062.5,-511.67 927.5,-511.67 927.5,-464.67 1062.5,-464.67 1062.5,-511.67"/>
<text text-anchor="middle" x="995" y="-498.07" font-family="Arial" font-size="12.00">Recovery Term</text>
<text text-anchor="middle" x="995" y="-485.07" font-family="Arial" font-size="12.00">ε(1&#45;Z)</text>
<text text-anchor="middle" x="995" y="-472.07" font-family="Arial" font-size="12.00">(exponential recovery)</text>
</g>
<!-- z_recover -->
<g id="node6" class="node">
<title>z_recover</title>
<ellipse fill="#66bb6a" stroke="black" cx="332" cy="-270.04" rx="55.31" ry="24.08"/>
<text text-anchor="middle" x="332" y="-273.44" font-family="Arial" font-size="12.00">Z(t₃)</text>
<text text-anchor="middle" x="332" y="-260.44" font-family="Arial" font-size="12.00">Recovering</text>
</g>
<!-- recovery&#45;&gt;z_recover -->
<g id="edge8" class="edge">
<title>recovery&#45;&gt;z_recover</title>
<path fill="none" stroke="black" stroke-dasharray="5,2" d="M939.24,-464.55C932.12,-461.82 924.91,-459.13 918,-456.67 724.42,-387.76 490.55,-317.5 386.49,-286.9"/>
<polygon fill="black" stroke="black" points="387.41,-283.53 376.83,-284.07 385.44,-290.24 387.41,-283.53"/>
</g>
<!-- depletion -->
<g id="node2" class="node">
<title>depletion</title>
<polygon fill="#ffccbc" stroke="black" points="909,-511.67 787,-511.67 787,-464.67 909,-464.67 909,-511.67"/>
<text text-anchor="middle" x="848" y="-498.07" font-family="Arial" font-size="12.00">Depletion Term</text>
<text text-anchor="middle" x="848" y="-485.07" font-family="Arial" font-size="12.00">&#45;Z(λS + μS²)</text>
<text text-anchor="middle" x="848" y="-472.07" font-family="Arial" font-size="12.00">(activity&#45;dependent)</text>
</g>
<!-- z_depleted -->
<g id="node5" class="node">
<title>z_depleted</title>
<ellipse fill="#ef5350" stroke="black" cx="347" cy="-376.12" rx="45.92" ry="24.08"/>
<text text-anchor="middle" x="347" y="-379.52" font-family="Arial" font-size="12.00" fill="white">Z(t₂)</text>
<text text-anchor="middle" x="347" y="-366.52" font-family="Arial" font-size="12.00" fill="white">Depleted</text>
</g>
<!-- depletion&#45;&gt;z_depleted -->
<g id="edge9" class="edge">
<title>depletion&#45;&gt;z_depleted</title>
<path fill="none" stroke="#ff6f00" d="M786.79,-465.78C741.7,-450.69 678.62,-430.96 622,-418.17 546.65,-401.14 458.03,-389.36 402.19,-382.92"/>
<polygon fill="#ff6f00" stroke="#ff6f00" points="402.48,-379.44 392.15,-381.78 401.69,-386.39 402.48,-379.44"/>
</g>
<!-- z_full -->
<g id="node3" class="node">
<title>z_full</title>
<ellipse fill="#4caf50" stroke="black" cx="244" cy="-617.71" rx="59.29" ry="24.08"/>
<text text-anchor="middle" x="244" y="-621.11" font-family="Arial" font-size="12.00" fill="white">Z(0) = 1.0</text>
<text text-anchor="middle" x="244" y="-608.11" font-family="Arial" font-size="12.00" fill="white">Full capacity</text>
</g>
<!-- z_active -->
<g id="node4" class="node">
<title>z_active</title>
<ellipse fill="#fdd835" stroke="black" cx="328" cy="-488.17" rx="65.11" ry="24.08"/>
<text text-anchor="middle" x="328" y="-491.57" font-family="Arial" font-size="12.00">Z(t₁)</text>
<text text-anchor="middle" x="328" y="-478.57" font-family="Arial" font-size="12.00">During activity</text>
</g>
<!-- z_full&#45;&gt;z_active -->
<g id="edge1" class="edge">
<title>z_full&#45;&gt;z_active</title>
<path fill="none" stroke="#ff6f00" d="M258.82,-594.2C272.3,-573.74 292.31,-543.36 307.34,-520.53"/>
<polygon fill="#ff6f00" stroke="#ff6f00" points="310.46,-522.16 313.04,-511.88 304.62,-518.31 310.46,-522.16"/>
<text text-anchor="middle" x="313.5" y="-567.67" font-family="Arial" font-size="10.00">Activity starts</text>
<text text-anchor="middle" x="313.5" y="-556.67" font-family="Arial" font-size="10.00">S &gt; 0</text>
</g>
<!-- timescales -->
<g id="node15" class="node">
<title>timescales</title>
<polygon fill="#e1f5fe" stroke="black" points="160,-518.17 0,-518.17 0,-458.17 166,-458.17 166,-512.17 160,-518.17"/>
<polyline fill="none" stroke="black" points="160,-518.17 160,-512.17 "/>
<polyline fill="none" stroke="black" points="166,-512.17 160,-512.17 "/>
<text text-anchor="middle" x="83" y="-504.57" font-family="Arial" font-size="12.00">Time Scales:</text>
<text text-anchor="middle" x="83" y="-491.57" font-family="Arial" font-size="12.00">• Depletion: 50&#45;200ms</text>
<text text-anchor="middle" x="83" y="-478.57" font-family="Arial" font-size="12.00">• Recovery: 200&#45;500ms</text>
<text text-anchor="middle" x="83" y="-465.57" font-family="Arial" font-size="12.00">• Full recovery: 500&#45;1000ms</text>
</g>
<!-- z_full&#45;&gt;timescales -->
<g id="edge15" class="edge">
<title>z_full&#45;&gt;timescales</title>
<path fill="none" stroke="black" stroke-dasharray="1,5" d="M217.77,-595.93C193.42,-576.64 156.67,-547.52 127.69,-524.57"/>
<polygon fill="black" stroke="black" points="129.75,-521.73 119.74,-518.27 125.4,-527.22 129.75,-521.73"/>
</g>
<!-- z_active&#45;&gt;z_depleted -->
<g id="edge2" class="edge">
<title>z_active&#45;&gt;z_depleted</title>
<path fill="none" stroke="#d32f2f" d="M331.98,-464.1C334.67,-448.55 338.25,-427.78 341.25,-410.44"/>
<polygon fill="#d32f2f" stroke="#d32f2f" points="344.77,-410.61 343.02,-400.16 337.87,-409.42 344.77,-410.61"/>
<text text-anchor="middle" x="366" y="-432.17" font-family="Arial" font-size="10.00">Sustained S</text>
<text text-anchor="middle" x="366" y="-421.17" font-family="Arial" font-size="10.00">Z → 0</text>
</g>
<!-- z_depleted&#45;&gt;z_recover -->
<g id="edge3" class="edge">
<title>z_depleted&#45;&gt;z_recover</title>
<path fill="none" stroke="#388e3c" d="M343.67,-352.03C341.65,-338.01 339.04,-319.89 336.8,-304.35"/>
<polygon fill="#388e3c" stroke="#388e3c" points="340.21,-303.47 335.32,-294.08 333.28,-304.47 340.21,-303.47"/>
<text text-anchor="middle" x="370.5" y="-326.08" font-family="Arial" font-size="10.00">Activity stops</text>
<text text-anchor="middle" x="370.5" y="-315.08" font-family="Arial" font-size="10.00">S → 0</text>
</g>
<!-- z_recover&#45;&gt;z_full -->
<g id="edge4" class="edge">
<title>z_recover&#45;&gt;z_full</title>
<path fill="none" stroke="#4caf50" stroke-dasharray="5,2" d="M319.94,-293.78C311.62,-309.86 300.56,-332.03 292,-352.08 272.58,-397.57 264.09,-408.25 254,-456.67 245.02,-499.76 243.32,-550.68 243.33,-583.31"/>
<polygon fill="#4caf50" stroke="#4caf50" points="239.83,-583.66 243.39,-593.64 246.83,-583.62 239.83,-583.66"/>
<text text-anchor="middle" x="284.5" y="-432.17" font-family="Arial" font-size="10.00">Recovery</text>
<text text-anchor="middle" x="284.5" y="-421.17" font-family="Arial" font-size="10.00">ε(1&#45;Z)</text>
</g>
<!-- impl -->
<g id="node13" class="node">
<title>impl</title>
<polygon fill="#ffe082" stroke="black" points="409.5,-199 254.5,-199 254.5,-195 250.5,-195 250.5,-191 254.5,-191 254.5,-171 250.5,-171 250.5,-167 254.5,-167 254.5,-163 409.5,-163 409.5,-199"/>
<polyline fill="none" stroke="black" points="254.5,-195 258.5,-195 258.5,-191 254.5,-191 "/>
<polyline fill="none" stroke="black" points="254.5,-171 258.5,-171 258.5,-167 254.5,-167 "/>
<text text-anchor="middle" x="332" y="-184.4" font-family="Arial" font-size="12.00">TransmitterDynamics.java</text>
<text text-anchor="middle" x="332" y="-171.4" font-family="Arial" font-size="12.00">update() method</text>
</g>
<!-- z_recover&#45;&gt;impl -->
<g id="edge13" class="edge">
<title>z_recover&#45;&gt;impl</title>
<path fill="none" stroke="#ff6f00" stroke-dasharray="5,2" d="M332,-245.72C332,-234.46 332,-220.88 332,-209.16"/>
<polygon fill="#ff6f00" stroke="#ff6f00" points="335.5,-209.04 332,-199.04 328.5,-209.04 335.5,-209.04"/>
<text text-anchor="middle" x="357.5" y="-220" font-family="Arial" font-size="10.00">implements</text>
</g>
<!-- s_low -->
<g id="node7" class="node">
<title>s_low</title>
<polygon fill="#bbdefb" stroke="black" points="528.5,-635.71 417.5,-635.71 417.5,-599.71 528.5,-599.71 528.5,-635.71"/>
<text text-anchor="middle" x="473" y="-621.11" font-family="Arial" font-size="12.00">S = low</text>
<text text-anchor="middle" x="473" y="-608.11" font-family="Arial" font-size="12.00">Minimal depletion</text>
</g>
<!-- s_low&#45;&gt;z_active -->
<g id="edge5" class="edge">
<title>s_low&#45;&gt;z_active</title>
<path fill="none" stroke="black" stroke-dasharray="1,5" d="M451.15,-599.65C442.03,-592.39 431.39,-583.75 422,-575.67 400.23,-556.93 376.43,-535.01 358.23,-517.93"/>
<polygon fill="black" stroke="black" points="360.47,-515.24 350.79,-510.93 355.67,-520.33 360.47,-515.24"/>
<text text-anchor="middle" x="453.5" y="-562.17" font-family="Arial" font-size="10.00">slow depletion</text>
</g>
<!-- s_high -->
<g id="node8" class="node">
<title>s_high</title>
<polygon fill="#1976d2" stroke="black" points="647.5,-635.71 546.5,-635.71 546.5,-599.71 647.5,-599.71 647.5,-635.71"/>
<text text-anchor="middle" x="597" y="-621.11" font-family="Arial" font-size="12.00" fill="white">S = high</text>
<text text-anchor="middle" x="597" y="-608.11" font-family="Arial" font-size="12.00" fill="white">Rapid depletion</text>
</g>
<!-- s_high&#45;&gt;z_depleted -->
<g id="edge6" class="edge">
<title>s_high&#45;&gt;z_depleted</title>
<path fill="none" stroke="black" stroke-dasharray="1,5" d="M580.18,-599.6C539.05,-557.83 434.04,-451.61 397,-418.17 391.44,-413.15 385.39,-407.96 379.47,-403.03"/>
<polygon fill="black" stroke="black" points="381.49,-400.16 371.55,-396.51 377.04,-405.56 381.49,-400.16"/>
<text text-anchor="middle" x="555.5" y="-485.67" font-family="Arial" font-size="10.00">fast depletion</text>
</g>
<!-- s_sustained -->
<g id="node9" class="node">
<title>s_sustained</title>
<polygon fill="#0d47a1" stroke="black" points="756.5,-635.71 665.5,-635.71 665.5,-599.71 756.5,-599.71 756.5,-635.71"/>
<text text-anchor="middle" x="711" y="-621.11" font-family="Arial" font-size="12.00" fill="white">S = sustained</text>
<text text-anchor="middle" x="711" y="-608.11" font-family="Arial" font-size="12.00" fill="white">Perseveration</text>
</g>
<!-- s_sustained&#45;&gt;z_depleted -->
<g id="edge7" class="edge">
<title>s_sustained&#45;&gt;z_depleted</title>
<path fill="none" stroke="#d32f2f" d="M702.12,-599.53C684.41,-566.94 641.6,-495.9 586,-456.67 529.72,-416.96 452.23,-396 400.93,-385.75"/>
<polygon fill="#d32f2f" stroke="#d32f2f" points="401.51,-382.3 391.03,-383.84 400.18,-389.18 401.51,-382.3"/>
<text text-anchor="middle" x="707.5" y="-485.67" font-family="Arial" font-size="10.00">prevents recovery</text>
</g>
<!-- param_eps -->
<g id="node10" class="node">
<title>param_eps</title>
<polygon fill="white" stroke="black" points="1163,-635.71 1067,-635.71 1067,-599.71 1169,-599.71 1169,-629.71 1163,-635.71"/>
<polyline fill="none" stroke="black" points="1163,-635.71 1163,-629.71 "/>
<polyline fill="none" stroke="black" points="1169,-629.71 1163,-629.71 "/>
<text text-anchor="middle" x="1118" y="-621.11" font-family="Arial" font-size="12.00">ε: Recovery rate</text>
<text text-anchor="middle" x="1118" y="-608.11" font-family="Arial" font-size="12.00">(0.01 &#45; 0.1)</text>
</g>
<!-- param_eps&#45;&gt;recovery -->
<g id="edge10" class="edge">
<title>param_eps&#45;&gt;recovery</title>
<path fill="none" stroke="black" stroke-dasharray="1,5" d="M1101.41,-599.51C1081.56,-578.93 1047.99,-544.12 1023.86,-519.09"/>
<polygon fill="black" stroke="black" points="1026.16,-516.44 1016.7,-511.67 1021.12,-521.3 1026.16,-516.44"/>
</g>
<!-- param_lambda -->
<g id="node11" class="node">
<title>param_lambda</title>
<polygon fill="white" stroke="black" points="1042.5,-635.71 933.5,-635.71 933.5,-599.71 1048.5,-599.71 1048.5,-629.71 1042.5,-635.71"/>
<polyline fill="none" stroke="black" points="1042.5,-635.71 1042.5,-629.71 "/>
<polyline fill="none" stroke="black" points="1048.5,-629.71 1042.5,-629.71 "/>
<text text-anchor="middle" x="991" y="-621.11" font-family="Arial" font-size="12.00">λ: Linear depletion</text>
<text text-anchor="middle" x="991" y="-608.11" font-family="Arial" font-size="12.00">(0.5 &#45; 2.0)</text>
</g>
<!-- param_lambda&#45;&gt;depletion -->
<g id="edge11" class="edge">
<title>param_lambda&#45;&gt;depletion</title>
<path fill="none" stroke="black" stroke-dasharray="1,5" d="M971.71,-599.51C948.44,-578.75 908.93,-543.51 880.83,-518.45"/>
<polygon fill="black" stroke="black" points="883.02,-515.71 873.23,-511.67 878.36,-520.94 883.02,-515.71"/>
</g>
<!-- param_mu -->
<g id="node12" class="node">
<title>param_mu</title>
<polygon fill="white" stroke="black" points="909,-635.71 781,-635.71 781,-599.71 915,-599.71 915,-629.71 909,-635.71"/>
<polyline fill="none" stroke="black" points="909,-635.71 909,-629.71 "/>
<polyline fill="none" stroke="black" points="915,-629.71 909,-629.71 "/>
<text text-anchor="middle" x="848" y="-621.11" font-family="Arial" font-size="12.00">μ: Quadratic depletion</text>
<text text-anchor="middle" x="848" y="-608.11" font-family="Arial" font-size="12.00">(0.1 &#45; 1.0)</text>
</g>
<!-- param_mu&#45;&gt;depletion -->
<g id="edge12" class="edge">
<title>param_mu&#45;&gt;depletion</title>
<path fill="none" stroke="black" stroke-dasharray="1,5" d="M848,-599.51C848,-579.64 848,-546.5 848,-521.72"/>
<polygon fill="black" stroke="black" points="851.5,-521.67 848,-511.67 844.5,-521.67 851.5,-521.67"/>
</g>
<!-- functions -->
<g id="node14" class="node">
<title>functions</title>
<polygon fill="#fff9c4" stroke="black" points="417,-126 241,-126 241,0 423,0 423,-120 417,-126"/>
<polyline fill="none" stroke="black" points="417,-126 417,-120 "/>
<polyline fill="none" stroke="black" points="423,-120 417,-120 "/>
<text text-anchor="middle" x="332" y="-112.4" font-family="Arial" font-size="12.00">Prevents:</text>
<text text-anchor="middle" x="332" y="-99.4" font-family="Arial" font-size="12.00">• Perseveration (stuck in loops)</text>
<text text-anchor="middle" x="332" y="-86.4" font-family="Arial" font-size="12.00">• Runaway activation</text>
<text text-anchor="middle" x="332" y="-73.4" font-family="Arial" font-size="12.00">• Catastrophic forgetting</text>
<text text-anchor="middle" x="332" y="-46.4" font-family="Arial" font-size="12.00">Enables:</text>
<text text-anchor="middle" x="332" y="-33.4" font-family="Arial" font-size="12.00">• Temporal chunking</text>
<text text-anchor="middle" x="332" y="-20.4" font-family="Arial" font-size="12.00">• Working memory reset</text>
<text text-anchor="middle" x="332" y="-7.4" font-family="Arial" font-size="12.00">• Sequence boundaries</text>
</g>
<!-- impl&#45;&gt;functions -->
<g id="edge14" class="edge">
<title>impl&#45;&gt;functions</title>
<path fill="none" stroke="black" stroke-dasharray="1,5" d="M332,-162.88C332,-155.42 332,-146.11 332,-136.21"/>
<polygon fill="black" stroke="black" points="335.5,-136.17 332,-126.17 328.5,-136.17 335.5,-136.17"/>
</g>
</g>
</svg>
