<?xml version="1.0" encoding="UTF-8" standalone="no"?>
<!DOCTYPE svg PUBLIC "-//W3C//DTD SVG 1.1//EN"
 "http://www.w3.org/Graphics/SVG/1.1/DTD/svg11.dtd">
<!-- Generated by graphviz version 2.46.0 (20210118.1747)
 -->
<!-- Title: WorkingMemoryPrimacy Pages: 1 -->
<svg width="1105pt" height="987pt"
 viewBox="0.00 0.00 1104.50 987.37" xmlns="http://www.w3.org/2000/svg" xmlns:xlink="http://www.w3.org/1999/xlink">
<g id="graph0" class="graph" transform="scale(1 1) rotate(0) translate(4 983.37)">
<title>WorkingMemoryPrimacy</title>
<polygon fill="white" stroke="transparent" points="-4,4 -4,-983.37 1100.5,-983.37 1100.5,4 -4,4"/>
<text text-anchor="middle" x="548.25" y="-962.57" font-family="Arial Bold" font-size="16.00">Working Memory Primacy Gradient</text>
<text text-anchor="middle" x="548.25" y="-944.57" font-family="Arial Bold" font-size="16.00">Serial Position Effect (STORE 2)</text>
<g id="clust1" class="cluster">
<title>cluster_input</title>
<polygon fill="#e3f2fd" stroke="#e3f2fd" points="8,-199 8,-921.42 343,-921.42 343,-199 8,-199"/>
<text text-anchor="middle" x="175.5" y="-904.62" font-family="Arial Bold" font-size="16.00">Input Sequence (e.g., digits: 5&#45;5&#45;5&#45;1&#45;2&#45;3&#45;4)</text>
</g>
<g id="clust2" class="cluster">
<title>cluster_gradient</title>
<polygon fill="#fff9c4" stroke="#fff9c4" points="432,-825.37 432,-927.37 672,-927.37 672,-825.37 432,-825.37"/>
<text text-anchor="middle" x="552" y="-910.57" font-family="Arial Bold" font-size="16.00">Primacy Gradient Function</text>
</g>
<g id="clust3" class="cluster">
<title>cluster_wm</title>
<polygon fill="#c8e6c9" stroke="#c8e6c9" points="351,-116 351,-796.37 648,-796.37 648,-116 351,-116"/>
<text text-anchor="middle" x="499.5" y="-779.57" font-family="Arial Bold" font-size="16.00">Working Memory Storage (Weighted)</text>
</g>
<g id="clust4" class="cluster">
<title>cluster_chunking</title>
<polygon fill="#ffe0b2" stroke="#ffe0b2" points="380,-8 380,-97 621,-97 621,-8 380,-8"/>
<text text-anchor="middle" x="500.5" y="-80.2" font-family="Arial Bold" font-size="16.00">Influence on Chunking</text>
</g>
<g id="clust5" class="cluster">
<title>cluster_effects</title>
<polygon fill="#f3e5f5" stroke="#f3e5f5" points="629,-8 629,-97 1031,-97 1031,-8 629,-8"/>
<text text-anchor="middle" x="830" y="-80.2" font-family="Arial Bold" font-size="16.00">Serial Position Effects</text>
</g>
<!-- in1 -->
<g id="node1" class="node">
<title>in1</title>
<ellipse fill="#bbdefb" stroke="black" cx="305" cy="-863.37" rx="27" ry="24.08"/>
<text text-anchor="middle" x="305" y="-866.77" font-family="Arial" font-size="12.00">5</text>
<text text-anchor="middle" x="305" y="-853.77" font-family="Arial" font-size="12.00">t=0</text>
</g>
<!-- in2 -->
<g id="node2" class="node">
<title>in2</title>
<ellipse fill="#bbdefb" stroke="black" cx="303" cy="-744.37" rx="27" ry="24.08"/>
<text text-anchor="middle" x="303" y="-747.77" font-family="Arial" font-size="12.00">5</text>
<text text-anchor="middle" x="303" y="-734.77" font-family="Arial" font-size="12.00">t=1</text>
</g>
<!-- in1&#45;&gt;in2 -->
<g id="edge1" class="edge">
<title>in1&#45;&gt;in2</title>
<path fill="none" stroke="black" d="M304.6,-839.26C304.31,-821.95 303.9,-798.03 303.57,-778.66"/>
<polygon fill="black" stroke="black" points="307.06,-778.38 303.39,-768.44 300.07,-778.5 307.06,-778.38"/>
<text text-anchor="middle" x="321" y="-807.37" font-family="Arial" font-size="10.00">time →</text>
</g>
<!-- wm1 -->
<g id="node10" class="node">
<title>wm1</title>
<polygon fill="#4caf50" stroke="black" stroke-width="3" points="640,-762.37 584,-762.37 584,-726.37 640,-726.37 640,-762.37"/>
<text text-anchor="middle" x="612" y="-747.77" font-family="Arial" font-size="12.00" fill="white">5</text>
<text text-anchor="middle" x="612" y="-734.77" font-family="Arial" font-size="12.00" fill="white">w=1.00</text>
</g>
<!-- in1&#45;&gt;wm1 -->
<g id="edge13" class="edge">
<title>in1&#45;&gt;wm1</title>
<path fill="none" stroke="#4caf50" stroke-width="2" d="M329.6,-853C383.09,-832.61 510.25,-784.15 574.08,-759.83"/>
<polygon fill="#4caf50" stroke="#4caf50" stroke-width="2" points="575.66,-762.97 583.76,-756.14 573.17,-756.43 575.66,-762.97"/>
<text text-anchor="middle" x="469.5" y="-807.37" font-family="Arial" font-size="10.00">G(0)=1.0</text>
</g>
<!-- in3 -->
<g id="node3" class="node">
<title>in3</title>
<ellipse fill="#bbdefb" stroke="black" cx="303" cy="-649.29" rx="27" ry="24.08"/>
<text text-anchor="middle" x="303" y="-652.69" font-family="Arial" font-size="12.00">5</text>
<text text-anchor="middle" x="303" y="-639.69" font-family="Arial" font-size="12.00">t=2</text>
</g>
<!-- in2&#45;&gt;in3 -->
<g id="edge2" class="edge">
<title>in2&#45;&gt;in3</title>
<path fill="none" stroke="black" d="M303,-719.89C303,-708.89 303,-695.59 303,-683.58"/>
<polygon fill="black" stroke="black" points="306.5,-683.45 303,-673.45 299.5,-683.45 306.5,-683.45"/>
<text text-anchor="middle" x="319" y="-694.33" font-family="Arial" font-size="10.00">time →</text>
</g>
<!-- wm2 -->
<g id="node11" class="node">
<title>wm2</title>
<polygon fill="#66bb6a" stroke="black" points="600,-667.29 544,-667.29 544,-631.29 600,-631.29 600,-667.29"/>
<text text-anchor="middle" x="572" y="-652.69" font-family="Arial" font-size="12.00" fill="white">5</text>
<text text-anchor="middle" x="572" y="-639.69" font-family="Arial" font-size="12.00" fill="white">w=0.87</text>
</g>
<!-- in2&#45;&gt;wm2 -->
<g id="edge14" class="edge">
<title>in2&#45;&gt;wm2</title>
<path fill="none" stroke="#66bb6a" d="M325.46,-730.62C332.26,-727.03 339.83,-723.3 347,-720.33 410.97,-693.88 488.67,-671.8 534.01,-659.86"/>
<polygon fill="#66bb6a" stroke="#66bb6a" points="534.92,-663.24 543.72,-657.33 533.16,-656.47 534.92,-663.24"/>
<text text-anchor="middle" x="449" y="-694.33" font-family="Arial" font-size="10.00">G(1)=0.87</text>
</g>
<!-- in4 -->
<g id="node4" class="node">
<title>in4</title>
<ellipse fill="#90caf9" stroke="black" cx="303" cy="-535.25" rx="27" ry="24.08"/>
<text text-anchor="middle" x="303" y="-538.65" font-family="Arial" font-size="12.00">1</text>
<text text-anchor="middle" x="303" y="-525.65" font-family="Arial" font-size="12.00">t=3</text>
</g>
<!-- in3&#45;&gt;in4 -->
<g id="edge3" class="edge">
<title>in3&#45;&gt;in4</title>
<path fill="none" stroke="black" d="M303,-625.08C303,-609 303,-587.36 303,-569.47"/>
<polygon fill="black" stroke="black" points="306.5,-569.44 303,-559.44 299.5,-569.44 306.5,-569.44"/>
<text text-anchor="middle" x="319" y="-599.25" font-family="Arial" font-size="10.00">time →</text>
</g>
<!-- wm3 -->
<g id="node12" class="node">
<title>wm3</title>
<polygon fill="#81c784" stroke="black" points="548,-553.25 492,-553.25 492,-517.25 548,-517.25 548,-553.25"/>
<text text-anchor="middle" x="520" y="-538.65" font-family="Arial" font-size="12.00">5</text>
<text text-anchor="middle" x="520" y="-525.65" font-family="Arial" font-size="12.00">w=0.74</text>
</g>
<!-- in3&#45;&gt;wm3 -->
<g id="edge15" class="edge">
<title>in3&#45;&gt;wm3</title>
<path fill="none" stroke="#81c784" d="M325.82,-636.3C332.63,-632.73 340.11,-628.83 347,-625.25 393.78,-600.97 447.82,-573.22 482.87,-555.25"/>
<polygon fill="#81c784" stroke="#81c784" points="484.5,-558.35 491.8,-550.68 481.3,-552.12 484.5,-558.35"/>
<text text-anchor="middle" x="422" y="-599.25" font-family="Arial" font-size="10.00">G(2)=0.74</text>
</g>
<!-- in5 -->
<g id="node5" class="node">
<title>in5</title>
<ellipse fill="#90caf9" stroke="black" cx="303" cy="-421.21" rx="27" ry="24.08"/>
<text text-anchor="middle" x="303" y="-424.61" font-family="Arial" font-size="12.00">2</text>
<text text-anchor="middle" x="303" y="-411.61" font-family="Arial" font-size="12.00">t=4</text>
</g>
<!-- in4&#45;&gt;in5 -->
<g id="edge4" class="edge">
<title>in4&#45;&gt;in5</title>
<path fill="none" stroke="black" d="M303,-511.03C303,-494.96 303,-473.32 303,-455.43"/>
<polygon fill="black" stroke="black" points="306.5,-455.39 303,-445.39 299.5,-455.39 306.5,-455.39"/>
<text text-anchor="middle" x="319" y="-466.25" font-family="Arial" font-size="10.00">time →</text>
</g>
<!-- wm4 -->
<g id="node13" class="node">
<title>wm4</title>
<polygon fill="#a5d6a7" stroke="black" points="529,-439.21 473,-439.21 473,-403.21 529,-403.21 529,-439.21"/>
<text text-anchor="middle" x="501" y="-424.61" font-family="Arial" font-size="12.00">1</text>
<text text-anchor="middle" x="501" y="-411.61" font-family="Arial" font-size="12.00">w=0.61</text>
</g>
<!-- in4&#45;&gt;wm4 -->
<g id="edge16" class="edge">
<title>in4&#45;&gt;wm4</title>
<path fill="none" stroke="#a5d6a7" d="M319.39,-516.04C327.21,-508.06 337.03,-498.99 347,-492.25 383.83,-467.35 430.93,-447.41 463.29,-435.27"/>
<polygon fill="#a5d6a7" stroke="#a5d6a7" points="464.66,-438.5 472.84,-431.76 462.24,-431.93 464.66,-438.5"/>
<text text-anchor="middle" x="418" y="-466.25" font-family="Arial" font-size="10.00">G(3)=0.61</text>
</g>
<!-- in6 -->
<g id="node6" class="node">
<title>in6</title>
<ellipse fill="#64b5f6" stroke="black" cx="303" cy="-326.12" rx="27" ry="24.08"/>
<text text-anchor="middle" x="303" y="-329.52" font-family="Arial" font-size="12.00">3</text>
<text text-anchor="middle" x="303" y="-316.52" font-family="Arial" font-size="12.00">t=5</text>
</g>
<!-- in5&#45;&gt;in6 -->
<g id="edge5" class="edge">
<title>in5&#45;&gt;in6</title>
<path fill="none" stroke="black" d="M303,-396.72C303,-385.72 303,-372.43 303,-360.42"/>
<polygon fill="black" stroke="black" points="306.5,-360.28 303,-350.28 299.5,-360.28 306.5,-360.28"/>
<text text-anchor="middle" x="319" y="-371.17" font-family="Arial" font-size="10.00">time →</text>
</g>
<!-- wm5 -->
<g id="node14" class="node">
<title>wm5</title>
<polygon fill="#c8e6c9" stroke="black" points="472,-344.12 416,-344.12 416,-308.12 472,-308.12 472,-344.12"/>
<text text-anchor="middle" x="444" y="-329.52" font-family="Arial" font-size="12.00">2</text>
<text text-anchor="middle" x="444" y="-316.52" font-family="Arial" font-size="12.00">w=0.50</text>
</g>
<!-- in5&#45;&gt;wm5 -->
<g id="edge17" class="edge">
<title>in5&#45;&gt;wm5</title>
<path fill="none" stroke="#c8e6c9" d="M324.41,-406.07C346.98,-391.17 382.86,-367.49 409.44,-349.94"/>
<polygon fill="#c8e6c9" stroke="#c8e6c9" points="411.65,-352.68 418.06,-344.25 407.79,-346.84 411.65,-352.68"/>
<text text-anchor="middle" x="400" y="-371.17" font-family="Arial" font-size="10.00">G(4)=0.50</text>
</g>
<!-- in7 -->
<g id="node7" class="node">
<title>in7</title>
<ellipse fill="#64b5f6" stroke="black" cx="305" cy="-231.04" rx="27" ry="24.08"/>
<text text-anchor="middle" x="305" y="-234.44" font-family="Arial" font-size="12.00">4</text>
<text text-anchor="middle" x="305" y="-221.44" font-family="Arial" font-size="12.00">t=6</text>
</g>
<!-- in6&#45;&gt;in7 -->
<g id="edge6" class="edge">
<title>in6&#45;&gt;in7</title>
<path fill="none" stroke="black" d="M303.5,-301.64C303.74,-290.64 304.03,-277.34 304.28,-265.33"/>
<polygon fill="black" stroke="black" points="307.79,-265.27 304.5,-255.2 300.79,-265.12 307.79,-265.27"/>
<text text-anchor="middle" x="321" y="-276.08" font-family="Arial" font-size="10.00">time →</text>
</g>
<!-- wm6 -->
<g id="node15" class="node">
<title>wm6</title>
<polygon fill="#e8f5e9" stroke="black" points="434,-249.04 378,-249.04 378,-213.04 434,-213.04 434,-249.04"/>
<text text-anchor="middle" x="406" y="-234.44" font-family="Arial" font-size="12.00">3</text>
<text text-anchor="middle" x="406" y="-221.44" font-family="Arial" font-size="12.00">w=0.41</text>
</g>
<!-- in6&#45;&gt;wm6 -->
<g id="edge18" class="edge">
<title>in6&#45;&gt;wm6</title>
<path fill="none" stroke="black" d="M321.41,-308.48C337.62,-293.84 361.39,-272.35 379.62,-255.88"/>
<polygon fill="black" stroke="black" points="381.98,-258.47 387.05,-249.17 377.28,-253.28 381.98,-258.47"/>
<text text-anchor="middle" x="380" y="-276.08" font-family="Arial" font-size="10.00">G(5)=0.41</text>
</g>
<!-- wm7 -->
<g id="node16" class="node">
<title>wm7</title>
<polygon fill="#f1f8e9" stroke="black" points="415,-160 359,-160 359,-124 415,-124 415,-160"/>
<text text-anchor="middle" x="387" y="-145.4" font-family="Arial" font-size="12.00">4</text>
<text text-anchor="middle" x="387" y="-132.4" font-family="Arial" font-size="12.00">w=0.33</text>
</g>
<!-- in7&#45;&gt;wm7 -->
<g id="edge19" class="edge">
<title>in7&#45;&gt;wm7</title>
<path fill="none" stroke="black" d="M319.41,-210.59C327.19,-200.51 337.19,-188.21 347,-178 350.58,-174.27 354.52,-170.5 358.47,-166.87"/>
<polygon fill="black" stroke="black" points="360.88,-169.41 366.03,-160.15 356.23,-164.19 360.88,-169.41"/>
<text text-anchor="middle" x="369" y="-181" font-family="Arial" font-size="10.00">G(6)=0.33</text>
</g>
<!-- formula -->
<g id="node8" class="node">
<title>formula</title>
<polygon fill="#fff59d" stroke="black" points="664,-881.37 560,-881.37 560,-845.37 664,-845.37 664,-881.37"/>
<text text-anchor="middle" x="612" y="-866.77" font-family="Arial" font-size="12.00">G(t) = exp(&#45;t/τ)</text>
<text text-anchor="middle" x="612" y="-853.77" font-family="Arial" font-size="12.00">τ = time constant</text>
</g>
<!-- formula&#45;&gt;wm1 -->
<g id="edge20" class="edge">
<title>formula&#45;&gt;wm1</title>
<path fill="none" stroke="black" stroke-dasharray="1,5" d="M612,-845.36C612,-826.3 612,-795.13 612,-772.65"/>
<polygon fill="black" stroke="black" points="615.5,-772.41 612,-762.41 608.5,-772.41 615.5,-772.41"/>
<text text-anchor="middle" x="627.5" y="-807.37" font-family="Arial" font-size="10.00">applies</text>
</g>
<!-- curve -->
<g id="node9" class="node">
<title>curve</title>
<polygon fill="#ffe082" stroke="black" points="535.5,-893.37 440.5,-893.37 440.5,-833.37 541.5,-833.37 541.5,-887.37 535.5,-893.37"/>
<polyline fill="none" stroke="black" points="535.5,-893.37 535.5,-887.37 "/>
<polyline fill="none" stroke="black" points="541.5,-887.37 535.5,-887.37 "/>
<text text-anchor="middle" x="491" y="-879.77" font-family="Arial" font-size="12.00">Gradient Curve:</text>
<text text-anchor="middle" x="491" y="-866.77" font-family="Arial" font-size="12.00">━━━╲</text>
<text text-anchor="middle" x="491" y="-853.77" font-family="Arial" font-size="12.00"> &#160;&#160;&#160;╲</text>
<text text-anchor="middle" x="491" y="-840.77" font-family="Arial" font-size="12.00"> &#160;&#160;&#160;&#160;╲___</text>
</g>
<!-- wm1&#45;&gt;wm2 -->
<!-- chunk1 -->
<g id="node17" class="node">
<title>chunk1</title>
<polygon fill="#ff9800" stroke="black" stroke-width="2" points="612.5,-63 507.5,-63 507.5,-16 612.5,-16 612.5,-63"/>
<text text-anchor="middle" x="560" y="-49.4" font-family="Arial" font-size="12.00">Chunk 1: [555]</text>
<text text-anchor="middle" x="560" y="-36.4" font-family="Arial" font-size="12.00">Strong boundary</text>
<text text-anchor="middle" x="560" y="-23.4" font-family="Arial" font-size="12.00">(primacy peak)</text>
</g>
<!-- wm1&#45;&gt;chunk1 -->
<g id="edge21" class="edge">
<title>wm1&#45;&gt;chunk1</title>
<path fill="none" stroke="#ff6f00" stroke-dasharray="5,2" d="M633.64,-726.26C652.55,-709.24 677,-681.24 677,-650.29 677,-650.29 677,-650.29 677,-141 677,-110.73 647.98,-116.71 625,-97 614.79,-88.24 603.73,-78.67 593.68,-69.92"/>
<polygon fill="#ff6f00" stroke="#ff6f00" points="595.71,-67.05 585.87,-63.12 591.11,-72.33 595.71,-67.05"/>
</g>
<!-- primacy -->
<g id="node19" class="node">
<title>primacy</title>
<polygon fill="#e1bee7" stroke="black" points="1023,-63 901,-63 901,-16 1023,-16 1023,-63"/>
<text text-anchor="middle" x="962" y="-49.4" font-family="Arial" font-size="12.00">Primacy Effect</text>
<text text-anchor="middle" x="962" y="-36.4" font-family="Arial" font-size="12.00">Early items stronger</text>
<text text-anchor="middle" x="962" y="-23.4" font-family="Arial" font-size="12.00">(better recall)</text>
</g>
<!-- wm1&#45;&gt;primacy -->
<g id="edge28" class="edge">
<title>wm1&#45;&gt;primacy</title>
<path fill="none" stroke="#9c27b0" stroke-dasharray="1,5" d="M640.15,-732.29C670.64,-718.22 715,-690.78 715,-650.29 715,-650.29 715,-650.29 715,-141 715,-59.94 819.41,-133.09 892,-97 906.09,-90 919.93,-79.75 931.54,-69.91"/>
<polygon fill="#9c27b0" stroke="#9c27b0" points="933.98,-72.42 939.19,-63.2 929.36,-67.16 933.98,-72.42"/>
</g>
<!-- impl -->
<g id="node22" class="node">
<title>impl</title>
<polygon fill="#ffe082" stroke="black" points="926.5,-667.29 743.5,-667.29 743.5,-663.29 739.5,-663.29 739.5,-659.29 743.5,-659.29 743.5,-639.29 739.5,-639.29 739.5,-635.29 743.5,-635.29 743.5,-631.29 926.5,-631.29 926.5,-667.29"/>
<polyline fill="none" stroke="black" points="743.5,-663.29 747.5,-663.29 747.5,-659.29 743.5,-659.29 "/>
<polyline fill="none" stroke="black" points="743.5,-639.29 747.5,-639.29 747.5,-635.29 743.5,-635.29 "/>
<text text-anchor="middle" x="835" y="-652.69" font-family="Arial" font-size="12.00">PrimacyGradientController.java</text>
<text text-anchor="middle" x="835" y="-639.69" font-family="Arial" font-size="12.00">initializeForSequence()</text>
</g>
<!-- wm1&#45;&gt;impl -->
<g id="edge31" class="edge">
<title>wm1&#45;&gt;impl</title>
<path fill="none" stroke="#ff6f00" stroke-dasharray="1,5" d="M640.25,-734.51C664.17,-726.76 699.22,-714.81 729,-702.33 750.61,-693.28 774.05,-681.93 793.39,-672.15"/>
<polygon fill="#ff6f00" stroke="#ff6f00" points="795.2,-675.15 802.52,-667.49 792.02,-668.92 795.2,-675.15"/>
</g>
<!-- wm2&#45;&gt;wm3 -->
<!-- wm2&#45;&gt;chunk1 -->
<g id="edge22" class="edge">
<title>wm2&#45;&gt;chunk1</title>
<path fill="none" stroke="#ff6f00" stroke-dasharray="5,2" d="M577.8,-631.05C584.62,-609.24 595,-570.4 595,-536.25 595,-536.25 595,-536.25 595,-182.5 595,-143.89 582.65,-101.04 572.62,-72.62"/>
<polygon fill="#ff6f00" stroke="#ff6f00" points="575.9,-71.4 569.2,-63.2 569.32,-73.79 575.9,-71.4"/>
</g>
<!-- wm3&#45;&gt;wm4 -->
<!-- wm3&#45;&gt;chunk1 -->
<g id="edge23" class="edge">
<title>wm3&#45;&gt;chunk1</title>
<path fill="none" stroke="#ff6f00" stroke-dasharray="5,2" d="M529.53,-516.98C540.49,-495.46 557,-457.24 557,-422.21 557,-422.21 557,-422.21 557,-141 557,-118.47 557.76,-93.1 558.52,-73.49"/>
<polygon fill="#ff6f00" stroke="#ff6f00" points="562.03,-73.38 558.93,-63.25 555.03,-73.1 562.03,-73.38"/>
</g>
<!-- wm4&#45;&gt;wm5 -->
<!-- chunk2 -->
<g id="node18" class="node">
<title>chunk2</title>
<polygon fill="#ffb74d" stroke="black" points="489.5,-63 388.5,-63 388.5,-16 489.5,-16 489.5,-63"/>
<text text-anchor="middle" x="439" y="-49.4" font-family="Arial" font-size="12.00">Chunk 2: [1234]</text>
<text text-anchor="middle" x="439" y="-36.4" font-family="Arial" font-size="12.00">Weaker items</text>
<text text-anchor="middle" x="439" y="-23.4" font-family="Arial" font-size="12.00">(recency)</text>
</g>
<!-- wm4&#45;&gt;chunk2 -->
<g id="edge24" class="edge">
<title>wm4&#45;&gt;chunk2</title>
<path fill="none" stroke="black" stroke-dasharray="5,2" d="M506.4,-402.9C511.7,-384.35 519,-353.95 519,-327.12 519,-327.12 519,-327.12 519,-141 519,-124.5 492.27,-93.49 469.71,-70.26"/>
<polygon fill="black" stroke="black" points="472.08,-67.69 462.57,-63.02 467.1,-72.6 472.08,-67.69"/>
</g>
<!-- middle -->
<g id="node21" class="node">
<title>middle</title>
<polygon fill="#ba68c8" stroke="black" points="882.5,-63 795.5,-63 795.5,-16 882.5,-16 882.5,-63"/>
<text text-anchor="middle" x="839" y="-49.4" font-family="Arial" font-size="12.00">Middle Items</text>
<text text-anchor="middle" x="839" y="-36.4" font-family="Arial" font-size="12.00">Weakest</text>
<text text-anchor="middle" x="839" y="-23.4" font-family="Arial" font-size="12.00">(interference)</text>
</g>
<!-- wm4&#45;&gt;middle -->
<g id="edge30" class="edge">
<title>wm4&#45;&gt;middle</title>
<path fill="none" stroke="#9c27b0" stroke-dasharray="1,5" d="M529.26,-414.47C569.63,-404.44 639,-379.58 639,-327.12 639,-327.12 639,-327.12 639,-182.5 639,-138.39 662.18,-125.95 701,-105 734.39,-86.98 751.93,-113.7 786,-97 798.2,-91.02 809.02,-80.97 817.65,-70.98"/>
<polygon fill="#9c27b0" stroke="#9c27b0" points="820.5,-73.03 824.09,-63.07 815.07,-68.62 820.5,-73.03"/>
</g>
<!-- wm5&#45;&gt;wm6 -->
<!-- wm5&#45;&gt;chunk2 -->
<g id="edge25" class="edge">
<title>wm5&#45;&gt;chunk2</title>
<path fill="none" stroke="black" stroke-dasharray="5,2" d="M445.11,-307.98C447.32,-270.9 451.67,-180.53 447,-105 446.36,-94.64 445.15,-83.39 443.85,-73.23"/>
<polygon fill="black" stroke="black" points="447.3,-72.57 442.5,-63.12 440.36,-73.5 447.3,-72.57"/>
</g>
<!-- wm6&#45;&gt;wm7 -->
<!-- wm6&#45;&gt;chunk2 -->
<g id="edge26" class="edge">
<title>wm6&#45;&gt;chunk2</title>
<path fill="none" stroke="black" stroke-dasharray="5,2" d="M411.05,-212.91C415.05,-198.81 420.52,-178.25 424,-160 429.55,-130.84 433.56,-97.26 436.03,-73.14"/>
<polygon fill="black" stroke="black" points="439.52,-73.39 437.02,-63.1 432.56,-72.7 439.52,-73.39"/>
</g>
<!-- wm7&#45;&gt;chunk2 -->
<g id="edge27" class="edge">
<title>wm7&#45;&gt;chunk2</title>
<path fill="none" stroke="black" stroke-dasharray="5,2" d="M395.82,-123.95C403.11,-109.87 413.65,-89.49 422.49,-72.4"/>
<polygon fill="black" stroke="black" points="425.71,-73.79 427.2,-63.3 419.5,-70.58 425.71,-73.79"/>
</g>
<!-- recency -->
<g id="node20" class="node">
<title>recency</title>
<polygon fill="#ce93d8" stroke="black" points="777,-63 637,-63 637,-16 777,-16 777,-63"/>
<text text-anchor="middle" x="707" y="-49.4" font-family="Arial" font-size="12.00">Recency Effect</text>
<text text-anchor="middle" x="707" y="-36.4" font-family="Arial" font-size="12.00">Recent items moderate</text>
<text text-anchor="middle" x="707" y="-23.4" font-family="Arial" font-size="12.00">(still active)</text>
</g>
<!-- wm7&#45;&gt;recency -->
<g id="edge29" class="edge">
<title>wm7&#45;&gt;recency</title>
<path fill="none" stroke="#9c27b0" stroke-dasharray="1,5" d="M415.2,-139.59C460.88,-136.49 553.19,-126.77 625,-97 641.53,-90.15 658.1,-79.6 671.97,-69.46"/>
<polygon fill="#9c27b0" stroke="#9c27b0" points="674.35,-72.05 680.24,-63.24 670.15,-66.46 674.35,-72.05"/>
</g>
<!-- params -->
<g id="node23" class="node">
<title>params</title>
<polygon fill="#e1f5fe" stroke="black" points="897,-571.75 751,-571.75 751,-498.75 903,-498.75 903,-565.75 897,-571.75"/>
<polyline fill="none" stroke="black" points="897,-571.75 897,-565.75 "/>
<polyline fill="none" stroke="black" points="903,-565.75 897,-565.75 "/>
<text text-anchor="middle" x="827" y="-558.15" font-family="Arial" font-size="12.00">Parameters:</text>
<text text-anchor="middle" x="827" y="-545.15" font-family="Arial" font-size="12.00">• τ (time constant): 3.0&#45;5.0</text>
<text text-anchor="middle" x="827" y="-532.15" font-family="Arial" font-size="12.00">• Decay rate: exp(&#45;1/τ)</text>
<text text-anchor="middle" x="827" y="-519.15" font-family="Arial" font-size="12.00">• Range: [0, 1]</text>
<text text-anchor="middle" x="827" y="-506.15" font-family="Arial" font-size="12.00">• Applied per time step</text>
</g>
<!-- impl&#45;&gt;params -->
<g id="edge32" class="edge">
<title>impl&#45;&gt;params</title>
<path fill="none" stroke="black" stroke-dasharray="1,5" d="M833.78,-631.27C832.85,-618.17 831.51,-599.42 830.27,-582.04"/>
<polygon fill="black" stroke="black" points="833.76,-581.73 829.55,-572.01 826.77,-582.23 833.76,-581.73"/>
</g>
<!-- phenomena -->
<g id="node24" class="node">
<title>phenomena</title>
<polygon fill="#fff9c4" stroke="black" points="1090.5,-578.25 921.5,-578.25 921.5,-492.25 1096.5,-492.25 1096.5,-572.25 1090.5,-578.25"/>
<polyline fill="none" stroke="black" points="1090.5,-578.25 1090.5,-572.25 "/>
<polyline fill="none" stroke="black" points="1096.5,-572.25 1090.5,-572.25 "/>
<text text-anchor="middle" x="1009" y="-564.65" font-family="Arial" font-size="12.00">Explains:</text>
<text text-anchor="middle" x="1009" y="-551.65" font-family="Arial" font-size="12.00">• Miller&#39;s 7±2 (chunk capacity)</text>
<text text-anchor="middle" x="1009" y="-538.65" font-family="Arial" font-size="12.00">• Serial position curve</text>
<text text-anchor="middle" x="1009" y="-525.65" font-family="Arial" font-size="12.00">• Primacy &gt; recency</text>
<text text-anchor="middle" x="1009" y="-512.65" font-family="Arial" font-size="12.00">• Chunk boundary detection</text>
<text text-anchor="middle" x="1009" y="-499.65" font-family="Arial" font-size="12.00">• Temporal credit assignment</text>
</g>
<!-- impl&#45;&gt;phenomena -->
<g id="edge33" class="edge">
<title>impl&#45;&gt;phenomena</title>
<path fill="none" stroke="black" stroke-dasharray="1,5" d="M861.43,-631.27C881.07,-618.62 908.9,-600.71 935.1,-583.84"/>
<polygon fill="black" stroke="black" points="937.02,-586.76 943.54,-578.4 933.24,-580.87 937.02,-586.76"/>
</g>
</g>
</svg>
